<?xml version="1.0" encoding="utf-8"?>
<!-- Generator: Adobe Illustrator 17.0.0, SVG Export Plug-In . SVG Version: 6.00 Build 0)  -->
<!DOCTYPE svg PUBLIC "-//W3C//DTD SVG 1.1//EN" "http://www.w3.org/Graphics/SVG/1.1/DTD/svg11.dtd">
<svg version="1.1" id="Feneas_Sticker" xmlns="http://www.w3.org/2000/svg" xmlns:xlink="http://www.w3.org/1999/xlink" x="0px"
	 y="0px" width="900px" height="900px" viewBox="0 0 900 900" enable-background="new 0 0 900 900" xml:space="preserve">
<rect id="delete_bg" y="-2" fill="#808285" width="907" height="902"/>
<g id="Text">
	<g>
		<path fill="#0B0B0B" d="M448.845,92.347c-201.15,0-359.599,158.448-359.599,359.599c0,201.152,158.449,359.601,359.599,359.601
			c201.15,0,359.598-158.449,359.598-359.601C808.443,250.796,649.995,92.347,448.845,92.347L448.845,92.347z"/>
		<g>
			<path fill="#EDEDED" d="M452.398,706.629c-0.88,0-1.597-0.708-1.606-1.589c-0.01-0.888,0.703-1.614,1.589-1.625
				c3.206-0.035,6.397-0.125,9.574-0.28c0.872-0.074,1.638,0.641,1.683,1.528c0.042,0.887-0.643,1.64-1.528,1.682
				c-3.214,0.155-6.447,0.249-9.694,0.284C452.409,706.629,452.404,706.629,452.398,706.629L452.398,706.629z M442.76,706.554
				c-0.014,0-0.028,0-0.042,0c-3.245-0.088-6.473-0.233-9.687-0.441c-0.885-0.057-1.557-0.821-1.5-1.707
				c0.057-0.885,0.793-1.554,1.707-1.5c3.173,0.205,6.361,0.35,9.564,0.435c0.889,0.023,1.588,0.761,1.565,1.648
				C444.343,705.863,443.629,706.554,442.76,706.554L442.76,706.554z M471.646,705.702c-0.825,0-1.527-0.633-1.6-1.469
				c-0.077-0.885,0.579-1.663,1.464-1.739c3.19-0.275,6.365-0.609,9.523-1.001c0.869-0.097,1.683,0.513,1.792,1.398
				c0.111,0.88-0.515,1.681-1.396,1.791c-3.195,0.399-6.411,0.736-9.642,1.013C471.739,705.701,471.691,705.702,471.646,705.702
				L471.646,705.702z M423.534,705.316c-0.055,0-0.111-0.003-0.165-0.007c-3.228-0.332-6.436-0.721-9.628-1.172
				c-0.878-0.124-1.49-0.938-1.366-1.815c0.124-0.877,0.939-1.495,1.816-1.367c3.15,0.445,6.318,0.831,9.504,1.156
				c0.883,0.092,1.526,0.88,1.436,1.761C425.046,704.7,424.348,705.316,423.534,705.316L423.534,705.316z M490.767,703.324
				c-0.775,0-1.457-0.561-1.586-1.348c-0.141-0.877,0.453-1.702,1.327-1.845c3.16-0.516,6.299-1.09,9.419-1.724
				c0.885-0.154,1.718,0.388,1.895,1.255c0.175,0.872-0.385,1.718-1.256,1.896c-3.159,0.64-6.339,1.224-9.539,1.744
				C490.94,703.317,490.852,703.324,490.767,703.324L490.767,703.324z M404.453,702.626c-0.094,0-0.189-0.008-0.287-0.026
				c-3.19-0.576-6.361-1.209-9.51-1.902c-0.866-0.19-1.416-1.046-1.224-1.914c0.188-0.868,1.042-1.411,1.914-1.224
				c3.108,0.682,6.238,1.309,9.391,1.876c0.872,0.158,1.452,0.993,1.295,1.865C405.893,702.08,405.216,702.626,404.453,702.626
				L404.453,702.626z M509.654,699.495c-0.724,0-1.381-0.493-1.561-1.226c-0.209-0.864,0.321-1.733,1.182-1.942
				c3.11-0.753,6.195-1.569,9.26-2.438c0.853-0.248,1.743,0.253,1.984,1.106c0.244,0.854-0.252,1.744-1.105,1.985
				c-3.105,0.881-6.232,1.706-9.378,2.469C509.905,699.482,509.779,699.495,509.654,699.495L509.654,699.495z M385.633,698.486
				c-0.135,0-0.27-0.016-0.406-0.051c-3.137-0.815-6.249-1.691-9.337-2.624c-0.85-0.256-1.331-1.154-1.073-2.003
				c0.255-0.849,1.147-1.327,2.001-1.074c3.05,0.922,6.122,1.784,9.218,2.591c0.858,0.222,1.373,1.101,1.15,1.959
				C386.998,698.007,386.347,698.486,385.633,698.486L385.633,698.486z M528.189,694.231c-0.674,0-1.306-0.43-1.527-1.109
				c-0.274-0.842,0.186-1.749,1.031-2.026c3.039-0.992,6.056-2.039,9.045-3.141c0.833-0.305,1.753,0.117,2.063,0.953
				c0.306,0.831-0.12,1.756-0.953,2.063c-3.025,1.115-6.079,2.178-9.16,3.182C528.522,694.207,528.355,694.231,528.189,694.231
				L528.189,694.231z M367.155,692.908c-0.174,0-0.35-0.027-0.524-0.086c-3.071-1.058-6.115-2.172-9.132-3.341
				c-0.827-0.319-1.238-1.251-0.918-2.079c0.318-0.829,1.246-1.241,2.079-0.918c2.98,1.154,5.986,2.255,9.018,3.299
				c0.838,0.288,1.284,1.203,0.995,2.043C368.445,692.491,367.821,692.908,367.155,692.908L367.155,692.908z M546.272,687.563
				c-0.632,0-1.233-0.373-1.488-0.995c-0.336-0.819,0.053-1.759,0.873-2.098c2.949-1.216,5.865-2.486,8.756-3.813
				c0.809-0.365,1.757-0.015,2.129,0.791c0.369,0.807,0.016,1.76-0.79,2.131c-2.927,1.341-5.884,2.632-8.872,3.862
				C546.682,687.524,546.474,687.563,546.272,687.563L546.272,687.563z M349.142,685.924c-0.212,0-0.428-0.043-0.637-0.132
				c-2.978-1.288-5.925-2.633-8.843-4.029c-0.8-0.384-1.139-1.342-0.756-2.144c0.383-0.801,1.34-1.139,2.143-0.755
				c2.882,1.38,5.793,2.706,8.733,3.978c0.814,0.353,1.188,1.298,0.836,2.113C350.356,685.56,349.763,685.924,349.142,685.924
				L349.142,685.924z M563.746,679.551c-0.586,0-1.155-0.321-1.437-0.881c-0.397-0.792-0.082-1.759,0.71-2.159
				c2.846-1.439,5.661-2.93,8.444-4.473c0.775-0.431,1.755-0.151,2.185,0.628c0.431,0.775,0.15,1.753-0.627,2.183
				c-2.818,1.562-5.67,3.073-8.552,4.531C564.236,679.497,563.988,679.551,563.746,679.551L563.746,679.551z M331.727,677.581
				c-0.253,0-0.508-0.059-0.747-0.185c-2.868-1.512-5.703-3.077-8.506-4.691c-0.768-0.443-1.034-1.426-0.59-2.194
				c0.441-0.768,1.421-1.032,2.193-0.59c2.767,1.594,5.568,3.14,8.399,4.632c0.786,0.415,1.087,1.385,0.672,2.17
				C332.862,677.268,332.305,677.581,331.727,677.581L331.727,677.581z M580.571,670.228c-0.546,0-1.075-0.275-1.377-0.775
				c-0.461-0.759-0.216-1.748,0.543-2.206c2.729-1.65,5.424-3.354,8.086-5.104c0.747-0.488,1.741-0.284,2.225,0.458
				c0.488,0.741,0.283,1.738-0.458,2.225c-2.695,1.775-5.426,3.499-8.188,5.17C581.14,670.154,580.853,670.228,580.571,670.228
				L580.571,670.228z M315.012,667.94c-0.292,0-0.588-0.079-0.854-0.247c-2.742-1.724-5.449-3.499-8.12-5.322
				c-0.732-0.5-0.921-1.501-0.42-2.234c0.503-0.733,1.5-0.918,2.234-0.42c2.635,1.802,5.308,3.554,8.016,5.256
				c0.752,0.473,0.978,1.464,0.505,2.216C316.067,667.673,315.544,667.94,315.012,667.94L315.012,667.94z M596.647,659.648
				c-0.503,0-0.996-0.234-1.309-0.672c-0.515-0.722-0.348-1.726,0.373-2.242c2.598-1.853,5.157-3.755,7.68-5.703
				c0.703-0.543,1.714-0.411,2.253,0.288c0.542,0.701,0.415,1.711-0.288,2.253c-2.555,1.973-5.148,3.9-7.779,5.777
				C597.297,659.55,596.97,659.648,596.647,659.648L596.647,659.648z M299.083,657.06c-0.333,0-0.667-0.102-0.956-0.315
				c-2.6-1.927-5.162-3.899-7.688-5.92c-0.692-0.555-0.805-1.565-0.251-2.259c0.557-0.689,1.565-0.805,2.26-0.252
				c2.494,1.997,5.025,3.947,7.593,5.849c0.712,0.528,0.862,1.534,0.335,2.248C300.06,656.836,299.575,657.06,299.083,657.06
				L299.083,657.06z M611.885,647.874c-0.464,0-0.92-0.195-1.236-0.577c-0.57-0.681-0.477-1.694,0.204-2.261
				c2.45-2.047,4.861-4.137,7.23-6.275c0.656-0.592,1.67-0.54,2.271,0.119c0.593,0.66,0.542,1.676-0.119,2.271
				c-2.399,2.162-4.842,4.279-7.323,6.35C612.613,647.753,612.248,647.874,611.885,647.874L611.885,647.874z M284.033,645.007
				c-0.374,0-0.747-0.128-1.051-0.392c-2.446-2.114-4.852-4.277-7.216-6.482c-0.648-0.605-0.684-1.621-0.078-2.271
				c0.606-0.648,1.621-0.683,2.271-0.078c2.333,2.179,4.71,4.313,7.126,6.403c0.671,0.581,0.743,1.594,0.163,2.265
				C284.93,644.819,284.483,645.007,284.033,645.007L284.033,645.007z M626.192,634.979c-0.419,0-0.834-0.164-1.151-0.488
				c-0.617-0.636-0.604-1.654,0.032-2.271c2.288-2.225,4.535-4.495,6.738-6.804c0.612-0.644,1.624-0.666,2.272-0.054
				c0.64,0.612,0.664,1.629,0.054,2.271c-2.232,2.341-4.508,4.637-6.824,6.89C627.002,634.828,626.598,634.979,626.192,634.979
				L626.192,634.979z M269.943,631.856c-0.412,0-0.825-0.156-1.139-0.473c-2.278-2.292-4.513-4.629-6.703-7.006
				c-0.6-0.654-0.56-1.67,0.093-2.271c0.654-0.601,1.671-0.561,2.27,0.093c2.162,2.348,4.368,4.655,6.618,6.919
				c0.625,0.629,0.623,1.647-0.006,2.272C270.763,631.701,270.353,631.856,269.943,631.856L269.943,631.856z M639.496,621.029
				c-0.379,0-0.759-0.132-1.065-0.403c-0.666-0.586-0.729-1.602-0.14-2.267c2.114-2.393,4.184-4.826,6.207-7.297
				c0.558-0.686,1.57-0.787,2.261-0.225c0.685,0.562,0.787,1.575,0.224,2.263c-2.047,2.501-4.143,4.963-6.285,7.388
				C640.383,620.847,639.939,621.029,639.496,621.029L639.496,621.029z M256.892,617.687c-0.453,0-0.903-0.193-1.222-0.565
				c-2.096-2.457-4.147-4.954-6.151-7.489c-0.551-0.698-0.433-1.708,0.263-2.257c0.699-0.55,1.71-0.429,2.257,0.264
				c1.978,2.504,4.004,4.97,6.075,7.396c0.576,0.675,0.496,1.69-0.179,2.267C257.633,617.559,257.262,617.687,256.892,617.687
				L256.892,617.687z M651.704,606.112c-0.335,0-0.678-0.106-0.969-0.325c-0.706-0.536-0.846-1.544-0.309-2.252
				c1.927-2.546,3.807-5.129,5.637-7.749c0.509-0.73,1.511-0.906,2.24-0.395c0.725,0.507,0.903,1.508,0.393,2.237
				c-1.853,2.651-3.757,5.268-5.709,7.846C652.671,605.892,652.192,606.112,651.704,606.112L651.704,606.112z M244.957,602.574
				c-0.496,0-0.985-0.229-1.299-0.658c-1.904-2.608-3.757-5.252-5.564-7.932c-0.495-0.735-0.301-1.733,0.435-2.229
				c0.733-0.493,1.734-0.303,2.23,0.435c1.784,2.644,3.616,5.256,5.494,7.83c0.524,0.717,0.367,1.722-0.35,2.245
				C245.618,602.475,245.285,602.574,244.957,602.574L244.957,602.574z M662.757,590.302c-0.299,0-0.6-0.084-0.868-0.256
				c-0.747-0.48-0.961-1.474-0.48-2.22c1.728-2.685,3.405-5.405,5.036-8.159c0.45-0.764,1.434-1.02,2.198-0.566
				c0.765,0.45,1.017,1.437,0.565,2.201c-1.645,2.787-3.347,5.543-5.098,8.262C663.802,590.041,663.285,590.302,662.757,590.302
				L662.757,590.302z M234.203,586.613c-0.538,0-1.064-0.271-1.366-0.761c-1.699-2.741-3.348-5.516-4.944-8.326
				c-0.44-0.771-0.17-1.752,0.602-2.19c0.772-0.443,1.751-0.169,2.191,0.602c1.576,2.775,3.203,5.516,4.881,8.222
				c0.468,0.753,0.235,1.743-0.519,2.212C234.783,586.534,234.492,586.613,234.203,586.613L234.203,586.613z M672.578,573.693
				c-0.256,0-0.519-0.063-0.761-0.193c-0.782-0.422-1.071-1.398-0.65-2.178c1.519-2.81,2.986-5.652,4.4-8.523
				c0.394-0.799,1.358-1.123,2.151-0.733c0.798,0.392,1.124,1.356,0.735,2.151c-1.433,2.91-2.92,5.79-4.459,8.633
				C673.704,573.388,673.151,573.693,672.578,573.693L672.578,573.693z M224.697,569.888c-0.581,0-1.143-0.315-1.429-0.867
				c-1.484-2.86-2.916-5.752-4.292-8.671c-0.379-0.803-0.035-1.76,0.767-2.139c0.802-0.381,1.762-0.035,2.139,0.767
				c1.36,2.885,2.774,5.74,4.239,8.562c0.408,0.787,0.102,1.757-0.685,2.167C225.199,569.83,224.946,569.888,224.697,569.888
				L224.697,569.888z M681.109,556.373c-0.218,0-0.441-0.043-0.654-0.14c-0.81-0.36-1.175-1.308-0.813-2.12
				c1.299-2.919,2.547-5.865,3.736-8.841c0.334-0.825,1.267-1.22,2.091-0.893c0.825,0.33,1.224,1.265,0.895,2.089
				c-1.208,3.012-2.469,5.998-3.79,8.954C682.311,556.018,681.724,556.373,681.109,556.373L681.109,556.373z M216.494,552.501
				c-0.624,0-1.218-0.367-1.478-0.977c-1.26-2.961-2.466-5.95-3.618-8.967c-0.316-0.829,0.1-1.757,0.929-2.074
				c0.827-0.321,1.756,0.098,2.074,0.929c1.136,2.98,2.327,5.93,3.571,8.853c0.348,0.817-0.033,1.761-0.849,2.108
				C216.918,552.46,216.705,552.501,216.494,552.501L216.494,552.501z M688.291,538.439c-0.178,0-0.361-0.03-0.54-0.093
				c-0.834-0.297-1.271-1.218-0.973-2.054c1.073-3.008,2.091-6.043,3.051-9.105c0.264-0.846,1.16-1.319,2.012-1.053
				c0.849,0.264,1.319,1.167,1.055,2.012c-0.974,3.104-2.005,6.178-3.089,9.225C689.57,538.03,688.953,538.439,688.291,538.439
				L688.291,538.439z M209.639,534.52c-0.67,0-1.296-0.42-1.522-1.09c-1.032-3.059-2.01-6.141-2.929-9.245
				c-0.251-0.852,0.234-1.745,1.084-1.997c0.857-0.257,1.745,0.233,1.997,1.083c0.907,3.069,1.872,6.112,2.891,9.129
				c0.284,0.841-0.166,1.752-1.007,2.036C209.983,534.495,209.81,534.52,209.639,534.52L209.639,534.52z M694.071,520.026
				c-0.139,0-0.283-0.018-0.423-0.058c-0.857-0.233-1.361-1.115-1.129-1.97c0.838-3.071,1.616-6.17,2.337-9.287
				c0.204-0.864,1.073-1.403,1.929-1.203c0.864,0.202,1.403,1.065,1.203,1.929c-0.732,3.157-1.519,6.292-2.366,9.405
				C695.425,519.556,694.777,520.026,694.071,520.026L694.071,520.026z M204.171,516.044c-0.718,0-1.37-0.484-1.555-1.21
				c-0.797-3.126-1.534-6.275-2.212-9.442c-0.187-0.868,0.365-1.722,1.233-1.908c0.871-0.202,1.721,0.368,1.908,1.233
				c0.672,3.131,1.4,6.238,2.185,9.323c0.22,0.86-0.3,1.734-1.16,1.953C204.436,516.028,204.303,516.044,204.171,516.044
				L204.171,516.044z M698.417,501.251c-0.102,0-0.203-0.009-0.305-0.027c-0.873-0.167-1.443-1.011-1.276-1.88
				c0.597-3.128,1.138-6.273,1.62-9.439c0.132-0.876,0.954-1.486,1.83-1.346c0.876,0.133,1.478,0.953,1.348,1.83
				c-0.491,3.206-1.038,6.392-1.641,9.556C699.844,500.716,699.172,501.251,698.417,501.251L698.417,501.251z M200.134,497.201
				c-0.767,0-1.445-0.548-1.581-1.33c-0.554-3.176-1.05-6.369-1.484-9.583c-0.118-0.879,0.497-1.689,1.378-1.807
				c0.869-0.112,1.687,0.499,1.807,1.376c0.428,3.174,0.918,6.327,1.466,9.462c0.152,0.875-0.433,1.707-1.307,1.86
				C200.319,497.193,200.225,497.201,200.134,497.201L200.134,497.201z M701.315,482.202c-0.062,0-0.123-0.003-0.183-0.011
				c-0.883-0.1-1.516-0.895-1.415-1.776c0.357-3.163,0.656-6.341,0.897-9.535c0.065-0.884,0.853-1.528,1.724-1.481
				c0.884,0.066,1.548,0.838,1.48,1.722c-0.242,3.234-0.546,6.454-0.91,9.655C702.816,481.596,702.12,482.202,701.315,482.202
				L701.315,482.202z M197.547,478.107c-0.818,0-1.517-0.623-1.597-1.452c-0.311-3.206-0.563-6.428-0.754-9.669
				c-0.053-0.884,0.623-1.646,1.509-1.698c0.889-0.062,1.644,0.625,1.698,1.509c0.188,3.201,0.436,6.381,0.743,9.547
				c0.087,0.884-0.559,1.67-1.443,1.755C197.65,478.103,197.598,478.107,197.547,478.107L197.547,478.107z M702.758,462.987
				c-0.022,0-0.043,0-0.063-0.003c-0.885-0.032-1.577-0.779-1.546-1.666c0.12-3.175,0.181-6.366,0.181-9.572
				c0-0.252,0.059-0.492,0.162-0.705c-0.107-0.212-0.164-0.451-0.167-0.705c-0.016-3.206-0.096-6.396-0.229-9.57
				c-0.039-0.887,0.65-1.636,1.536-1.675c0.92-0.055,1.635,0.65,1.674,1.536c0.137,3.216,0.216,6.446,0.232,9.692
				c0.004,0.255-0.054,0.497-0.159,0.713c0.105,0.214,0.164,0.457,0.164,0.713c0,3.246-0.059,6.478-0.18,9.695
				C704.328,462.308,703.615,462.987,702.758,462.987L702.758,462.987z M196.414,458.87c-0.873,0-1.588-0.698-1.607-1.573
				c-0.039-1.845-0.06-3.697-0.06-5.551c0-1.384,0.011-2.767,0.033-4.147c0.015-0.887,0.692-1.608,1.632-1.581
				c0.888,0.013,1.596,0.745,1.581,1.631c-0.022,1.364-0.033,2.729-0.033,4.097c0,1.833,0.02,3.659,0.06,5.482
				c0.018,0.888-0.686,1.623-1.572,1.642C196.436,458.87,196.425,458.87,196.414,458.87L196.414,458.87z M196.723,439.601
				c-0.03,0-0.058,0-0.088-0.003c-0.887-0.047-1.566-0.805-1.519-1.691c0.174-3.24,0.408-6.465,0.701-9.671
				c0.082-0.883,0.874-1.519,1.746-1.454c0.885,0.082,1.534,0.863,1.455,1.746c-0.29,3.17-0.521,6.353-0.692,9.552
				C198.28,438.936,197.571,439.601,196.723,439.601L196.723,439.601z M702.103,432.686c-0.829,0-1.534-0.637-1.601-1.478
				c-0.256-3.193-0.573-6.368-0.949-9.527c-0.105-0.881,0.523-1.68,1.406-1.785c0.888-0.123,1.679,0.525,1.786,1.406
				c0.38,3.199,0.701,6.416,0.962,9.65c0.07,0.883-0.59,1.658-1.474,1.73C702.189,432.684,702.145,432.686,702.103,432.686
				L702.103,432.686z M198.479,420.412c-0.069,0-0.138-0.005-0.209-0.014c-0.88-0.115-1.5-0.92-1.385-1.8
				c0.417-3.217,0.895-6.414,1.431-9.59c0.145-0.875,0.966-1.466,1.851-1.318c0.876,0.148,1.466,0.976,1.318,1.852
				c-0.529,3.138-1.001,6.295-1.415,9.471C199.964,419.821,199.274,420.412,198.479,420.412L198.479,420.412z M699.825,413.552
				c-0.776,0-1.461-0.565-1.585-1.356c-0.499-3.162-1.059-6.306-1.675-9.428c-0.171-0.871,0.396-1.715,1.267-1.887
				c0.871-0.177,1.713,0.394,1.888,1.266c0.623,3.163,1.186,6.345,1.693,9.547c0.139,0.877-0.46,1.699-1.337,1.837
				C699.992,413.546,699.906,413.552,699.825,413.552L699.825,413.552z M201.686,401.412c-0.109,0-0.218-0.011-0.33-0.034
				c-0.869-0.181-1.426-1.031-1.245-1.9c0.661-3.174,1.381-6.326,2.16-9.455c0.213-0.862,1.083-1.385,1.947-1.172
				c0.862,0.215,1.385,1.086,1.172,1.947c-0.769,3.091-1.48,6.203-2.135,9.336C203.099,400.891,202.431,401.412,201.686,401.412
				L201.686,401.412z M696.098,394.649c-0.728,0-1.39-0.498-1.562-1.237c-0.74-3.112-1.535-6.203-2.388-9.273
				c-0.239-0.855,0.261-1.74,1.117-1.978c0.844-0.235,1.738,0.264,1.978,1.119c0.862,3.106,1.668,6.238,2.418,9.392
				c0.205,0.863-0.329,1.729-1.193,1.933C696.343,394.634,696.22,394.649,696.098,394.649L696.098,394.649z M206.336,382.712
				c-0.148,0-0.298-0.02-0.447-0.063c-0.852-0.248-1.343-1.139-1.097-1.99c0.902-3.113,1.863-6.2,2.879-9.264
				c0.279-0.841,1.189-1.29,2.031-1.018c0.842,0.279,1.298,1.189,1.019,2.032c-1.004,3.023-1.952,6.072-2.842,9.144
				C207.676,382.255,207.035,382.712,206.336,382.712L206.336,382.712z M690.936,376.082c-0.679,0-1.313-0.435-1.531-1.117
				c-0.976-3.046-2.008-6.068-3.094-9.063c-0.303-0.833,0.129-1.756,0.964-2.059c0.832-0.297,1.756,0.129,2.058,0.964
				c1.1,3.033,2.144,6.092,3.133,9.178c0.271,0.844-0.195,1.749-1.04,2.02C691.264,376.058,691.097,376.082,690.936,376.082
				L690.936,376.082z M212.416,364.397c-0.188,0-0.378-0.033-0.565-0.102c-0.83-0.312-1.25-1.237-0.939-2.069
				c1.141-3.039,2.337-6.051,3.59-9.034c0.342-0.819,1.291-1.201,2.102-0.86c0.819,0.344,1.203,1.285,0.86,2.102
				c-1.236,2.945-2.418,5.919-3.542,8.921C213.679,364,213.066,364.397,212.416,364.397L212.416,364.397z M684.362,357.967
				c-0.635,0-1.234-0.378-1.488-1.001c-1.202-2.953-2.457-5.879-3.766-8.775c-0.368-0.808-0.007-1.761,0.799-2.126
				c0.807-0.365,1.761-0.008,2.127,0.802c1.325,2.934,2.599,5.898,3.815,8.888c0.334,0.822-0.061,1.76-0.883,2.094
				C684.768,357.93,684.565,357.967,684.362,357.967L684.362,357.967z M219.888,346.586c-0.226,0-0.457-0.048-0.676-0.15
				c-0.805-0.374-1.154-1.331-0.778-2.134c1.368-2.941,2.791-5.851,4.267-8.729c0.402-0.792,1.371-1.108,2.162-0.697
				c0.79,0.406,1.101,1.373,0.697,2.162c-1.458,2.843-2.862,5.716-4.215,8.619C221.074,346.242,220.493,346.586,219.888,346.586
				L219.888,346.586z M676.446,340.452c-0.59,0-1.156-0.326-1.438-0.889c-1.426-2.854-2.902-5.678-4.427-8.468
				c-0.429-0.778-0.143-1.756,0.637-2.181c0.778-0.43,1.755-0.141,2.18,0.637c1.546,2.827,3.043,5.686,4.484,8.578
				c0.398,0.794,0.073,1.759-0.722,2.154C676.931,340.399,676.687,340.452,676.446,340.452L676.446,340.452z M228.698,329.408
				c-0.267,0-0.536-0.066-0.786-0.206c-0.773-0.436-1.048-1.416-0.613-2.189c1.59-2.824,3.229-5.616,4.921-8.372
				c0.464-0.759,1.452-0.993,2.209-0.53c0.756,0.464,0.995,1.453,0.53,2.209c-1.67,2.722-3.29,5.479-4.858,8.269
				C229.805,329.113,229.259,329.408,228.698,329.408L228.698,329.408z M667.212,323.579c-0.547,0-1.081-0.279-1.38-0.782
				c-1.639-2.74-3.323-5.443-5.06-8.114c-0.484-0.744-0.276-1.739,0.47-2.222c0.743-0.482,1.738-0.272,2.221,0.47
				c1.76,2.702,3.468,5.442,5.127,8.217c0.456,0.761,0.208,1.747-0.555,2.203C667.775,323.506,667.492,323.579,667.212,323.579
				L667.212,323.579z M238.788,312.962c-0.306,0-0.617-0.088-0.89-0.27c-0.739-0.493-0.938-1.491-0.445-2.228
				c1.796-2.693,3.645-5.351,5.538-7.97c0.523-0.72,1.526-0.88,2.245-0.361c0.718,0.522,0.88,1.525,0.36,2.245
				c-1.872,2.587-3.695,5.21-5.469,7.87C239.817,312.711,239.307,312.962,238.788,312.962L238.788,312.962z M656.718,307.446
				c-0.505,0-1-0.237-1.313-0.679c-1.842-2.608-3.73-5.178-5.667-7.711c-0.536-0.706-0.403-1.714,0.303-2.253
				c0.708-0.532,1.714-0.404,2.251,0.301c1.961,2.564,3.873,5.168,5.737,7.808c0.512,0.725,0.34,1.728-0.385,2.239
				C657.362,307.35,657.037,307.446,656.718,307.446L656.718,307.446z M250.092,297.336c-0.345,0-0.695-0.111-0.988-0.342
				c-0.698-0.546-0.821-1.557-0.274-2.255c1.994-2.548,4.036-5.058,6.124-7.527c0.576-0.675,1.586-0.759,2.265-0.188
				c0.676,0.574,0.761,1.588,0.188,2.265c-2.063,2.437-4.079,4.913-6.048,7.429C251.042,297.125,250.569,297.336,250.092,297.336
				L250.092,297.336z M645.027,292.149c-0.464,0-0.924-0.199-1.241-0.584c-2.034-2.461-4.112-4.883-6.236-7.263
				c-0.589-0.662-0.531-1.678,0.129-2.268c0.663-0.587,1.679-0.53,2.269,0.129c2.151,2.411,4.256,4.864,6.315,7.356
				c0.563,0.685,0.466,1.697-0.217,2.263C645.747,292.028,645.385,292.149,645.027,292.149L645.027,292.149z M262.544,282.618
				c-0.388,0-0.775-0.139-1.084-0.42c-0.654-0.598-0.699-1.614-0.102-2.271c2.181-2.386,4.403-4.732,6.672-7.036
				c0.623-0.633,1.639-0.64,2.274-0.018c0.631,0.623,0.639,1.641,0.018,2.274c-2.241,2.273-4.439,4.591-6.591,6.949
				C263.413,282.442,262.979,282.618,262.544,282.618L262.544,282.618z M632.201,277.771c-0.42,0-0.841-0.164-1.158-0.493
				c-2.213-2.3-4.469-4.56-6.767-6.775c-0.639-0.615-0.659-1.634-0.04-2.272c0.615-0.639,1.629-0.659,2.271-0.041
				c2.325,2.244,4.612,4.532,6.854,6.86c0.615,0.638,0.596,1.655-0.046,2.271C633.005,277.622,632.604,277.771,632.201,277.771
				L632.201,277.771z M276.067,268.887c-0.427,0-0.853-0.169-1.171-0.505c-0.607-0.647-0.577-1.664,0.069-2.272
				c2.354-2.214,4.748-4.385,7.184-6.51c0.666-0.583,1.679-0.516,2.267,0.156c0.584,0.668,0.513,1.683-0.156,2.267
				c-2.405,2.096-4.771,4.241-7.093,6.427C276.858,268.743,276.462,268.887,276.067,268.887L276.067,268.887z M618.326,264.397
				c-0.38,0-0.764-0.135-1.07-0.408c-2.38-2.128-4.802-4.21-7.265-6.246c-0.682-0.565-0.779-1.578-0.213-2.263
				c0.563-0.679,1.578-0.778,2.263-0.213c2.495,2.061,4.945,4.172,7.355,6.325c0.664,0.592,0.718,1.606,0.129,2.269
				C619.206,264.216,618.768,264.397,618.326,264.397L618.326,264.397z M290.583,256.224c-0.469,0-0.933-0.204-1.252-0.598
				c-0.557-0.691-0.448-1.701,0.241-2.259c2.513-2.028,5.064-4.012,7.651-5.944c0.713-0.534,1.718-0.386,2.249,0.324
				c0.532,0.711,0.386,1.718-0.324,2.249c-2.557,1.911-5.077,3.869-7.557,5.873C291.294,256.108,290.938,256.224,290.583,256.224
				L290.583,256.224z M603.471,252.105c-0.341,0-0.685-0.108-0.974-0.332c-2.535-1.939-5.109-3.833-7.718-5.679
				c-0.725-0.513-0.898-1.516-0.385-2.24c0.512-0.723,1.515-0.897,2.238-0.384c2.644,1.869,5.25,3.788,7.818,5.752
				c0.703,0.538,0.838,1.547,0.299,2.252C604.433,251.888,603.956,252.105,603.471,252.105L603.471,252.105z M306.008,244.699
				c-0.51,0-1.012-0.243-1.324-0.695c-0.504-0.73-0.32-1.731,0.41-2.235c2.655-1.831,5.348-3.613,8.077-5.347
				c0.745-0.474,1.739-0.254,2.216,0.494c0.478,0.749,0.256,1.742-0.494,2.218c-2.694,1.712-5.352,3.472-7.975,5.281
				C306.641,244.607,306.323,244.699,306.008,244.699L306.008,244.699z M587.723,240.972c-0.301,0-0.604-0.084-0.877-0.261
				c-2.674-1.743-5.384-3.436-8.132-5.079c-0.76-0.456-1.007-1.443-0.553-2.205c0.454-0.761,1.445-1.003,2.205-0.553
				c2.78,1.664,5.525,3.379,8.234,5.145c0.745,0.485,0.954,1.479,0.469,2.223C588.764,240.714,588.247,240.972,587.723,240.972
				L587.723,240.972z M322.252,234.384c-0.554,0-1.091-0.286-1.39-0.797c-0.446-0.767-0.187-1.751,0.579-2.199
				c2.785-1.622,5.604-3.194,8.454-4.714c0.781-0.423,1.757-0.121,2.173,0.66c0.419,0.783,0.122,1.755-0.661,2.173
				c-2.815,1.501-5.597,3.055-8.347,4.658C322.804,234.313,322.527,234.384,322.252,234.384L322.252,234.384z M571.163,231.062
				c-0.259,0-0.524-0.063-0.77-0.197c-2.8-1.534-5.635-3.017-8.498-4.447c-0.794-0.395-1.116-1.36-0.72-2.154
				c0.396-0.794,1.362-1.113,2.154-0.72c2.901,1.448,5.771,2.95,8.609,4.503c0.778,0.425,1.062,1.402,0.636,2.181
				C572.283,230.761,571.731,231.062,571.163,231.062L571.163,231.062z M339.224,225.335c-0.596,0-1.169-0.332-1.447-0.905
				c-0.387-0.799-0.055-1.761,0.745-2.147c2.897-1.406,5.825-2.758,8.781-4.057c0.813-0.356,1.761,0.014,2.118,0.825
				c0.356,0.813-0.014,1.761-0.825,2.119c-2.922,1.281-5.812,2.617-8.672,4.004C339.698,225.284,339.459,225.335,339.224,225.335
				L339.224,225.335z M553.89,222.441c-0.221,0-0.445-0.046-0.66-0.144c-2.91-1.315-5.852-2.577-8.819-3.784
				c-0.822-0.334-1.218-1.272-0.884-2.094c0.336-0.823,1.268-1.218,2.096-0.883c3.007,1.222,5.985,2.502,8.934,3.834
				c0.807,0.366,1.164,1.317,0.801,2.127C555.087,222.089,554.505,222.441,553.89,222.441L553.89,222.441z M356.822,217.611
				c-0.64,0-1.245-0.386-1.495-1.018c-0.325-0.826,0.08-1.757,0.907-2.084c3.001-1.182,6.031-2.31,9.089-3.381
				c0.842-0.3,1.755,0.149,2.048,0.984c0.293,0.838-0.148,1.754-0.984,2.048c-3.021,1.059-6.013,2.171-8.977,3.34
				C357.217,217.575,357.018,217.611,356.822,217.611L356.822,217.611z M535.997,215.162c-0.182,0-0.368-0.031-0.547-0.096
				c-3.004-1.088-6.032-2.122-9.09-3.1c-0.846-0.27-1.311-1.174-1.04-2.019c0.27-0.844,1.167-1.311,2.022-1.04
				c3.091,0.99,6.161,2.036,9.203,3.138c0.837,0.302,1.265,1.223,0.965,2.059C537.272,214.755,536.656,215.162,535.997,215.162
				L535.997,215.162z M375.008,211.238c-0.687,0-1.322-0.444-1.536-1.135c-0.261-0.847,0.214-1.746,1.064-2.008
				c3.081-0.947,6.189-1.84,9.321-2.675c0.858-0.226,1.738,0.279,1.966,1.137c0.229,0.859-0.281,1.739-1.138,1.966
				c-3.095,0.825-6.161,1.705-9.206,2.643C375.324,211.216,375.164,211.238,375.008,211.238L375.008,211.238z M517.618,209.286
				c-0.143,0-0.288-0.02-0.433-0.059c-3.07-0.854-6.16-1.651-9.272-2.388c-0.864-0.204-1.399-1.07-1.194-1.933
				c0.205-0.864,1.074-1.406,1.934-1.192c3.153,0.747,6.284,1.553,9.392,2.416c0.856,0.239,1.356,1.123,1.119,1.978
				C518.966,208.819,518.32,209.286,517.618,209.286L517.618,209.286z M393.626,206.276c-0.735,0-1.396-0.507-1.566-1.252
				c-0.195-0.866,0.348-1.726,1.213-1.922c3.146-0.71,6.314-1.361,9.5-1.955c0.868-0.17,1.71,0.414,1.874,1.287
				c0.161,0.873-0.415,1.71-1.287,1.873c-3.146,0.584-6.273,1.229-9.378,1.93C393.862,206.264,393.744,206.276,393.626,206.276
				L393.626,206.276z M498.868,204.84c-0.103,0-0.208-0.009-0.313-0.03c-3.123-0.615-6.264-1.172-9.43-1.669
				c-0.876-0.14-1.476-0.962-1.336-1.839c0.137-0.876,0.941-1.462,1.838-1.337c3.202,0.507,6.385,1.07,9.548,1.691
				c0.871,0.171,1.438,1.017,1.267,1.887C500.293,204.311,499.622,204.84,498.868,204.84L498.868,204.84z M412.571,202.756
				c-0.784,0-1.472-0.574-1.588-1.373c-0.129-0.878,0.479-1.694,1.356-1.823c3.188-0.468,6.395-0.877,9.62-1.224
				c0.929-0.089,1.676,0.545,1.769,1.425c0.096,0.883-0.543,1.676-1.424,1.769c-3.183,0.344-6.35,0.747-9.497,1.208
				C412.727,202.752,412.648,202.756,412.571,202.756L412.571,202.756z M479.833,201.841c-0.063,0-0.128-0.003-0.19-0.011
				c-3.159-0.375-6.335-0.69-9.529-0.947c-0.884-0.073-1.542-0.848-1.472-1.73c0.071-0.885,0.822-1.533,1.73-1.474
				c3.233,0.261,6.45,0.582,9.648,0.96c0.881,0.105,1.509,0.904,1.407,1.784C481.33,201.24,480.636,201.841,479.833,201.841
				L479.833,201.841z M431.727,200.686c-0.836,0-1.542-0.647-1.602-1.495c-0.061-0.885,0.608-1.652,1.492-1.714
				c3.212-0.224,6.441-0.389,9.684-0.494c0.759-0.116,1.627,0.664,1.657,1.553c0.03,0.887-0.665,1.629-1.553,1.657
				c-3.202,0.105-6.391,0.267-9.564,0.489C431.802,200.685,431.765,200.686,431.727,200.686L431.727,200.686z M460.626,200.295
				c-0.023,0-0.046,0-0.07-0.002c-3.175-0.134-6.368-0.212-9.573-0.229c-0.888-0.004-1.604-0.728-1.598-1.614
				c0.004-0.885,0.723-1.599,1.606-1.599c0.003,0,0.005,0,0.008,0c3.245,0.018,6.478,0.094,9.695,0.232
				c0.885,0.038,1.574,0.788,1.535,1.674C462.193,199.621,461.482,200.295,460.626,200.295L460.626,200.295z"/>
		</g>
		<path fill="#EDEDED" d="M449.645,822.908c-204.659,0-371.161-166.503-371.161-371.162S244.986,80.585,449.645,80.585
			s371.161,166.502,371.161,371.161S654.304,822.908,449.645,822.908L449.645,822.908z M449.645,92.147
			c-201.15,0-359.599,158.448-359.599,359.599c0,201.151,158.449,359.601,359.599,359.601c201.15,0,359.598-158.449,359.598-359.601
			C809.243,250.596,650.795,92.147,449.645,92.147L449.645,92.147z"/>
	</g>
	<circle fill="none" cx="449.645" cy="450.14" r="278.702"/>
	<text transform="matrix(-0.2615 -0.9652 0.9652 -0.2615 184.6446 538.2971)"><tspan x="0" y="0" fill="#EDEDED" font-family="'Rajdhani-Medium'" font-size="70">F</tspan><tspan x="30.733" y="-0.118" fill="#EDEDED" font-family="'Rajdhani-Medium'" font-size="70" rotate="6.525">E</tspan><tspan x="62.735" y="3.286" fill="#EDEDED" font-family="'Rajdhani-Medium'" font-size="70" rotate="13.717">D</tspan><tspan x="99.176" y="12.266" fill="#EDEDED" font-family="'Rajdhani-Medium'" font-size="70" rotate="20.884">E</tspan><tspan x="129.365" y="23.565" fill="#EDEDED" font-family="'Rajdhani-Medium'" font-size="70" rotate="27.881">R</tspan><tspan x="161.351" y="40.373" fill="#EDEDED" font-family="'Rajdhani-Medium'" font-size="70" rotate="35.274">A</tspan><tspan x="191.057" y="61.574" fill="#EDEDED" font-family="'Rajdhani-Medium'" font-size="70" rotate="41.928">T</tspan><tspan x="212.499" y="80.603" fill="#EDEDED" font-family="'Rajdhani-Medium'" font-size="70" rotate="48.193">E</tspan><tspan x="234.155" y="104.431" fill="#EDEDED" font-family="'Rajdhani-Medium'" font-size="70" rotate="55.38">D</tspan><tspan x="255.238" y="135.788" fill="#EDEDED" font-family="'Rajdhani-Medium'" font-size="70" rotate="61.018"> </tspan><tspan x="263.529" y="150.711" fill="#EDEDED" font-family="'Rajdhani-Medium'" font-size="70" rotate="64.552"> </tspan><tspan x="270.88" y="166.107" fill="#EDEDED" font-family="'Rajdhani-Medium'" font-size="70" rotate="68.073"> </tspan><tspan x="277.274" y="181.935" fill="#EDEDED" font-family="'Rajdhani-Medium'" font-size="70" rotate="71.577"> </tspan><tspan x="283.301" y="197.426" fill="#EDEDED" font-family="'Rajdhani-Medium'" font-size="70" rotate="77.819">N</tspan><tspan x="291.656" y="235.867" fill="#EDEDED" font-family="'Rajdhani-Medium'" font-size="70" rotate="84.54">E</tspan><tspan x="294.703" y="268.084" fill="#EDEDED" font-family="'Rajdhani-Medium'" font-size="70" rotate="90.833">T</tspan><tspan x="295.372" y="296.421" fill="#EDEDED" font-family="'Rajdhani-Medium'" font-size="70" rotate="99.35">W</tspan><tspan x="286.065" y="349.555" fill="#EDEDED" font-family="'Rajdhani-Medium'" font-size="70" rotate="108.702">O</tspan><tspan x="274.171" y="384.864" fill="#EDEDED" font-family="'Rajdhani-Medium'" font-size="70" rotate="116.213">R</tspan><tspan x="258.286" y="417.342" fill="#EDEDED" font-family="'Rajdhani-Medium'" font-size="70" rotate="123.597">K</tspan><tspan x="238.367" y="447.572" fill="#EDEDED" font-family="'Rajdhani-Medium'" font-size="70" rotate="131.112">S</tspan><tspan x="213.227" y="475.683" fill="#EDEDED" font-family="'Rajdhani-Medium'" font-size="70" rotate="136.692"> </tspan><tspan x="200.82" y="487.409" fill="#EDEDED" font-family="'Rajdhani-Medium'" font-size="70" rotate="140.209"> </tspan><tspan x="187.723" y="498.346" fill="#EDEDED" font-family="'Rajdhani-Medium'" font-size="70" rotate="143.733"> </tspan><tspan x="173.973" y="508.462" fill="#EDEDED" font-family="'Rajdhani-Medium'" font-size="70" rotate="147.265"> </tspan><tspan x="160.189" y="517.958" fill="#EDEDED" font-family="'Rajdhani-Medium'" font-size="70" rotate="152.796">A</tspan><tspan x="127.946" y="534.677" fill="#EDEDED" font-family="'Rajdhani-Medium'" font-size="70" rotate="160.385">S</tspan><tspan x="92.78" y="547.305" fill="#EDEDED" font-family="'Rajdhani-Medium'" font-size="70" rotate="167.961">S</tspan><tspan x="56.254" y="555.199" fill="#EDEDED" font-family="'Rajdhani-Medium'" font-size="70" rotate="175.566">O</tspan><tspan x="19.13" y="558.151" fill="#EDEDED" font-family="'Rajdhani-Medium'" font-size="70" rotate="-176.833">C</tspan><tspan x="-17.551" y="555.673" fill="#EDEDED" font-family="'Rajdhani-Medium'" font-size="70" rotate="-171.392">I</tspan><tspan x="-33.285" y="553.841" fill="#EDEDED" font-family="'Rajdhani-Medium'" font-size="70" rotate="-165.967">A</tspan><tspan x="-68.631" y="544.847" fill="#EDEDED" font-family="'Rajdhani-Medium'" font-size="70" rotate="-159.283">T</tspan><tspan x="-95.63" y="534.397" fill="#EDEDED" font-family="'Rajdhani-Medium'" font-size="70" rotate="-154.686">I</tspan><tspan x="-110.165" y="528.153" fill="#EDEDED" font-family="'Rajdhani-Medium'" font-size="70" rotate="-149.231">O</tspan><tspan x="-142.227" y="509.26" fill="#EDEDED" font-family="'Rajdhani-Medium'" font-size="70" rotate="-141.439">N</tspan></text>
	<circle fill="none" cx="449.643" cy="429.939" r="343.323"/>
	<text transform="matrix(0.9319 0.3627 -0.3627 0.9319 315.4924 746.2156)"><tspan x="0" y="0" fill="#EDEDED" font-family="'Rajdhani-Medium'" font-size="63">f</tspan><tspan x="22.167" y="0.133" fill="#EDEDED" font-family="'Rajdhani-Medium'" font-size="63" rotate="-4.593">e</tspan><tspan x="55.692" y="-2.66" fill="#EDEDED" font-family="'Rajdhani-Medium'" font-size="63" rotate="-10.276">n</tspan><tspan x="89.998" y="-9.045" fill="#EDEDED" font-family="'Rajdhani-Medium'" font-size="63" rotate="-15.957">e</tspan><tspan x="122.306" y="-18.393" fill="#EDEDED" font-family="'Rajdhani-Medium'" font-size="63" rotate="-21.625">a</tspan><tspan x="154.216" y="-31.285" fill="#EDEDED" font-family="'Rajdhani-Medium'" font-size="63" rotate="-26.978">s</tspan><tspan x="179.857" y="-44.658" fill="#EDEDED" font-family="'Rajdhani-Medium'" font-size="63" rotate="-30.562">.</tspan><tspan x="192.107" y="-51.577" fill="#EDEDED" font-family="'Rajdhani-Medium'" font-size="63" rotate="-34.54">o</tspan><tspan x="219.672" y="-70.939" fill="#EDEDED" font-family="'Rajdhani-Medium'" font-size="63" rotate="-39.267">r</tspan><tspan x="237.257" y="-85.118" fill="#EDEDED" font-family="'Rajdhani-Medium'" font-size="63" rotate="-44.049">g</tspan><tspan x="261.523" y="-109.128" fill="#EDEDED" font-family="'Rajdhani-Medium'" font-size="63" rotate="-48.41"> </tspan><tspan x="272.995" y="-122.103" fill="#EDEDED" font-family="'Rajdhani-Medium'" font-size="63" rotate="-51.287"> </tspan></text>
</g>
<g>
	<g>
		<ellipse fill="#0A0E15" cx="450.563" cy="450.648" rx="232.484" ry="227.64"/>
		<g id="Earth">
			<path fill="#428484" d="M339.319,595.712c-0.038-3.808,0.19-8.192-1.537-11.714c-2.147-4.379-6.866-6.824-10.89-9.185
				c-5.937-3.486-11.893-6.784-16.996-11.48c-10.191-9.377-12.372-25.298-9.264-38.177c1.866-7.737,5.604-15.322,5.223-23.431
				c-0.377-8.006-7.475-14.458-13.286-19.289c-6.003-4.991-16.276-3.082-23.492-5.3c-4.809-1.477-10.561-5.744-13.964-9.471
				c-5.28-5.783-3.765-13.843-8.199-19.922c-3.987-5.466-8.095-11.627-12.68-16.561c-1.651-1.776-3.682-3.068-5.584-4.474
				c0.453,0.862,0.877,1.839,1.263,2.694c2.845,6.298,5.555,12.727,8.289,19.042c2.009,4.638-3.931,8.329-6.866,4.014
				c-2.436-3.582-5.513-6.607-7.334-10.577c-1.951-4.254-2.813-8.978-4.019-13.47c-1.359-5.059-3.104-7.441-7.964-9.066
				c-1.33-0.445-2.541-0.971-3.66-1.629c-1.651,11.458-2.522,23.168-2.522,35.083c0,93.201,52.284,174.18,129.114,215.239
				c1.048-6.896,2.485-13.758,3.353-20.527C340.486,630.495,339.493,612.853,339.319,595.712z"/>
			<path fill="#428484" d="M673.487,458.41c-9.362,2.235-16.633-10.471-19.342-17.38c-2.745-7.001-5.743-13.886-8.81-20.748
				c-1.654-3.702-2.706-7.593-7.582-8.039c-2.459-0.225-3.412,1.244-6.093,0.286c-3.048-1.089-5.358-4.444-4.889-7.709
				c0.662-4.609,3.901-3.725,6.804-5.557c1.31-0.827,3.07-4.57,2.841-6.54c-0.317-2.746-1.719-2.145-4.538-2.334
				c-4.728-0.317-8.338-1.192-12.078-4.144c-1.027-0.81-1.438-2.668-1.023-3.868c2.634-7.624,13.732-13.294,21.487-12.274
				c1.709,0.225,4.206,1.687,5.88,1.471c1.516-0.937,3.033-1.875,4.549-2.813l-1.665-1.646c-0.992-1.747-3.137-2.836-4.148-4.7
				c-1.986-3.657-1.02-6.71-0.099-10.047c-1.806,0.114-3.603,0.361-5.553,0.584c-2.753,0.315-6.385-0.356-8.987,0.225
				c-7.402,1.652-6.325,11.126-7.708,16.514c-1.758,6.851-6.25,8.122-10.436,5.387c-0.107,3.025,0.384,8.237,0.155,9.246
				c-0.643,2.82-2.315,5.006-5.452,5.081c-7.32,0.175-9.431-12.393-10.368-17.606c-0.477-2.655-0.655-7.005-2.29-9.244
				c-2.096-2.87-7.313-3.208-10.477-4.111c-2.072-0.592-4.083-1.259-6.169-1.743c1.813,1.149,3.657,2.264,5.469,3.374
				c2.915,1.786,6.037,3.408,8.573,5.736c2.039,1.873,3.931,4.201,3.691,7.129c-0.301,3.678-2.59,3.093-4.802,5
				c-4.141,3.57-2.499,13.177-9.729,13.72c-2.499,0.187-5.084-1.396-5.939-3.747c-1.121-3.086,0.993-4.737,1.873-7.385
				c0.825-2.484,1.739-1.176-1.157-3.258c-1.263-0.908-2.78-1.466-4.159-2.166c-4.723-2.398-9.052-5.05-13.546-7.777
				c-2.151-1.305-10.066-7.964-11.696-7.268c-1.373,0.586-0.68,8.229-1.426,10.666c-1.278,4.172-3.51,6.579-6.654,9.334
				c-2.223,1.948-3.861,4.569-5.681,6.946c0.899-0.341,1.828-0.622,2.804-0.805c4.887-0.916,9.647-1.492,14.612-1.497
				c5.316-0.005,9.329-1.488,14.329-2.49c6.733-1.348,8.336,4.481,8.854,9.935c0.033,0.034,0.068,0.055,0.101,0.091
				c2.662,2.958,5.304,4.099,8.99,5.333c2.628,0.88,8.054,4.264,10.724,4.155c5.626-0.231,8.727-7.293,15.113-6.436
				c4.83,0.648,9.327,5.967,12.314,9.34c3.805,4.297,5.707,9.671,8.214,14.726c6.165,12.429,17.866,21.831,24.587,34.134
				c2.036,3.727,3.349,7.914,7.095,10.325c3.339,2.148,7.564,1.518,11.5,1.511c4.628-0.008,10.27-2.699,14.695-1.076
				c1.856,0.68,3.589,2.768,2.777,4.891c-3.388,8.872-7.629,18.626-13.437,26.151c-3.539,4.585-7.31,8.857-11.494,12.862
				c-5.282,5.057-6.138,10.502-7.044,17.523c-0.634,4.91-0.696,10.222-3.344,14.563c-2.114,3.466-5.246,4.729-8.655,6.638
				c-5.753,3.221-0.419,5.298,0.882,9.448c1.03,3.286-0.077,6.531-1.984,9.241c-2.333,3.315-5.995,5.379-8.46,8.574
				c-2.668,3.459-4.573,6.747-7.955,9.65c-6.649,5.708-16.139,12.908-25.046,14.06c-6.938,0.897-12.697-4.191-16.394-9.525
				c-2.843-4.101-4.317-8.833-6.667-13.207c-1.949-3.628-4.789-7.049-5.613-11.181c-1.871-9.392,3.665-19.802,3.066-29.377
				c-0.709-11.335-10.332-17.869-12.06-28.52c-0.65-4.005,1.032-6.194,2.431-9.719c2.456-6.19-1.628-5.982-6.138-8.579
				c-3.029-1.745-5.464-4.111-7.072-7.222c-0.89-1.721-1.142-3.784-2.412-5.28c-2.266-2.668-5.677-2.293-9.137-1.926
				c-5.681,0.601-10.833,2.449-16.632,2.041c-5.278-0.371-10.482-0.964-15.776-1.26c-8.104-0.454-16.438-4.553-20.395-11.876
				c-4.091-7.57-5.207-16.1-5.2-24.531c0.009-9.816,4.352-15.518,9.944-23.095c2.221-3.01,4.196-6.196,7.164-8.543
				c3.693-2.921,8.249-3.202,12.194-5.509c3.577-2.092,6.685-5.164,9.928-7.954c-5.294,0.541-11.965-1.732-14.538-5.312
				c-3.983-5.541-1.042-17.946,1.682-23.639c1.744-3.644,3.87-4.904,7.029-7.023c5.725-3.839,1.759-4.542,2.446-9.529
				c1.114-8.079,14.113-8.039,19.8-10.581c5.897-2.635,9.702-7.731,14.527-11.813c2.476-2.095,4.902-4.862,8.117-5.554
				c5.641-1.214,9.858,3.973,15.639,2.238c1.655-0.497,3.169-1.688,4.801-2.315c2.454-0.943,5.24-0.986,7.639-1.962
				c3.757-1.529,4.566-5.65,8.455-7.243c1.152-0.472,2.193,0.172,3.043-0.838c0.652-0.776,0.341-2.92,1.02-4.013
				c0.718-1.156,3.692-2.939,6.346-4.002c-0.338,0.066-0.644,0.113-0.856,0.105c-1.62-0.063-3.019-0.383-4.509-1.077
				c-7.349-3.43-7.519-11.54-3.46-17.571c1.598-2.374,3.634-4.496,5.465-6.694c1.096-1.316,2.072-2.841,3.243-4.07
				c0.177-0.186,0.597-1.132,0.898-1.586c-0.24-0.36-0.405-0.755-0.512-1.166c-1.055-0.92-2.123-1.825-3.193-2.727
				c-0.312,0.367-0.641,0.724-0.936,1.118c-1.99,2.658-4.233,4.831-5.555,8.132c-1.784,4.457-4.262,6.59-7.365,10.005
				c-2.776,3.053-2.694,4.417-1.586,8.46c0.533,1.943,1.771,3.012,1.912,5.185c0.277,4.264-2.75,7.187-5.587,9.909
				c-4.646,4.459-12.07,10.948-18.746,6.449c-3.052-2.057-2.221-5.614-4.346-7.672c-2.494-2.413-7.576,1.018-11.084-0.229
				c-6.361-2.261-5.977-9.65-4.57-15.012c2.008-7.648,6.648-14.094,12.184-19.607c4.034-4.017,8.233-7.048,13.041-10.031
				c2.044-1.267,12.609-6.202,13.414-8.89c0.221-0.737,0.584-1.313,1.032-1.746c-34.46-23.911-75.37-39.175-119.602-42.631
				c0.322,1.25,0.416,2.573,0.258,3.951c-0.292,2.566-2.627,5.812-2.087,8.35c0.867,4.067,4.41,4.486,7.304,5.756
				c5.258,2.309,10.97,9.008,4.583,12.89c2.367,1.183,4.332,3.18,4.717,5.845c0.57,3.947-2.568,6.833-5.733,8.585
				c-1.509,0.835-3.226,1.449-4.848,2.043c-4.276,1.566-4.785,2.772-6.27,7.163c-1.336,3.947-2.603,8.098-6.453,10.36
				c-2.184,1.283-5.26,0.584-7.626,0.714c0.132,1.691,0.092,2.901-1.005,5.367c-2.624,5.9-4.588,10.937-5.605,17.319
				c-1.146,7.189-4.226,13.352-12.158,14.135c-7.393,0.73-14.408-3.504-19.64-8.312c-6.54-6.011-13.38-13.538-18.016-21.123
				c-2.599-4.253-5.596-9.342-6.222-14.423c-0.52-4.226,1.105-5.414,2.265-8.942c2.448-7.439-1.092-5.737-4.628-8.335
				c-2.126-1.562-2.816-4.028-2.969-6.57c-0.406-6.752,2.37-12.954-4.783-17.378c-3.383-2.093-7.544-2.159-10.866-4.374
				c-0.05-0.033-0.095-0.07-0.145-0.104c-13.61,4.768-26.667,10.705-39.053,17.697c0.224,1.115,0.348,2.26,0.401,3.396
				c0.17,3.722-0.356,6.786,3.13,9.068c1.941,1.271,5.103,1.847,7.334,2.369c7.632,1.785,17.562,2.939,21.918,10.541
				c1.446,2.524,1.622,4.652,3.588,6.994c2,2.382,3.955,3.207,6.527,4.774c2.385,1.454,5.038,3.069,6.579,5.478
				c1.385,2.166,1.935,4.737,0.603,7.125c-0.537,0.962-1.575,1.921-2.493,2.515c-0.8,0.518-4.386,1.031-4.431,1.084
				c-1.97,2.307,3.369,9.4-3.6,11.874c-6.846,2.432-15.072-6.135-19.884-9.858c-3.176-2.457-4.344-4.466-5.568-8.295
				c-2.286-7.155-6.092-11.547-13.286-13.918c-8.177-2.694-19.551-1.114-25.717-8.497c-1.589-1.902-2.476-4.064-2.895-6.357
				c-6.589,5.012-12.914,10.351-18.954,15.994c1.456-0.667,2.92-1.312,4.402-1.881c5.242-2.011,11.271-2.174,16.043,1.201
				c5.445,3.852,3.863,9.314,7.051,14.014c3.4,5.013,4.788,8.723,0.706,14.136c-2.012,2.668-4.789,5.172-7.453,7.174
				c-2.145,1.612-5.508,2.793-7.044,5.022c-5.619,8.15,7.459,10.58,12.508,14.223c2.951,2.128,5.343,4.938,7.841,7.555
				c1.243,1.302,5.946,7.599,7.649,7.505c2.375-0.131,1.531-2.179,2.601-4.298c0.821-1.626,1.898-2.564,3.265-3.761
				c3.083-2.699,5.546-2.889,3.421-8.527c-0.302-0.801-1.434-1.417-1.848-2.196c-1.144-2.149-2.325-3.609-2.622-6.105
				c-0.478-4.026,1.973-9.669,4.173-12.969c2.714-4.072,6.987-5.236,11.494-3.883c2.357,0.708,4.304,2.396,6.513,3.409
				c2.791,1.278,5.816,1.684,8.245,3.661c3.397,2.765,3.295,12.814,7.414,12.89c1.737,0.033,4.203-3.241,6.151-3.819
				c1.608-0.478,3.277-0.595,4.924-0.223c8.057,1.819,13.714,13.502,16.441,20.413c2.787,7.062,13.203,22.517,2.642,28.08
				c-4.653,2.45-10.666,0.417-15.154-1.332c-5.687-2.217-10.909-1.455-15.632,2.666c-0.788,0.688-1.873,1.748-2.819,2.924
				c6.481-0.809,14.357-1.992,15.522,5.319c1.478,9.273-11.519,12.542-17.707,14.362c-5.888,1.732-7.737,7.309-11.051,11.961
				c-2.595,3.643-4.925,6.191-8.704,8.74c-4.674,3.152-9.192,6.961-14.25,9.48c-2.218,1.104-7.479,1.621-10.656,2.895
				c2.787,2.582,6.547,4.338,8.715,7.709c2.573,3.998,4.333,8.235,2.729,12.891c-0.572,1.659-1.997,2.933-3.834,2.919
				c-4.414-0.033-7.532-1.814-10.26-5.256c-1.965-2.479-3.697-8.345-6.322-11.047c-5.549,2.378-11.017,4.451-16.734,6.548
				c-5.808,2.13-6.131,8.222-6.701,13.453c-0.425,3.894-1.157,6.024,3.005,7.345c4.032,1.281,3.041,0.561,5.525-2.378
				c3.049-3.608,7.337-8.289,12.556-5.964c4.669,2.08,4.634,7.088,3.841,11.428c-0.893,4.881,0.437,7.7,5.42,8.802
				c2.243,0.496,4.13,0.92,5.719,2.768c3.419,3.973,0.468,8.652,1.901,13.003c2.508,7.617,13.714,5.367,19.315,8.169
				c3.589,1.796,5.829,4.532,9.946,5.062c4.299,0.554,8.013-1.525,12.209-2.111c12.202-1.706,21.355,11.667,28.854,19.3
				c3.933,4.003,7.827,7.477,13.366,9.034c3.796,1.068,7.697,0.73,11.573,1.131c5.304,0.549,11.851,1.173,15.949,4.87
				c4.515,4.072,8.885,7.498,10.825,13.402c2.309,7.026,2.306,13.075,0.275,20.146c-1.829,6.371-4.333,11.622-8.777,16.523
				c-4.251,4.69-6.503,11.018-11.225,15.284c-2.272,2.053-4.822,3.052-7.624,4.054c-4.599,1.644-6.84,3.459-9.431,7.617
				c-3.981,6.389-7.857,13.124-11.195,19.869c-3.52,7.116-6.011,14.464-10.7,20.961c-4.381,6.07-9.557,11.565-13.474,17.973
				c-2.422,3.963-3.19,8.215-4.913,12.449c-0.413,1.015-0.86,2.008-1.316,2.995c25.958,9.417,53.967,14.559,83.177,14.559
				c92.544,0,173.05-51.543,214.377-127.489c-1.136-2.406-1.445-5.286-1.454-7.896c-0.018-4.853-1.143-10.968,1.367-15.403
				c1.218-2.152,3.006-2.812,4.816-4.286c1.864-1.517,2.116-2.907,3.199-5.071c2.198-4.388,5.495-5.486,8.388-4.419
				c8.553-24.873,13.206-51.56,13.206-79.336c0-2.243-0.035-4.477-0.096-6.705c-1.846,1.301-3.766,2.482-5.664,3.571
				C683.482,452.187,678.363,457.246,673.487,458.41z M331.265,299.459c-1.695,0.052-3.614-0.751-5.283-1.126
				c-1.862-0.417-3.706-1.099-5.226-2.271c-3.467-2.672-2.744-6.385-2.642-10.223c0.069-2.635,2.213-3.903,4.257-3.824
				c0.906-0.146,1.88-0.006,2.786,0.391c1.984,0.869,2.382,2.679,3.452,4.305c0.822,1.25,2.697,1.688,4.049,2.379
				c1.922,0.984,3.557,2.66,3.605,4.947C336.318,296.745,334.01,299.374,331.265,299.459z M352.749,471.771
				c-5.117,2.623-9.954-0.664-14.968-1.905c-4.438-1.098-10.404-2.179-12.386-6.923c-2.079-4.975,2.105-8.302,6.804-7.466
				c0.555,0.098,1.122,0.221,1.694,0.353c4.268,0.352,8.157,2.045,12.134,3.636c3.708,1.484,7.643,3.577,8.55,7.813
				C354.932,468.943,354.373,470.939,352.749,471.771z M522.855,304.234c1.62-2.036,3.855-1.569,5.253-0.102
				c0.842-0.189,1.782-0.072,2.747,0.541c3.638,2.315,4.975,5.348,6.563,9.206c1.631,3.963,3.708,8.252,2.994,12.673
				c-1.058,6.557-9.541,11.663-15.693,10.704c-1.223-0.191-2.574-1.563-2.777-2.777c-0.531-3.176,0.151-5.012,1.745-7.707
				c2.071-3.502,2.662-5.254-0.541-8.545c-1.889-1.94-3.616-3.084-3.697-6.107C519.37,309.094,521.061,306.49,522.855,304.234z
				 M504.978,324.909c0.5-3.629,3.321-6.869,6.732-8.291c0.317-0.527,0.754-0.996,1.347-1.343c1.769-1.035,4.476-0.492,5.44,1.426
				c0.825,1.643,1.581,3.229,1.343,5.112c-0.227,1.797-1.259,3.175-2.449,4.488c-2.526,2.787-5.792,4.719-9.637,3.499
				C505.482,329.08,504.675,327.107,504.978,324.909z M471.69,277.67c-2.069-2.664-3.597-6.596-1.777-9.818
				c1.847-3.267,5.498-3.104,8.739-2.954c1.134,0.053,2.003,0.487,2.635,1.114c2.602-0.222,4.33-1.264,6.834-1.931
				c3.287-0.876,7.951-0.844,10.994,0.786c2.958,1.586,4.5,4.906,3.383,8.167c-1.311,3.831-5.92,6.53-9.243,8.426
				C486.554,285.28,476.544,283.919,471.69,277.67z"/>
			<path fill="#5AAA56" d="M372.789,666.697c3.917-6.408,9.093-11.903,13.474-17.973c4.689-6.497,7.179-13.845,10.7-20.961
				c3.338-6.745,7.214-13.48,11.195-19.869c2.591-4.158,4.832-5.973,9.431-7.617c2.802-1.001,5.352-2,7.624-4.054
				c4.722-4.266,6.974-10.594,11.225-15.284c4.443-4.902,6.947-10.152,8.777-16.523c2.031-7.072,2.033-13.12-0.275-20.146
				c-1.94-5.904-6.31-9.331-10.825-13.402c-4.098-3.697-10.645-4.321-15.949-4.87c-3.876-0.401-7.777-0.063-11.573-1.131
				c-5.539-1.557-9.433-5.031-13.366-9.034c-7.498-7.633-16.651-21.006-28.854-19.3c-4.196,0.586-7.911,2.665-12.209,2.111
				c-4.116-0.53-6.356-3.266-9.946-5.062c-5.601-2.802-16.807-0.552-19.315-8.169c-1.433-4.351,1.518-9.031-1.901-13.003
				c-1.589-1.847-3.477-2.272-5.719-2.768c-4.983-1.102-6.313-3.922-5.42-8.802c0.793-4.34,0.828-9.348-3.841-11.428
				c-5.219-2.325-9.507,2.356-12.556,5.964c-2.484,2.939-1.493,3.66-5.525,2.378c-4.161-1.322-3.43-3.451-3.005-7.345
				c0.57-5.23,0.893-11.323,6.701-13.453c5.717-2.097,11.185-4.17,16.734-6.548c2.626,2.702,4.358,8.569,6.322,11.047
				c2.728,3.442,5.846,5.223,10.26,5.256c1.837,0.014,3.263-1.26,3.834-2.919c1.604-4.656-0.156-8.893-2.729-12.891
				c-2.168-3.371-5.928-5.127-8.715-7.709c3.177-1.274,8.438-1.791,10.656-2.895c5.058-2.519,9.577-6.328,14.25-9.48
				c3.778-2.548,6.109-5.097,8.704-8.74c3.314-4.652,5.163-10.229,11.051-11.961c6.188-1.82,19.186-5.088,17.707-14.362
				c-1.165-7.311-9.041-6.127-15.522-5.319c0.946-1.176,2.03-2.236,2.819-2.924c4.723-4.12,9.944-4.883,15.632-2.666
				c4.487,1.749,10.501,3.783,15.154,1.332c10.562-5.563,0.145-21.018-2.642-28.08c-2.727-6.91-8.384-18.593-16.441-20.413
				c-1.647-0.372-3.316-0.254-4.924,0.223c-1.948,0.578-4.414,3.852-6.151,3.819c-4.118-0.076-4.017-10.125-7.414-12.89
				c-2.429-1.977-5.455-2.383-8.245-3.661c-2.209-1.013-4.156-2.701-6.513-3.409c-4.507-1.353-8.78-0.189-11.494,3.883
				c-2.2,3.3-4.651,8.943-4.173,12.969c0.297,2.496,1.477,3.956,2.622,6.105c0.414,0.779,1.546,1.395,1.848,2.196
				c2.125,5.638-0.338,5.828-3.421,8.527c-1.367,1.197-2.444,2.134-3.265,3.761c-1.07,2.119-0.225,4.167-2.601,4.298
				c-1.703,0.094-6.406-6.203-7.649-7.505c-2.498-2.617-4.891-5.426-7.841-7.555c-5.049-3.643-18.127-6.072-12.508-14.223
				c1.536-2.228,4.899-3.41,7.044-5.022c2.664-2.002,5.441-4.506,7.453-7.174c4.082-5.413,2.693-9.123-0.706-14.136
				c-3.187-4.7-1.605-10.162-7.051-14.014c-4.772-3.375-10.8-3.213-16.043-1.201c-1.482,0.569-2.946,1.214-4.402,1.881
				c-39.575,36.975-66.822,86.967-74.918,143.159c1.119,0.658,2.33,1.184,3.66,1.629c4.859,1.624,6.604,4.007,7.964,9.066
				c1.207,4.492,2.068,9.216,4.019,13.47c1.82,3.97,4.898,6.995,7.334,10.577c2.935,4.315,8.875,0.624,6.866-4.014
				c-2.734-6.314-5.444-12.744-8.289-19.042c-0.386-0.855-0.81-1.832-1.263-2.694c1.902,1.406,3.934,2.698,5.584,4.474
				c4.586,4.934,8.693,11.094,12.68,16.561c4.435,6.079,2.92,14.139,8.199,19.922c3.403,3.727,9.155,7.994,13.964,9.471
				c7.216,2.217,17.489,0.308,23.492,5.3c5.812,4.831,12.91,11.283,13.286,19.289c0.381,8.109-3.357,15.694-5.223,23.431
				c-3.108,12.88-0.927,28.8,9.264,38.177c5.103,4.696,11.058,7.995,16.996,11.48c4.023,2.362,8.743,4.807,10.89,9.185
				c1.727,3.522,1.498,7.906,1.537,11.714c0.174,17.141,1.167,34.784-1.016,51.8c-0.868,6.769-2.305,13.631-3.353,20.527
				c10.132,5.415,20.687,10.14,31.609,14.102c0.456-0.987,0.903-1.98,1.316-2.995C369.599,674.912,370.367,670.66,372.789,666.697z"
				/>
			<path fill="#5AAA56" d="M330.842,273.418c7.194,2.37,10.999,6.763,13.286,13.918c1.223,3.829,2.391,5.838,5.568,8.295
				c4.812,3.723,13.039,12.289,19.884,9.858c6.969-2.475,1.63-9.568,3.6-11.874c0.045-0.053,3.631-0.566,4.431-1.084
				c0.918-0.594,1.956-1.553,2.493-2.515c1.332-2.388,0.781-4.959-0.603-7.125c-1.541-2.409-4.194-4.024-6.579-5.478
				c-2.572-1.568-4.527-2.392-6.527-4.774c-1.966-2.342-2.142-4.47-3.588-6.994c-4.356-7.602-14.286-8.756-21.918-10.541
				c-2.231-0.522-5.393-1.098-7.334-2.369c-3.486-2.283-2.959-5.346-3.13-9.068c-0.052-1.136-0.177-2.281-0.401-3.396
				c-9.696,5.473-18.979,11.59-27.792,18.294c0.419,2.293,1.306,4.455,2.895,6.357C311.291,272.303,322.666,270.724,330.842,273.418
				z"/>
			<path fill="#5AAA56" d="M332.657,289.09c-1.352-0.692-3.226-1.129-4.049-2.379c-1.07-1.625-1.467-3.436-3.452-4.305
				c-0.906-0.397-1.88-0.536-2.786-0.391c-2.044-0.08-4.188,1.188-4.257,3.824c-0.102,3.838-0.825,7.55,2.642,10.223
				c1.52,1.171,3.364,1.853,5.226,2.271c1.669,0.375,3.589,1.178,5.283,1.126c2.744-0.084,5.053-2.714,4.997-5.422
				C336.214,291.75,334.579,290.073,332.657,289.09z"/>
			<path fill="#5AAA56" d="M380.088,227.051c7.153,4.424,4.377,10.626,4.783,17.378c0.153,2.541,0.843,5.008,2.969,6.57
				c3.535,2.598,7.076,0.896,4.628,8.335c-1.161,3.527-2.786,4.716-2.265,8.942c0.626,5.081,3.622,10.17,6.222,14.423
				c4.636,7.585,11.476,15.112,18.016,21.123c5.233,4.808,12.247,9.042,19.64,8.312c7.932-0.784,11.012-6.946,12.158-14.135
				c1.017-6.382,2.981-11.418,5.605-17.319c1.097-2.466,1.137-3.676,1.005-5.367c2.366-0.13,5.442,0.569,7.626-0.714
				c3.85-2.261,5.117-6.413,6.453-10.36c1.485-4.391,1.994-5.597,6.27-7.163c1.622-0.594,3.339-1.208,4.848-2.043
				c3.165-1.752,6.303-4.638,5.733-8.585c-0.385-2.665-2.35-4.663-4.717-5.845c6.387-3.881,0.675-10.581-4.583-12.89
				c-2.893-1.27-6.437-1.689-7.304-5.756c-0.541-2.538,1.795-5.784,2.087-8.35c0.157-1.379,0.063-2.701-0.258-3.951
				c-6.357-0.497-12.781-0.756-19.265-0.756c-28.271,0-55.411,4.827-80.661,13.673c0.049,0.034,0.095,0.071,0.145,0.104
				C372.544,224.892,376.704,224.958,380.088,227.051z"/>
			<path fill="#5AAA56" d="M493.254,281.459c3.323-1.896,7.932-4.594,9.243-8.426c1.117-3.261-0.425-6.581-3.383-8.167
				c-3.043-1.63-7.707-1.662-10.994-0.786c-2.503,0.667-4.231,1.709-6.834,1.931c-0.632-0.626-1.501-1.061-2.635-1.114
				c-3.241-0.15-6.892-0.313-8.739,2.954c-1.82,3.222-0.292,7.153,1.777,9.818C476.544,283.919,486.554,285.28,493.254,281.459z"/>
			<path fill="#5AAA56" d="M346.026,459.467c-3.977-1.592-7.866-3.284-12.134-3.636c-0.572-0.133-1.139-0.255-1.694-0.353
				c-4.699-0.836-8.883,2.49-6.804,7.466c1.982,4.744,7.948,5.825,12.386,6.923c5.015,1.24,9.851,4.527,14.968,1.905
				c1.624-0.832,2.183-2.828,1.827-4.49C353.67,463.045,349.734,460.951,346.026,459.467z"/>
			<path fill="#5AAA56" d="M609.989,268.942c0.106,0.411,0.272,0.806,0.512,1.166c-0.301,0.454-0.722,1.4-0.898,1.586
				c-1.172,1.23-2.147,2.754-3.243,4.07c-1.831,2.199-3.867,4.32-5.465,6.694c-4.059,6.032-3.889,14.141,3.46,17.571
				c1.49,0.695,2.889,1.015,4.509,1.077c0.212,0.008,0.518-0.039,0.856-0.105c-2.653,1.063-5.628,2.845-6.346,4.002
				c-0.679,1.093-0.367,3.237-1.02,4.013c-0.85,1.01-1.891,0.366-3.043,0.838c-3.889,1.594-4.698,5.715-8.455,7.243
				c-2.398,0.976-5.185,1.02-7.639,1.962c-1.631,0.627-3.146,1.818-4.801,2.315c-5.781,1.735-9.998-3.452-15.639-2.238
				c-3.215,0.692-5.641,3.459-8.117,5.554c-4.824,4.082-8.63,9.178-14.527,11.813c-5.687,2.542-18.686,2.501-19.8,10.581
				c-0.687,4.987,3.279,5.69-2.446,9.529c-3.16,2.119-5.286,3.379-7.029,7.023c-2.725,5.692-5.665,18.097-1.682,23.639
				c2.573,3.579,9.244,5.853,14.538,5.312c-3.243,2.79-6.351,5.863-9.928,7.954c-3.945,2.307-8.501,2.588-12.194,5.509
				c-2.968,2.348-4.943,5.534-7.164,8.543c-5.592,7.578-9.935,13.279-9.944,23.095c-0.008,8.431,1.108,16.961,5.2,24.531
				c3.957,7.323,12.292,11.422,20.395,11.876c5.295,0.296,10.499,0.889,15.776,1.26c5.799,0.408,10.95-1.44,16.632-2.041
				c3.46-0.367,6.871-0.743,9.137,1.926c1.27,1.496,1.521,3.56,2.412,5.28c1.608,3.111,4.043,5.477,7.072,7.222
				c4.51,2.597,8.594,2.389,6.138,8.579c-1.399,3.525-3.081,5.714-2.431,9.719c1.728,10.651,11.351,17.184,12.06,28.52
				c0.599,9.575-4.938,19.985-3.066,29.377c0.824,4.133,3.663,7.553,5.613,11.181c2.35,4.374,3.824,9.106,6.667,13.207
				c3.698,5.333,9.456,10.422,16.394,9.525c8.907-1.151,18.397-8.352,25.046-14.06c3.382-2.903,5.287-6.191,7.955-9.65
				c2.464-3.195,6.126-5.259,8.46-8.574c1.907-2.71,3.015-5.955,1.984-9.241c-1.301-4.15-6.635-6.227-0.882-9.448
				c3.409-1.909,6.542-3.173,8.655-6.638c2.648-4.342,2.711-9.654,3.344-14.563c0.906-7.021,1.762-12.466,7.044-17.523
				c4.184-4.005,7.955-8.277,11.494-12.862c5.808-7.525,10.049-17.279,13.437-26.151c0.811-2.123-0.921-4.211-2.777-4.891
				c-4.425-1.623-10.067,1.068-14.695,1.076c-3.936,0.007-8.161,0.637-11.5-1.511c-3.747-2.412-5.06-6.599-7.095-10.325
				c-6.72-12.303-18.422-21.705-24.587-34.134c-2.507-5.055-4.409-10.429-8.214-14.726c-2.987-3.373-7.485-8.692-12.314-9.34
				c-6.386-0.857-9.487,6.206-15.113,6.436c-2.67,0.109-8.096-3.275-10.724-4.155c-3.686-1.234-6.328-2.374-8.99-5.333
				c-0.033-0.036-0.068-0.057-0.101-0.091c-0.519-5.454-2.121-11.283-8.854-9.935c-5,1.001-9.013,2.485-14.329,2.49
				c-4.965,0.004-9.725,0.581-14.612,1.497c-0.976,0.183-1.905,0.463-2.804,0.805c1.82-2.378,3.458-4.998,5.681-6.946
				c3.144-2.755,5.376-5.161,6.654-9.334c0.745-2.437,0.053-10.081,1.426-10.666c1.63-0.696,9.546,5.963,11.696,7.268
				c4.494,2.727,8.823,5.379,13.546,7.777c1.379,0.7,2.896,1.257,4.159,2.166c2.896,2.082,1.982,0.774,1.157,3.258
				c-0.88,2.648-2.993,4.299-1.873,7.385c0.854,2.351,3.44,3.934,5.939,3.747c7.23-0.542,5.588-10.15,9.729-13.72
				c2.212-1.907,4.502-1.322,4.802-5c0.24-2.928-1.652-5.256-3.691-7.129c-2.536-2.328-5.658-3.95-8.573-5.736
				c-1.811-1.11-3.655-2.225-5.469-3.374c2.086,0.484,4.097,1.151,6.169,1.743c3.164,0.903,8.38,1.241,10.477,4.111
				c1.636,2.239,1.813,6.59,2.29,9.244c0.937,5.214,3.048,17.781,10.368,17.606c3.137-0.075,4.808-2.261,5.452-5.081
				c0.229-1.009-0.262-6.221-0.155-9.246c4.186,2.735,8.678,1.463,10.436-5.387c1.383-5.389,0.306-14.862,7.708-16.514
				c2.602-0.581,6.234,0.09,8.987-0.225c1.95-0.223,3.747-0.469,5.553-0.584c-0.922,3.337-1.888,6.391,0.099,10.047
				c1.012,1.863,3.156,2.953,4.148,4.7l1.665,1.646c-1.516,0.938-3.033,1.876-4.549,2.813c-1.674,0.215-4.17-1.246-5.88-1.471
				c-7.755-1.02-18.853,4.651-21.487,12.274c-0.415,1.2-0.004,3.058,1.023,3.868c3.74,2.952,7.35,3.827,12.078,4.144
				c2.819,0.189,4.221-0.412,4.538,2.334c0.229,1.97-1.531,5.713-2.841,6.54c-2.903,1.832-6.142,0.948-6.804,5.557
				c-0.468,3.265,1.841,6.62,4.889,7.709c2.681,0.958,3.633-0.511,6.093-0.286c4.876,0.446,5.928,4.337,7.582,8.039
				c3.067,6.862,6.065,13.747,8.81,20.748c2.709,6.909,9.98,19.615,19.342,17.38c4.876-1.164,9.995-6.223,14.391-8.744
				c1.898-1.089,3.818-2.27,5.664-3.571C691.634,375.44,659.677,312.287,609.989,268.942z"/>
			<path fill="#5AAA56" d="M587.572,254.034c-0.805,2.688-11.37,7.623-13.414,8.89c-4.809,2.983-9.007,6.014-13.041,10.031
				c-5.536,5.513-10.176,11.959-12.184,19.607c-1.407,5.361-1.79,12.75,4.57,15.012c3.508,1.247,8.59-2.185,11.084,0.229
				c2.125,2.057,1.294,5.615,4.346,7.672c6.676,4.499,14.1-1.99,18.746-6.449c2.837-2.722,5.864-5.645,5.587-9.909
				c-0.142-2.174-1.38-3.242-1.912-5.185c-1.107-4.043-1.189-5.407,1.586-8.46c3.103-3.415,5.581-5.548,7.365-10.005
				c1.322-3.301,3.565-5.474,5.555-8.132c0.295-0.395,0.624-0.751,0.936-1.118c-5.837-4.918-11.906-9.566-18.193-13.928
				C588.156,252.721,587.792,253.296,587.572,254.034z"/>
			<path fill="#5AAA56" d="M523.146,318.226c3.203,3.291,2.611,5.043,0.541,8.545c-1.593,2.695-2.276,4.532-1.745,7.707
				c0.203,1.214,1.554,2.586,2.777,2.777c6.151,0.959,14.635-4.147,15.693-10.704c0.714-4.421-1.363-8.71-2.994-12.673
				c-1.588-3.858-2.925-6.89-6.563-9.206c-0.964-0.613-1.905-0.73-2.747-0.541c-1.398-1.467-3.633-1.933-5.253,0.102
				c-1.795,2.256-3.486,4.86-3.406,7.885C519.531,315.142,521.258,316.286,523.146,318.226z"/>
			<path fill="#5AAA56" d="M507.755,329.801c3.845,1.22,7.111-0.712,9.637-3.499c1.189-1.313,2.222-2.691,2.449-4.488
				c0.238-1.884-0.518-3.469-1.343-5.112c-0.964-1.919-3.671-2.461-5.44-1.426c-0.593,0.347-1.03,0.816-1.347,1.343
				c-3.411,1.422-6.232,4.662-6.732,8.291C504.675,327.107,505.482,329.08,507.755,329.801z"/>
			<path fill="#5AAA56" d="M672.043,536.555c-1.083,2.165-1.335,3.554-3.199,5.071c-1.811,1.474-3.598,2.133-4.816,4.286
				c-2.509,4.435-1.384,10.55-1.367,15.403c0.009,2.61,0.317,5.49,1.454,7.896c6.422-11.802,11.889-24.196,16.317-37.075
				C677.538,531.069,674.241,532.167,672.043,536.555z"/>
		</g>
	</g>
</g>
<g id="Lines">
	<defs>
		<filter id="Adobe_OpacityMaskFilter" filterUnits="userSpaceOnUse" x="373.067" y="477.014" width="58.504" height="58.504">
			<feFlood  style="flood-color:white;flood-opacity:1" result="back"/>
			<feBlend  in="SourceGraphic" in2="back" mode="normal"/>
		</filter>
	</defs>
	<mask maskUnits="userSpaceOnUse" x="373.067" y="477.014" width="58.504" height="58.504" id="SVGID_1_">
		<g filter="url(#Adobe_OpacityMaskFilter)">
			<defs>
				<filter id="Adobe_OpacityMaskFilter_1_" filterUnits="userSpaceOnUse" x="373.067" y="477.014" width="58.504" height="58.504">
					<feFlood  style="flood-color:white;flood-opacity:1" result="back"/>
					<feBlend  in="SourceGraphic" in2="back" mode="normal"/>
				</filter>
			</defs>
			<mask maskUnits="userSpaceOnUse" x="373.067" y="477.014" width="58.504" height="58.504" id="SVGID_1_">
				<g filter="url(#Adobe_OpacityMaskFilter_1_)">
				</g>
			</mask>
			
				<radialGradient id="SVGID_2_" cx="353.9239" cy="245.939" r="29.2492" gradientTransform="matrix(0.5413 0.8408 -0.8408 0.5413 417.5256 75.5597)" gradientUnits="userSpaceOnUse">
				<stop  offset="0" style="stop-color:#FFFFFF"/>
				<stop  offset="0.1639" style="stop-color:#BFBFBF"/>
				<stop  offset="0.3288" style="stop-color:#858585"/>
				<stop  offset="0.4889" style="stop-color:#565656"/>
				<stop  offset="0.6399" style="stop-color:#303030"/>
				<stop  offset="0.7796" style="stop-color:#161616"/>
				<stop  offset="0.9038" style="stop-color:#060606"/>
				<stop  offset="1" style="stop-color:#000000"/>
			</radialGradient>
			<circle mask="url(#SVGID_1_)" fill="url(#SVGID_2_)" cx="402.319" cy="506.266" r="29.249"/>
		</g>
	</mask>
	
		<radialGradient id="SVGID_3_" cx="353.9239" cy="245.939" r="29.2492" gradientTransform="matrix(0.5413 0.8408 -0.8408 0.5413 417.5256 75.5597)" gradientUnits="userSpaceOnUse">
		<stop  offset="0" style="stop-color:#FFFFFF"/>
		<stop  offset="1" style="stop-color:#FFFFFF"/>
	</radialGradient>
	<circle display="none" fill="url(#SVGID_3_)" cx="402.319" cy="506.266" r="29.249"/>
	<defs>
		<filter id="Adobe_OpacityMaskFilter_2_" filterUnits="userSpaceOnUse" x="467.691" y="595.185" width="58.504" height="58.504">
			<feFlood  style="flood-color:white;flood-opacity:1" result="back"/>
			<feBlend  in="SourceGraphic" in2="back" mode="normal"/>
		</filter>
	</defs>
	<mask maskUnits="userSpaceOnUse" x="467.691" y="595.185" width="58.504" height="58.504" id="SVGID_4_">
		<g filter="url(#Adobe_OpacityMaskFilter_2_)">
			<defs>
				<filter id="Adobe_OpacityMaskFilter_3_" filterUnits="userSpaceOnUse" x="467.691" y="595.185" width="58.504" height="58.504">
					<feFlood  style="flood-color:white;flood-opacity:1" result="back"/>
					<feBlend  in="SourceGraphic" in2="back" mode="normal"/>
				</filter>
			</defs>
			<mask maskUnits="userSpaceOnUse" x="467.691" y="595.185" width="58.504" height="58.504" id="SVGID_4_">
				<g filter="url(#Adobe_OpacityMaskFilter_3_)">
				</g>
			</mask>
			
				<radialGradient id="SVGID_5_" cx="504.5104" cy="230.3446" r="29.2492" gradientTransform="matrix(0.5413 0.8408 -0.8408 0.5413 417.5256 75.5597)" gradientUnits="userSpaceOnUse">
				<stop  offset="0" style="stop-color:#FFFFFF"/>
				<stop  offset="0.1639" style="stop-color:#BFBFBF"/>
				<stop  offset="0.3288" style="stop-color:#858585"/>
				<stop  offset="0.4889" style="stop-color:#565656"/>
				<stop  offset="0.6399" style="stop-color:#303030"/>
				<stop  offset="0.7796" style="stop-color:#161616"/>
				<stop  offset="0.9038" style="stop-color:#060606"/>
				<stop  offset="1" style="stop-color:#000000"/>
			</radialGradient>
			<circle mask="url(#SVGID_4_)" fill="url(#SVGID_5_)" cx="496.943" cy="624.438" r="29.248"/>
		</g>
	</mask>
	
		<radialGradient id="SVGID_6_" cx="504.5104" cy="230.3446" r="29.2492" gradientTransform="matrix(0.5413 0.8408 -0.8408 0.5413 417.5256 75.5597)" gradientUnits="userSpaceOnUse">
		<stop  offset="0" style="stop-color:#FFFFFF"/>
		<stop  offset="1" style="stop-color:#FFFFFF"/>
	</radialGradient>
	<circle display="none" fill="url(#SVGID_6_)" cx="496.943" cy="624.438" r="29.248"/>
	<defs>
		<filter id="Adobe_OpacityMaskFilter_4_" filterUnits="userSpaceOnUse" x="484.641" y="359.921" width="58.504" height="58.504">
			<feFlood  style="flood-color:white;flood-opacity:1" result="back"/>
			<feBlend  in="SourceGraphic" in2="back" mode="normal"/>
		</filter>
	</defs>
	<mask maskUnits="userSpaceOnUse" x="484.641" y="359.921" width="58.504" height="58.504" id="SVGID_7_">
		<g filter="url(#Adobe_OpacityMaskFilter_4_)">
			<defs>
				<filter id="Adobe_OpacityMaskFilter_5_" filterUnits="userSpaceOnUse" x="484.641" y="359.921" width="58.504" height="58.504">
					<feFlood  style="flood-color:white;flood-opacity:1" result="back"/>
					<feBlend  in="SourceGraphic" in2="back" mode="normal"/>
				</filter>
			</defs>
			<mask maskUnits="userSpaceOnUse" x="484.641" y="359.921" width="58.504" height="58.504" id="SVGID_7_">
				<g filter="url(#Adobe_OpacityMaskFilter_5_)">
				</g>
			</mask>
			
				<radialGradient id="SVGID_8_" cx="315.8651" cy="88.7373" r="29.2491" gradientTransform="matrix(0.5413 0.8408 -0.8408 0.5413 417.5256 75.5597)" gradientUnits="userSpaceOnUse">
				<stop  offset="0" style="stop-color:#FFFFFF"/>
				<stop  offset="0.1639" style="stop-color:#BFBFBF"/>
				<stop  offset="0.3288" style="stop-color:#858585"/>
				<stop  offset="0.4889" style="stop-color:#565656"/>
				<stop  offset="0.6399" style="stop-color:#303030"/>
				<stop  offset="0.7796" style="stop-color:#161616"/>
				<stop  offset="0.9038" style="stop-color:#060606"/>
				<stop  offset="1" style="stop-color:#000000"/>
			</radialGradient>
			<circle mask="url(#SVGID_7_)" fill="url(#SVGID_8_)" cx="513.893" cy="389.173" r="29.249"/>
		</g>
	</mask>
	
		<radialGradient id="SVGID_9_" cx="315.8651" cy="88.7373" r="29.2491" gradientTransform="matrix(0.5413 0.8408 -0.8408 0.5413 417.5256 75.5597)" gradientUnits="userSpaceOnUse">
		<stop  offset="0" style="stop-color:#FFFFFF"/>
		<stop  offset="1" style="stop-color:#FFFFFF"/>
	</radialGradient>
	<circle display="none" fill="url(#SVGID_9_)" cx="513.893" cy="389.173" r="29.249"/>
	<g display="none">
		<defs>
			<filter id="Adobe_OpacityMaskFilter_6_" filterUnits="userSpaceOnUse" x="356.496" y="507.456" width="30.632" height="30.633">
				<feFlood  style="flood-color:white;flood-opacity:1" result="back"/>
				<feBlend  in="SourceGraphic" in2="back" mode="normal"/>
			</filter>
		</defs>
		<mask maskUnits="userSpaceOnUse" x="356.496" y="507.456" width="30.632" height="30.633" id="SVGID_10_" display="inline">
			<g filter="url(#Adobe_OpacityMaskFilter_6_)">
				<defs>
					
						<filter id="Adobe_OpacityMaskFilter_7_" filterUnits="userSpaceOnUse" x="356.496" y="507.456" width="30.632" height="30.633">
						<feFlood  style="flood-color:white;flood-opacity:1" result="back"/>
						<feBlend  in="SourceGraphic" in2="back" mode="normal"/>
					</filter>
				</defs>
				<mask maskUnits="userSpaceOnUse" x="356.496" y="507.456" width="30.632" height="30.633" id="SVGID_10_">
					<g filter="url(#Adobe_OpacityMaskFilter_7_)">
					</g>
				</mask>
				
					<radialGradient id="SVGID_11_" cx="351.2892" cy="280.5262" r="15.3146" gradientTransform="matrix(0.5413 0.8408 -0.8408 0.5413 417.5256 75.5597)" gradientUnits="userSpaceOnUse">
					<stop  offset="0" style="stop-color:#FFFFFF"/>
					<stop  offset="0.1639" style="stop-color:#BFBFBF"/>
					<stop  offset="0.3288" style="stop-color:#858585"/>
					<stop  offset="0.4889" style="stop-color:#565656"/>
					<stop  offset="0.6399" style="stop-color:#303030"/>
					<stop  offset="0.7796" style="stop-color:#161616"/>
					<stop  offset="0.9038" style="stop-color:#060606"/>
					<stop  offset="1" style="stop-color:#000000"/>
				</radialGradient>
				<circle mask="url(#SVGID_10_)" fill="url(#SVGID_11_)" cx="371.812" cy="522.772" r="15.314"/>
			</g>
		</mask>
		
			<radialGradient id="SVGID_12_" cx="351.2892" cy="280.5262" r="15.3146" gradientTransform="matrix(0.5413 0.8408 -0.8408 0.5413 417.5256 75.5597)" gradientUnits="userSpaceOnUse">
			<stop  offset="0" style="stop-color:#FFFFFF"/>
			<stop  offset="1" style="stop-color:#FFFFFF"/>
		</radialGradient>
		<circle display="inline" fill="url(#SVGID_12_)" cx="371.812" cy="522.772" r="15.314"/>
		<defs>
			<filter id="Adobe_OpacityMaskFilter_8_" filterUnits="userSpaceOnUse" x="470.477" y="375.757" width="58.504" height="58.504">
				<feFlood  style="flood-color:white;flood-opacity:1" result="back"/>
				<feBlend  in="SourceGraphic" in2="back" mode="normal"/>
			</filter>
		</defs>
		<mask maskUnits="userSpaceOnUse" x="470.477" y="375.757" width="58.504" height="58.504" id="SVGID_13_" display="inline">
			<g filter="url(#Adobe_OpacityMaskFilter_8_)">
				<defs>
					
						<filter id="Adobe_OpacityMaskFilter_9_" filterUnits="userSpaceOnUse" x="470.477" y="375.757" width="58.504" height="58.504">
						<feFlood  style="flood-color:white;flood-opacity:1" result="back"/>
						<feBlend  in="SourceGraphic" in2="back" mode="normal"/>
					</filter>
				</defs>
				<mask maskUnits="userSpaceOnUse" x="470.477" y="375.757" width="58.504" height="58.504" id="SVGID_13_">
					<g filter="url(#Adobe_OpacityMaskFilter_9_)">
					</g>
				</mask>
				
					<radialGradient id="SVGID_14_" cx="321.5145" cy="109.2196" r="29.2493" gradientTransform="matrix(0.5413 0.8408 -0.8408 0.5413 417.5256 75.5597)" gradientUnits="userSpaceOnUse">
					<stop  offset="0" style="stop-color:#FFFFFF"/>
					<stop  offset="0.1639" style="stop-color:#BFBFBF"/>
					<stop  offset="0.3288" style="stop-color:#858585"/>
					<stop  offset="0.4889" style="stop-color:#565656"/>
					<stop  offset="0.6399" style="stop-color:#303030"/>
					<stop  offset="0.7796" style="stop-color:#161616"/>
					<stop  offset="0.9038" style="stop-color:#060606"/>
					<stop  offset="1" style="stop-color:#000000"/>
				</radialGradient>
				<circle mask="url(#SVGID_13_)" fill="url(#SVGID_14_)" cx="499.729" cy="405.01" r="29.248"/>
			</g>
		</mask>
		
			<radialGradient id="SVGID_15_" cx="321.5145" cy="109.2196" r="29.2493" gradientTransform="matrix(0.5413 0.8408 -0.8408 0.5413 417.5256 75.5597)" gradientUnits="userSpaceOnUse">
			<stop  offset="0" style="stop-color:#FFFFFF"/>
			<stop  offset="1" style="stop-color:#FFFFFF"/>
		</radialGradient>
		<circle display="inline" fill="url(#SVGID_15_)" cx="499.729" cy="405.01" r="29.248"/>
	</g>
	<defs>
		<filter id="Adobe_OpacityMaskFilter_10_" filterUnits="userSpaceOnUse" x="299.421" y="290.786" width="58.504" height="58.504">
			<feFlood  style="flood-color:white;flood-opacity:1" result="back"/>
			<feBlend  in="SourceGraphic" in2="back" mode="normal"/>
		</filter>
	</defs>
	<mask maskUnits="userSpaceOnUse" x="299.421" y="290.786" width="58.504" height="58.504" id="SVGID_16_">
		<g filter="url(#Adobe_OpacityMaskFilter_10_)">
			<defs>
				
					<filter id="Adobe_OpacityMaskFilter_11_" filterUnits="userSpaceOnUse" x="299.421" y="290.786" width="58.504" height="58.504">
					<feFlood  style="flood-color:white;flood-opacity:1" result="back"/>
					<feBlend  in="SourceGraphic" in2="back" mode="normal"/>
				</filter>
			</defs>
			<mask maskUnits="userSpaceOnUse" x="299.421" y="290.786" width="58.504" height="58.504" id="SVGID_16_">
				<g filter="url(#Adobe_OpacityMaskFilter_11_)">
				</g>
			</mask>
			
				<radialGradient id="SVGID_17_" cx="157.4694" cy="207.0537" r="29.2493" gradientTransform="matrix(0.5413 0.8408 -0.8408 0.5413 417.5256 75.5597)" gradientUnits="userSpaceOnUse">
				<stop  offset="0" style="stop-color:#FFFFFF"/>
				<stop  offset="0.1639" style="stop-color:#BFBFBF"/>
				<stop  offset="0.3288" style="stop-color:#858585"/>
				<stop  offset="0.4889" style="stop-color:#565656"/>
				<stop  offset="0.6399" style="stop-color:#303030"/>
				<stop  offset="0.7796" style="stop-color:#161616"/>
				<stop  offset="0.9038" style="stop-color:#060606"/>
				<stop  offset="1" style="stop-color:#000000"/>
			</radialGradient>
			<circle mask="url(#SVGID_16_)" fill="url(#SVGID_17_)" cx="328.673" cy="320.038" r="29.249"/>
		</g>
	</mask>
	<radialGradient id="SVGID_18_" cx="328.6729" cy="320.0381" r="29.2521" gradientUnits="userSpaceOnUse">
		<stop  offset="0" style="stop-color:#FFFFFF"/>
		<stop  offset="1" style="stop-color:#FFFFFF"/>
	</radialGradient>
	<circle display="none" fill="url(#SVGID_18_)" cx="328.673" cy="320.038" r="29.249"/>
	<defs>
		<filter id="Adobe_OpacityMaskFilter_12_" filterUnits="userSpaceOnUse" x="657.783" y="400.637" width="58.504" height="58.504">
			<feFlood  style="flood-color:white;flood-opacity:1" result="back"/>
			<feBlend  in="SourceGraphic" in2="back" mode="normal"/>
		</filter>
	</defs>
	<mask maskUnits="userSpaceOnUse" x="657.783" y="400.637" width="58.504" height="58.504" id="SVGID_19_">
		<g filter="url(#Adobe_OpacityMaskFilter_12_)">
			<defs>
				
					<filter id="Adobe_OpacityMaskFilter_13_" filterUnits="userSpaceOnUse" x="657.783" y="400.637" width="58.504" height="58.504">
					<feFlood  style="flood-color:white;flood-opacity:1" result="back"/>
					<feBlend  in="SourceGraphic" in2="back" mode="normal"/>
				</filter>
			</defs>
			<mask maskUnits="userSpaceOnUse" x="657.783" y="400.637" width="58.504" height="58.504" id="SVGID_19_">
				<g filter="url(#Adobe_OpacityMaskFilter_13_)">
				</g>
			</mask>
			
				<radialGradient id="SVGID_20_" cx="443.8273" cy="-34.8065" r="29.2491" gradientTransform="matrix(0.5413 0.8408 -0.8408 0.5413 417.5256 75.5597)" gradientUnits="userSpaceOnUse">
				<stop  offset="0" style="stop-color:#FFFFFF"/>
				<stop  offset="0.1639" style="stop-color:#BFBFBF"/>
				<stop  offset="0.3288" style="stop-color:#858585"/>
				<stop  offset="0.4889" style="stop-color:#565656"/>
				<stop  offset="0.6399" style="stop-color:#303030"/>
				<stop  offset="0.7796" style="stop-color:#161616"/>
				<stop  offset="0.9038" style="stop-color:#060606"/>
				<stop  offset="1" style="stop-color:#000000"/>
			</radialGradient>
			<circle mask="url(#SVGID_19_)" fill="url(#SVGID_20_)" cx="687.035" cy="429.889" r="29.249"/>
		</g>
	</mask>
	
		<radialGradient id="SVGID_21_" cx="443.8273" cy="-34.8065" r="29.2491" gradientTransform="matrix(0.5413 0.8408 -0.8408 0.5413 417.5256 75.5597)" gradientUnits="userSpaceOnUse">
		<stop  offset="0" style="stop-color:#FFFFFF"/>
		<stop  offset="1" style="stop-color:#FFFFFF"/>
	</radialGradient>
	<circle display="none" fill="url(#SVGID_21_)" cx="687.035" cy="429.889" r="29.249"/>
	<g>
		<path fill="#FFFFFF" d="M578.552,470.512c0,0-0.511-0.597-1.471-1.715c-0.951-1.123-2.402-2.732-4.358-4.741
			c-1.006-0.979-2.12-2.063-3.333-3.244c-0.637-0.569-1.298-1.161-1.985-1.775c-0.685-0.618-1.412-1.243-2.191-1.865
			c-3.037-2.562-6.69-5.281-10.97-7.93c-4.266-2.661-9.154-5.278-14.639-7.518c-5.472-2.259-11.548-4.086-17.972-5.373
			c-3.215-0.618-6.515-1.135-9.871-1.427c-1.677-0.19-3.367-0.256-5.066-0.376c-1.696-0.042-3.406-0.123-5.112-0.09
			c-6.843-0.005-13.72,0.719-20.401,1.964c-6.674,1.278-13.15,3.096-19.252,5.348c-6.111,2.237-11.839,4.91-17.118,7.806
			c-5.269,2.913-10.093,6.052-14.378,9.298c-4.307,3.225-8.044,6.584-11.269,9.838c-3.247,3.239-5.882,6.456-8.013,9.407
			c-2.15,2.943-3.713,5.675-4.843,7.977c-1.141,2.299-1.785,4.194-2.204,5.479c-0.208,0.644-0.316,1.153-0.411,1.487
			c-0.088,0.336-0.133,0.51-0.133,0.51s0.327-0.647,0.939-1.86c0.635-1.2,1.66-2.915,3.106-5.006
			c1.456-2.087,3.421-4.506,5.851-7.143c1.219-1.316,2.568-2.68,4.055-4.065c1.476-1.392,3.059-2.829,4.779-4.269
			c3.449-2.871,7.38-5.804,11.753-8.659c4.355-2.873,9.18-5.637,14.346-8.23c2.599-1.275,5.273-2.52,8.032-3.694
			c2.776-1.145,5.61-2.257,8.522-3.271c5.834-2.001,11.925-3.698,18.177-4.861c6.237-1.197,12.623-1.887,18.95-2.016
			c6.327-0.155,12.595,0.315,18.593,1.25c5.989,0.986,11.725,2.403,16.99,4.243c5.269,1.827,10.114,3.949,14.427,6.187
			c4.295,2.259,8.133,4.539,11.384,6.748c1.667,1.063,3.097,2.194,4.52,3.149c1.357,1.023,2.603,1.963,3.729,2.811
			c1.086,0.882,2.064,1.669,2.928,2.348c0.859,0.684,1.551,1.305,2.132,1.789C577.933,469.994,578.552,470.512,578.552,470.512z"/>
	</g>
	<g>
		<path fill="#FFFFFF" d="M371.707,351.254c0,0-0.452-0.386-1.302-1.11c-0.211-0.182-0.445-0.386-0.704-0.61
			c-0.272-0.211-0.568-0.44-0.888-0.688c-0.317-0.247-0.659-0.512-1.023-0.795c-0.378-0.27-0.781-0.556-1.206-0.859
			c-1.703-1.198-3.878-2.546-6.555-3.747c-2.668-1.212-5.904-2.156-9.488-2.601c-3.599-0.411-7.558-0.15-11.553,0.795
			c-1.993,0.497-4.002,1.13-5.988,1.926c-1.979,0.813-3.943,1.76-5.869,2.828c-1.925,1.07-3.798,2.282-5.641,3.563
			c-1.842,1.285-3.602,2.702-5.349,4.151c-3.451,2.941-6.7,6.164-9.671,9.571c-2.993,3.394-5.712,6.966-8.182,10.582
			c-2.438,3.631-4.669,7.293-6.56,10.939c-1.9,3.642-3.539,7.238-4.88,10.708c-1.329,3.472-2.404,6.808-3.197,9.926
			c-0.77,3.121-1.316,6.015-1.644,8.601c-0.322,2.585-0.436,4.858-0.459,6.736c-0.001,1.876,0.05,3.36,0.139,4.369
			c0.08,1.013,0.123,1.553,0.123,1.553s-0.167-0.523-0.481-1.505c-0.165-0.491-0.313-1.105-0.498-1.829
			c-0.205-0.722-0.36-1.562-0.534-2.506c-0.321-1.888-0.66-4.206-0.7-6.88c-0.076-2.673,0.029-5.704,0.48-8.987
			c0.424-3.285,1.129-6.83,2.203-10.519c1.08-3.687,2.501-7.522,4.275-11.398c0.43-0.973,0.914-1.938,1.389-2.915
			c0.508-0.965,0.999-1.945,1.539-2.914c1.057-1.947,2.212-3.888,3.455-5.809c2.466-3.853,5.318-7.621,8.456-11.228
			c1.584-1.795,3.258-3.539,4.985-5.237c1.749-1.686,3.573-3.309,5.475-4.85c3.801-3.082,7.931-5.831,12.319-8.037
			c2.204-1.088,4.445-2.073,6.748-2.857c2.309-0.772,4.643-1.396,6.978-1.806c2.337-0.402,4.668-0.591,6.915-0.578
			c2.251-0.001,4.411,0.287,6.426,0.659c4.034,0.809,7.427,2.256,10.068,3.851c2.682,1.563,4.643,3.267,6.153,4.703
			c0.374,0.362,0.728,0.704,1.06,1.026c0.308,0.341,0.596,0.66,0.864,0.957c0.265,0.296,0.511,0.569,0.737,0.82
			c0.207,0.259,0.396,0.494,0.564,0.704C371.353,350.802,371.707,351.254,371.707,351.254z"/>
	</g>
	<g>
		<path fill="#FFFFFF" d="M546.236,357.067c0,0-0.69-1.057-1.985-3.04c-1.298-1.983-3.308-4.713-6.051-7.888
			c-0.711-0.749-1.459-1.537-2.244-2.364c-0.812-0.775-1.688-1.529-2.582-2.343c-0.921-0.759-1.917-1.46-2.915-2.249
			c-0.525-0.33-1.059-0.665-1.603-1.007c-0.544-0.334-1.083-0.716-1.672-0.974c-0.579-0.287-1.166-0.578-1.762-0.874
			c-0.59-0.315-1.229-0.479-1.852-0.731c-1.243-0.533-2.578-0.774-3.92-1.13c-2.72-0.474-5.6-0.643-8.591-0.293
			c-5.979,0.812-12.292,3.532-18.467,7.838c-1.559,1.034-3.076,2.266-4.624,3.465c-1.511,1.304-3.056,2.574-4.549,4.022
			c-1.523,1.377-2.988,2.93-4.504,4.417c-1.473,1.575-2.976,3.13-4.425,4.825c-5.882,6.625-11.437,14.328-16.831,22.438
			c-5.357,8.165-10.5,16.841-15.306,25.857c-4.858,8.967-9.367,18.279-13.615,27.604c-2.119,4.666-4.142,9.361-6.118,14.02
			c-1.944,4.681-3.828,9.335-5.618,13.958c-3.569,9.253-6.856,18.321-9.745,27.06c-0.708,2.194-1.406,4.356-2.095,6.488
			c-0.665,2.144-1.32,4.256-1.963,6.333c-0.627,2.087-1.245,4.138-1.85,6.152c-0.579,2.028-1.148,4.019-1.705,5.968
			c-2.159,7.832-5.418,6.494-3.573-1.599c0.47-2.021,0.949-4.083,1.437-6.185c0.516-2.09,1.041-4.221,1.576-6.388
			c0.555-2.156,1.148-4.338,1.745-6.555c0.624-2.203,1.257-4.441,1.899-6.709c2.627-9.045,5.619-18.477,9.061-28.023
			c3.428-9.553,7.239-19.264,11.474-28.861c4.207-9.618,8.806-19.145,13.754-28.361c2.465-4.616,5.061-9.112,7.686-13.549
			c2.655-4.41,5.391-8.708,8.21-12.857c2.82-4.148,5.707-8.164,8.714-11.936c1.473-1.924,3.023-3.727,4.527-5.559
			c1.555-1.765,3.068-3.558,4.654-5.216c3.124-3.378,6.317-6.536,9.617-9.297c1.624-1.427,3.315-2.685,4.96-3.963
			c1.695-1.183,3.349-2.387,5.059-3.398c3.392-2.066,6.797-3.857,10.243-4.982c3.434-1.15,6.841-1.849,10.142-2.002
			c3.303-0.095,6.471,0.305,9.407,1.154c1.449,0.54,2.874,0.967,4.189,1.684c0.659,0.344,1.331,0.6,1.948,1.004
			c0.62,0.386,1.232,0.766,1.833,1.14c0.61,0.346,1.163,0.812,1.72,1.229c0.553,0.424,1.097,0.84,1.631,1.25
			c1.011,0.936,2,1.806,2.899,2.725c0.871,0.969,1.721,1.869,2.498,2.777c0.744,0.953,1.453,1.862,2.126,2.725
			c2.581,3.578,4.338,6.711,5.466,8.854C545.65,355.904,546.236,357.067,546.236,357.067z"/>
	</g>
	<path fill="#FFFFFF" d="M412.387,266.516c0,0,0.524-0.389,1.506-1.117c0.976-0.736,2.445-1.758,4.392-2.982
		c0.991-0.577,2.087-1.216,3.281-1.912c0.616-0.316,1.257-0.646,1.922-0.987c0.665-0.346,1.363-0.684,2.102-0.999
		c2.909-1.363,6.334-2.653,10.238-3.646c3.895-1.01,8.27-1.751,13.037-1.911c4.761-0.183,9.908,0.27,15.218,1.372
		c2.652,0.576,5.351,1.281,8.048,2.223c1.357,0.428,2.698,0.98,4.057,1.484c1.341,0.578,2.701,1.123,4.035,1.778
		c5.378,2.49,10.634,5.696,15.63,9.331c4.984,3.665,9.702,7.78,14.037,12.175c4.345,4.385,8.301,9.05,11.859,13.767
		c3.546,4.73,6.696,9.515,9.402,14.207c2.727,4.68,4.978,9.281,6.848,13.594c1.891,4.306,3.305,8.369,4.378,11.992
		c1.089,3.621,1.76,6.826,2.179,9.456c0.428,2.633,0.547,4.694,0.614,6.086c0.032,0.697,0.013,1.227,0.02,1.584
		c0.001,0.357,0.001,0.54,0.001,0.54s-0.125-0.743-0.359-2.136c-0.254-1.389-0.71-3.416-1.419-5.959
		c-0.718-2.543-1.769-5.591-3.14-9.02c-0.69-1.714-1.471-3.52-2.357-5.397c-0.876-1.88-1.826-3.843-2.884-5.858
		c-2.125-4.026-4.615-8.286-7.469-12.634c-2.836-4.358-6.064-8.782-9.594-13.166c-1.782-2.177-3.63-4.352-5.558-6.491
		c-1.948-2.116-3.948-4.222-6.029-6.261c-4.176-4.057-8.616-7.913-13.292-11.314c-4.657-3.428-9.534-6.421-14.48-8.853
		c-4.94-2.456-9.961-4.288-14.865-5.574c-4.907-1.233-9.704-1.958-14.216-2.104c-4.513-0.159-8.753,0.12-12.599,0.705
		c-3.836,0.612-7.317,1.411-10.322,2.355c-1.527,0.417-2.882,0.986-4.194,1.388c-1.275,0.492-2.446,0.943-3.504,1.351
		c-1.033,0.455-1.963,0.857-2.78,1.196c-0.814,0.346-1.485,0.693-2.04,0.948C412.978,266.242,412.387,266.516,412.387,266.516z"/>
	<path fill="#FFFFFF" d="M647.521,353.538c0,0-0.024-0.519-0.071-1.492c-0.01-0.243-0.02-0.514-0.032-0.813
		c-0.028-0.298-0.059-0.623-0.092-0.973c-0.032-0.349-0.068-0.723-0.105-1.123c-0.054-0.4-0.112-0.825-0.173-1.274
		c-0.254-1.789-0.692-3.957-1.523-6.331c-0.818-2.376-2.141-4.922-3.988-7.357c-1.876-2.421-4.392-4.628-7.36-6.418
		c-1.497-0.876-3.09-1.676-4.772-2.356c-1.689-0.665-3.453-1.236-5.271-1.707c-1.819-0.469-3.696-0.814-5.6-1.098
		c-1.905-0.281-3.846-0.428-5.798-0.546c-3.907-0.184-7.873-0.066-11.789,0.337c-3.921,0.381-7.792,1.04-11.544,1.878
		c-3.742,0.865-7.38,1.875-10.807,3.078c-3.43,1.195-6.675,2.517-9.663,3.938c-2.983,1.429-5.729,2.922-8.17,4.446
		c-2.429,1.539-4.582,3.067-6.411,4.527c-1.825,1.464-3.329,2.852-4.529,4.042c-1.186,1.202-2.094,2.184-2.678,2.884
		c-0.592,0.697-0.908,1.069-0.908,1.069s0.231-0.436,0.665-1.253c0.212-0.414,0.513-0.896,0.86-1.471
		c0.334-0.586,0.773-1.217,1.266-1.926c1.002-1.403,2.266-3.092,3.933-4.829c1.644-1.759,3.622-3.639,5.965-5.473
		c2.328-1.852,4.986-3.701,7.955-5.422c2.971-1.716,6.238-3.322,9.741-4.743c0.87-0.366,1.768-0.694,2.667-1.036
		c0.911-0.314,1.822-0.648,2.755-0.945c1.858-0.615,3.769-1.166,5.722-1.652c3.899-0.992,7.972-1.697,12.115-2.127
		c2.075-0.201,4.17-0.315,6.268-0.368c2.103-0.032,4.212,0.021,6.315,0.174c4.204,0.304,8.392,1.018,12.391,2.235
		c1.996,0.624,3.948,1.336,5.811,2.215c1.858,0.89,3.638,1.889,5.283,3.026c1.641,1.143,3.144,2.42,4.469,3.776
		c1.337,1.349,2.437,2.828,3.398,4.275c1.883,2.937,2.982,5.899,3.543,8.505c0.604,2.61,0.691,4.878,0.68,6.703
		c-0.007,0.456-0.013,0.888-0.019,1.294c-0.032,0.403-0.063,0.78-0.092,1.132c-0.029,0.349-0.056,0.672-0.081,0.967
		c-0.041,0.29-0.077,0.554-0.11,0.79C647.597,353.036,647.521,353.538,647.521,353.538z"/>
	<path fill="#FFFFFF" d="M368.696,351.354c0,0,0.435-0.654,1.251-1.882c0.807-1.23,2.052-3.005,3.748-5.237
		c0.88-1.094,1.853-2.306,2.913-3.626c0.563-0.642,1.147-1.31,1.754-2.004c0.605-0.697,1.25-1.406,1.947-2.118
		c2.702-2.913,5.996-6.057,9.922-9.207c3.91-3.161,8.443-6.354,13.613-9.246c5.156-2.909,10.964-5.463,17.183-7.523
		c3.115-1.005,6.328-1.921,9.623-2.62c1.641-0.393,3.31-0.665,4.982-0.99c1.678-0.248,3.365-0.537,5.063-0.712
		c6.791-0.839,13.705-0.958,20.488-0.537c6.78,0.455,13.43,1.471,19.76,2.962c6.338,1.476,12.349,3.43,17.942,5.662
		c5.585,2.249,10.755,4.777,15.404,7.476c4.668,2.676,8.787,5.555,12.384,8.391c3.618,2.819,6.625,5.691,9.1,8.361
		c2.493,2.659,4.377,5.181,5.779,7.327c1.413,2.143,2.282,3.945,2.855,5.17c0.285,0.614,0.454,1.106,0.59,1.426
		c0.129,0.323,0.195,0.49,0.195,0.49s-0.403-0.602-1.159-1.732c-0.776-1.114-2.003-2.691-3.693-4.59
		c-1.699-1.894-3.945-4.055-6.678-6.377c-1.371-1.158-2.875-2.347-4.52-3.54c-1.635-1.202-3.38-2.435-5.263-3.654
		c-3.774-2.43-8.032-4.861-12.721-7.162c-4.672-2.321-9.799-4.477-15.243-6.421c-2.735-0.949-5.541-1.858-8.423-2.688
		c-2.895-0.798-5.844-1.557-8.857-2.208c-6.034-1.275-12.287-2.217-18.634-2.609c-6.337-0.428-12.759-0.334-19.055,0.308
		c-6.299,0.618-12.463,1.848-18.302,3.506c-5.824,1.708-11.345,3.814-16.347,6.282c-5.007,2.456-9.557,5.153-13.566,7.899
		c-3.988,2.766-7.519,5.497-10.477,8.085c-1.525,1.258-2.807,2.555-4.102,3.676c-1.222,1.181-2.345,2.265-3.359,3.245
		c-0.97,1.008-1.845,1.908-2.62,2.687c-0.769,0.784-1.38,1.484-1.898,2.035C369.247,350.764,368.696,351.354,368.696,351.354z"/>
	<path fill="#FFFFFF" d="M281.599,428.486c0,0,0.474-0.464,1.366-1.333c0.221-0.219,0.466-0.464,0.738-0.733
		c0.287-0.252,0.601-0.527,0.94-0.824c0.336-0.295,0.698-0.613,1.083-0.951c0.404-0.321,0.833-0.663,1.286-1.025
		c1.818-1.428,4.162-3.025,7.105-4.42c2.93-1.409,6.55-2.465,10.634-2.885c4.105-0.378,8.709,0.095,13.439,1.419
		c2.363,0.693,4.761,1.555,7.153,2.62c2.385,1.086,4.771,2.337,7.127,3.738c2.356,1.403,4.668,2.982,6.955,4.645
		c2.286,1.668,4.494,3.497,6.69,5.366c4.348,3.789,8.5,7.923,12.351,12.274c3.876,4.336,7.457,8.883,10.757,13.477
		c3.265,4.61,6.294,9.252,8.929,13.86c2.645,4.604,4.983,9.141,6.96,13.51c1.964,4.371,3.619,8.564,4.919,12.474
		c1.275,3.913,2.264,7.536,2.963,10.767c0.692,3.23,1.105,6.063,1.364,8.401c0.233,2.335,0.358,4.18,0.38,5.433
		c0.032,1.258,0.05,1.929,0.05,1.929s0.129-0.645,0.369-1.855c0.13-0.605,0.224-1.364,0.349-2.259
		c0.148-0.891,0.222-1.931,0.307-3.099c0.138-2.338,0.242-5.21-0.043-8.538c-0.243-3.325-0.74-7.102-1.667-11.205
		c-0.896-4.105-2.149-8.543-3.846-13.176c-1.704-4.63-3.819-9.456-6.347-14.347c-0.617-1.228-1.296-2.447-1.965-3.68
		c-0.706-1.22-1.394-2.459-2.137-3.685c-1.461-2.463-3.035-4.921-4.709-7.36c-3.324-4.888-7.083-9.684-11.153-14.291
		c-2.051-2.294-4.2-4.526-6.404-6.705c-2.228-2.163-4.535-4.251-6.923-6.241c-4.771-3.978-9.88-7.553-15.219-10.462
		c-2.679-1.436-5.389-2.746-8.146-3.807c-2.762-1.047-5.534-1.911-8.281-2.508c-2.748-0.588-5.463-0.909-8.056-0.976
		c-2.599-0.085-5.057,0.193-7.339,0.581c-4.558,0.857-8.296,2.532-11.149,4.418c-2.904,1.845-4.957,3.894-6.522,5.625
		c-0.387,0.437-0.753,0.849-1.097,1.238c-0.314,0.412-0.607,0.799-0.88,1.159c-0.27,0.358-0.52,0.69-0.749,0.993
		c-0.207,0.314-0.396,0.6-0.564,0.856C281.952,427.937,281.599,428.486,281.599,428.486z"/>
	<defs>
		<filter id="Adobe_OpacityMaskFilter_14_" filterUnits="userSpaceOnUse" x="383.676" y="256.758" width="80.985" height="80.985">
			<feFlood  style="flood-color:white;flood-opacity:1" result="back"/>
			<feBlend  in="SourceGraphic" in2="back" mode="normal"/>
		</filter>
	</defs>
	<mask maskUnits="userSpaceOnUse" x="383.676" y="256.758" width="80.985" height="80.985" id="SVGID_22_">
		<g filter="url(#Adobe_OpacityMaskFilter_14_)">
			<defs>
				
					<filter id="Adobe_OpacityMaskFilter_15_" filterUnits="userSpaceOnUse" x="383.676" y="256.758" width="80.985" height="80.985">
					<feFlood  style="flood-color:white;flood-opacity:1" result="back"/>
					<feBlend  in="SourceGraphic" in2="back" mode="normal"/>
				</filter>
			</defs>
			<mask maskUnits="userSpaceOnUse" x="383.676" y="256.758" width="80.985" height="80.985" id="SVGID_22_">
				<g filter="url(#Adobe_OpacityMaskFilter_15_)">
				</g>
			</mask>
			
				<radialGradient id="SVGID_23_" cx="190.003" cy="114.421" r="40.4887" gradientTransform="matrix(0.5413 0.8408 -0.8408 0.5413 417.5256 75.5597)" gradientUnits="userSpaceOnUse">
				<stop  offset="0" style="stop-color:#FFFFFF"/>
				<stop  offset="0.1639" style="stop-color:#BFBFBF"/>
				<stop  offset="0.3288" style="stop-color:#858585"/>
				<stop  offset="0.4889" style="stop-color:#565656"/>
				<stop  offset="0.6399" style="stop-color:#303030"/>
				<stop  offset="0.7796" style="stop-color:#161616"/>
				<stop  offset="0.9038" style="stop-color:#060606"/>
				<stop  offset="1" style="stop-color:#000000"/>
			</radialGradient>
			<circle mask="url(#SVGID_22_)" fill="url(#SVGID_23_)" cx="424.169" cy="297.25" r="40.488"/>
		</g>
	</mask>
	
		<radialGradient id="SVGID_24_" cx="190.003" cy="114.421" r="40.4887" gradientTransform="matrix(0.5413 0.8408 -0.8408 0.5413 417.5256 75.5597)" gradientUnits="userSpaceOnUse">
		<stop  offset="0" style="stop-color:#FFFFFF"/>
		<stop  offset="1" style="stop-color:#FFFFFF"/>
	</radialGradient>
	<circle display="none" fill="url(#SVGID_24_)" cx="424.169" cy="297.25" r="40.488"/>
	<defs>
		<filter id="Adobe_OpacityMaskFilter_16_" filterUnits="userSpaceOnUse" x="541.113" y="248.98" width="58.504" height="58.504">
			<feFlood  style="flood-color:white;flood-opacity:1" result="back"/>
			<feBlend  in="SourceGraphic" in2="back" mode="normal"/>
		</filter>
	</defs>
	<mask maskUnits="userSpaceOnUse" x="541.113" y="248.98" width="58.504" height="58.504" id="SVGID_25_">
		<g filter="url(#Adobe_OpacityMaskFilter_16_)">
			<defs>
				<filter id="Adobe_OpacityMaskFilter_17_" filterUnits="userSpaceOnUse" x="541.113" y="248.98" width="58.504" height="58.504">
					<feFlood  style="flood-color:white;flood-opacity:1" result="back"/>
					<feBlend  in="SourceGraphic" in2="back" mode="normal"/>
				</filter>
			</defs>
			<mask maskUnits="userSpaceOnUse" x="541.113" y="248.98" width="58.504" height="58.504" id="SVGID_25_">
				<g filter="url(#Adobe_OpacityMaskFilter_17_)">
				</g>
			</mask>
			
				<radialGradient id="SVGID_26_" cx="253.1522" cy="-18.8019" r="29.2494" gradientTransform="matrix(0.5413 0.8408 -0.8408 0.5413 417.5256 75.5597)" gradientUnits="userSpaceOnUse">
				<stop  offset="0.1633" style="stop-color:#FFFFFF"/>
				<stop  offset="0.2348" style="stop-color:#F7F7F7"/>
				<stop  offset="0.3468" style="stop-color:#E0E0E0"/>
				<stop  offset="0.4854" style="stop-color:#BCBCBC"/>
				<stop  offset="0.6452" style="stop-color:#898989"/>
				<stop  offset="0.8225" style="stop-color:#484848"/>
				<stop  offset="1" style="stop-color:#000000"/>
			</radialGradient>
			<circle mask="url(#SVGID_25_)" fill="url(#SVGID_26_)" cx="570.366" cy="278.232" r="29.249"/>
		</g>
	</mask>
	
		<radialGradient id="SVGID_27_" cx="253.1522" cy="-18.8019" r="29.2494" gradientTransform="matrix(0.5413 0.8408 -0.8408 0.5413 417.5256 75.5597)" gradientUnits="userSpaceOnUse">
		<stop  offset="0.1633" style="stop-color:#FFFFFF"/>
		<stop  offset="1" style="stop-color:#FFFFFF"/>
	</radialGradient>
	<circle display="none" fill="url(#SVGID_27_)" cx="570.366" cy="278.232" r="29.249"/>
</g>
<g id="Servers">
	<circle fill="#F2DE1F" cx="411.667" cy="472.76" r="9.701"/>
	<circle fill="#F2DE1F" cx="642.333" cy="383.153" r="8.819"/>
	<circle fill="#F2DE1F" cx="563.817" cy="298.4" r="7.055"/>
	<circle fill="#F2DE1F" cx="577.436" cy="467.871" r="8.819"/>
	<circle fill="#F2DE1F" cx="415.465" cy="265.906" r="8.819"/>
	<circle fill="#F2DE1F" cx="493.304" cy="271.239" r="8.819"/>
	<circle fill="#F2DE1F" cx="646.881" cy="350.266" r="8.819"/>
	<circle fill="#F2DE1F" cx="396.5" cy="521.333" r="10.142"/>
	<circle fill="#F2DE1F" cx="283.703" cy="421.12" r="9.701"/>
	<circle fill="#F2DE1F" cx="608.146" cy="341.447" r="6.35"/>
	<circle fill="#F2DE1F" cx="299.668" cy="365.514" r="8.819"/>
	<circle fill="#F2DE1F" cx="369.628" cy="347.369" r="9.701"/>
	<circle fill="#F2DE1F" cx="523.181" cy="439.843" r="8.819"/>
	<circle fill="#F2DE1F" cx="545.194" cy="345.014" r="11.641"/>
	<circle fill="#F2DE1F" cx="355.663" cy="499.643" r="7.055"/>
</g>
<circle fill="#F2DE1F" cx="406.646" cy="589.3" r="6.35"/>
</svg>
