<?xml version="1.0" encoding="utf-8"?>
<!-- Generator: Adobe Illustrator 17.0.0, SVG Export Plug-In . SVG Version: 6.00 Build 0)  -->
<!DOCTYPE svg PUBLIC "-//W3C//DTD SVG 1.1//EN" "http://www.w3.org/Graphics/SVG/1.1/DTD/svg11.dtd">
<svg version="1.1" id="Feneas_Sticker" xmlns="http://www.w3.org/2000/svg" xmlns:xlink="http://www.w3.org/1999/xlink" x="0px"
	 y="0px" width="781.461px" height="787.461px" viewBox="0 0 781.461 787.461" enable-background="new 0 0 781.461 787.461"
	 xml:space="preserve">
<g id="Text">
	<g>
		<path fill="#0B0B0B" d="M390.235,33.737c-201.15,0-359.599,158.448-359.599,359.599c0,201.151,158.449,359.601,359.599,359.601
			c201.15,0,359.598-158.449,359.598-359.601C749.833,192.186,591.385,33.737,390.235,33.737L390.235,33.737z"/>
		<g>
			<path fill="#EDEDED" d="M393.788,648.019c-0.88,0-1.597-0.708-1.606-1.589c-0.01-0.888,0.703-1.615,1.589-1.625
				c3.206-0.035,6.397-0.125,9.574-0.28c0.872-0.074,1.638,0.641,1.683,1.528c0.042,0.887-0.643,1.64-1.528,1.682
				c-3.214,0.155-6.447,0.249-9.694,0.284C393.799,648.019,393.794,648.019,393.788,648.019L393.788,648.019z M384.15,647.944
				c-0.014,0-0.028,0-0.042,0c-3.245-0.088-6.473-0.233-9.687-0.441c-0.885-0.057-1.557-0.821-1.5-1.708
				c0.057-0.885,0.793-1.554,1.707-1.5c3.173,0.205,6.361,0.35,9.564,0.435c0.889,0.023,1.588,0.761,1.565,1.648
				C385.733,647.253,385.018,647.944,384.15,647.944L384.15,647.944z M413.036,647.092c-0.825,0-1.527-0.633-1.6-1.469
				c-0.077-0.885,0.579-1.663,1.464-1.739c3.19-0.275,6.365-0.609,9.523-1.001c0.869-0.097,1.683,0.513,1.792,1.398
				c0.111,0.88-0.515,1.681-1.396,1.791c-3.195,0.399-6.411,0.736-9.642,1.013C413.129,647.091,413.081,647.092,413.036,647.092
				L413.036,647.092z M364.924,646.706c-0.055,0-0.111-0.003-0.165-0.007c-3.228-0.332-6.436-0.721-9.628-1.172
				c-0.878-0.124-1.49-0.938-1.366-1.815c0.124-0.877,0.939-1.495,1.816-1.366c3.15,0.445,6.318,0.831,9.504,1.156
				c0.883,0.092,1.526,0.88,1.436,1.761C366.436,646.09,365.738,646.706,364.924,646.706L364.924,646.706z M432.157,644.714
				c-0.775,0-1.457-0.561-1.586-1.348c-0.141-0.877,0.453-1.702,1.327-1.845c3.16-0.516,6.299-1.09,9.419-1.724
				c0.885-0.154,1.718,0.388,1.895,1.255c0.175,0.872-0.385,1.718-1.256,1.896c-3.159,0.64-6.339,1.224-9.539,1.744
				C432.33,644.707,432.242,644.714,432.157,644.714L432.157,644.714z M345.843,644.016c-0.094,0-0.189-0.008-0.287-0.026
				c-3.19-0.575-6.361-1.209-9.51-1.901c-0.866-0.19-1.416-1.046-1.224-1.914c0.188-0.868,1.042-1.411,1.914-1.224
				c3.108,0.682,6.238,1.309,9.391,1.876c0.872,0.158,1.452,0.993,1.295,1.865C347.283,643.47,346.605,644.016,345.843,644.016
				L345.843,644.016z M451.043,640.885c-0.724,0-1.381-0.493-1.561-1.226c-0.209-0.864,0.321-1.733,1.182-1.942
				c3.11-0.753,6.195-1.569,9.26-2.438c0.853-0.248,1.743,0.253,1.984,1.106c0.244,0.854-0.252,1.744-1.105,1.985
				c-3.105,0.881-6.232,1.706-9.378,2.469C451.295,640.871,451.169,640.885,451.043,640.885L451.043,640.885z M327.023,639.876
				c-0.135,0-0.27-0.016-0.406-0.051c-3.137-0.815-6.249-1.691-9.337-2.624c-0.85-0.256-1.331-1.154-1.073-2.003
				c0.255-0.849,1.147-1.327,2.001-1.074c3.05,0.922,6.122,1.784,9.218,2.591c0.858,0.222,1.373,1.101,1.15,1.959
				C328.388,639.397,327.737,639.876,327.023,639.876L327.023,639.876z M469.579,635.621c-0.674,0-1.306-0.43-1.527-1.109
				c-0.274-0.842,0.186-1.749,1.031-2.026c3.039-0.992,6.056-2.039,9.045-3.141c0.833-0.305,1.753,0.117,2.063,0.953
				c0.306,0.831-0.12,1.756-0.953,2.063c-3.025,1.114-6.079,2.178-9.16,3.182C469.912,635.597,469.745,635.621,469.579,635.621
				L469.579,635.621z M308.545,634.298c-0.174,0-0.35-0.027-0.524-0.086c-3.071-1.058-6.115-2.172-9.132-3.341
				c-0.827-0.319-1.238-1.251-0.918-2.079c0.318-0.829,1.246-1.241,2.079-0.918c2.98,1.154,5.986,2.255,9.018,3.299
				c0.838,0.288,1.284,1.203,0.995,2.043C309.835,633.881,309.211,634.298,308.545,634.298L308.545,634.298z M487.662,628.953
				c-0.632,0-1.233-0.373-1.488-0.995c-0.335-0.819,0.053-1.759,0.873-2.098c2.949-1.216,5.865-2.487,8.756-3.813
				c0.809-0.365,1.757-0.015,2.129,0.791c0.369,0.807,0.016,1.76-0.79,2.131c-2.927,1.341-5.884,2.632-8.872,3.862
				C488.072,628.914,487.864,628.953,487.662,628.953L487.662,628.953z M290.532,627.314c-0.212,0-0.428-0.043-0.637-0.132
				c-2.978-1.288-5.925-2.633-8.843-4.029c-0.8-0.384-1.139-1.342-0.756-2.144c0.383-0.801,1.34-1.139,2.143-0.755
				c2.882,1.38,5.793,2.706,8.733,3.978c0.814,0.353,1.188,1.298,0.836,2.113C291.746,626.95,291.153,627.314,290.532,627.314
				L290.532,627.314z M505.136,620.941c-0.586,0-1.155-0.321-1.437-0.881c-0.397-0.793-0.082-1.759,0.71-2.159
				c2.846-1.439,5.661-2.93,8.444-4.473c0.775-0.431,1.755-0.151,2.185,0.628c0.431,0.775,0.15,1.753-0.627,2.183
				c-2.818,1.562-5.67,3.073-8.552,4.531C505.626,620.887,505.378,620.941,505.136,620.941L505.136,620.941z M273.117,618.971
				c-0.253,0-0.508-0.059-0.747-0.185c-2.868-1.512-5.703-3.077-8.506-4.691c-0.768-0.443-1.034-1.426-0.59-2.194
				c0.441-0.768,1.421-1.032,2.193-0.59c2.767,1.594,5.568,3.14,8.399,4.632c0.786,0.415,1.087,1.385,0.672,2.17
				C274.252,618.658,273.695,618.971,273.117,618.971L273.117,618.971z M521.961,611.618c-0.546,0-1.075-0.275-1.377-0.775
				c-0.461-0.759-0.216-1.748,0.543-2.206c2.729-1.65,5.424-3.354,8.086-5.104c0.747-0.488,1.741-0.284,2.225,0.458
				c0.488,0.741,0.283,1.739-0.458,2.225c-2.695,1.775-5.426,3.499-8.188,5.17C522.53,611.544,522.243,611.618,521.961,611.618
				L521.961,611.618z M256.402,609.33c-0.292,0-0.588-0.08-0.854-0.247c-2.742-1.724-5.449-3.499-8.12-5.322
				c-0.732-0.5-0.921-1.501-0.42-2.234c0.503-0.733,1.5-0.918,2.234-0.42c2.635,1.802,5.308,3.554,8.016,5.256
				c0.752,0.473,0.978,1.464,0.505,2.216C257.457,609.063,256.934,609.33,256.402,609.33L256.402,609.33z M538.037,601.037
				c-0.503,0-0.996-0.234-1.309-0.672c-0.515-0.722-0.348-1.726,0.373-2.242c2.598-1.853,5.158-3.755,7.68-5.703
				c0.703-0.543,1.714-0.411,2.253,0.288c0.542,0.701,0.415,1.711-0.288,2.253c-2.555,1.973-5.148,3.9-7.779,5.777
				C538.687,600.94,538.36,601.037,538.037,601.037L538.037,601.037z M240.473,598.45c-0.333,0-0.667-0.102-0.956-0.315
				c-2.6-1.927-5.162-3.899-7.688-5.92c-0.692-0.555-0.805-1.565-0.251-2.259c0.557-0.689,1.565-0.805,2.26-0.252
				c2.494,1.997,5.025,3.947,7.593,5.849c0.712,0.528,0.862,1.534,0.335,2.248C241.45,598.226,240.965,598.45,240.473,598.45
				L240.473,598.45z M553.275,589.264c-0.464,0-0.92-0.195-1.236-0.577c-0.57-0.681-0.477-1.694,0.204-2.261
				c2.45-2.047,4.861-4.137,7.23-6.275c0.656-0.592,1.67-0.54,2.271,0.119c0.593,0.66,0.542,1.676-0.119,2.271
				c-2.399,2.162-4.842,4.279-7.323,6.35C554.003,589.143,553.638,589.264,553.275,589.264L553.275,589.264z M225.423,586.397
				c-0.374,0-0.747-0.128-1.051-0.392c-2.446-2.114-4.852-4.277-7.216-6.482c-0.648-0.605-0.684-1.621-0.078-2.271
				c0.606-0.648,1.621-0.683,2.271-0.078c2.333,2.179,4.71,4.313,7.126,6.403c0.671,0.581,0.743,1.594,0.163,2.265
				C226.32,586.209,225.873,586.397,225.423,586.397L225.423,586.397z M567.582,576.369c-0.419,0-0.834-0.164-1.151-0.488
				c-0.617-0.636-0.604-1.654,0.032-2.271c2.288-2.225,4.535-4.495,6.738-6.804c0.612-0.644,1.624-0.666,2.272-0.054
				c0.64,0.612,0.664,1.629,0.054,2.271c-2.232,2.341-4.508,4.637-6.825,6.891C568.392,576.218,567.988,576.369,567.582,576.369
				L567.582,576.369z M211.333,573.246c-0.412,0-0.825-0.156-1.139-0.473c-2.278-2.292-4.513-4.629-6.703-7.006
				c-0.6-0.654-0.56-1.67,0.093-2.271c0.654-0.601,1.671-0.561,2.27,0.093c2.162,2.347,4.368,4.655,6.618,6.919
				c0.625,0.629,0.623,1.647-0.006,2.272C212.153,573.091,211.743,573.246,211.333,573.246L211.333,573.246z M580.886,562.419
				c-0.379,0-0.759-0.132-1.065-0.403c-0.666-0.586-0.729-1.602-0.14-2.267c2.114-2.393,4.184-4.826,6.207-7.297
				c0.558-0.686,1.57-0.787,2.261-0.225c0.685,0.562,0.787,1.575,0.224,2.263c-2.047,2.501-4.143,4.963-6.285,7.388
				C581.773,562.237,581.329,562.419,580.886,562.419L580.886,562.419z M198.282,559.077c-0.453,0-0.903-0.193-1.222-0.565
				c-2.096-2.457-4.147-4.954-6.151-7.489c-0.551-0.698-0.433-1.707,0.263-2.257c0.699-0.55,1.71-0.429,2.257,0.264
				c1.978,2.504,4.004,4.97,6.075,7.396c0.576,0.675,0.496,1.69-0.179,2.267C199.023,558.949,198.652,559.077,198.282,559.077
				L198.282,559.077z M593.094,547.502c-0.336,0-0.678-0.106-0.969-0.325c-0.706-0.536-0.846-1.544-0.309-2.252
				c1.927-2.546,3.807-5.129,5.637-7.749c0.51-0.73,1.511-0.906,2.24-0.395c0.725,0.507,0.903,1.508,0.393,2.237
				c-1.853,2.651-3.757,5.268-5.709,7.846C594.061,547.282,593.582,547.502,593.094,547.502L593.094,547.502z M186.347,543.964
				c-0.496,0-0.985-0.229-1.299-0.658c-1.904-2.608-3.757-5.252-5.564-7.932c-0.495-0.735-0.301-1.733,0.435-2.229
				c0.733-0.493,1.734-0.303,2.23,0.435c1.784,2.644,3.616,5.256,5.494,7.83c0.524,0.717,0.367,1.722-0.35,2.245
				C187.008,543.865,186.675,543.964,186.347,543.964L186.347,543.964z M604.147,531.693c-0.299,0-0.6-0.084-0.868-0.256
				c-0.747-0.48-0.961-1.474-0.48-2.22c1.728-2.685,3.405-5.405,5.036-8.159c0.45-0.764,1.434-1.02,2.198-0.566
				c0.765,0.45,1.018,1.437,0.565,2.201c-1.645,2.787-3.347,5.543-5.098,8.263C605.192,531.431,604.675,531.693,604.147,531.693
				L604.147,531.693z M175.593,528.003c-0.538,0-1.064-0.271-1.366-0.761c-1.699-2.741-3.348-5.516-4.944-8.326
				c-0.44-0.771-0.17-1.752,0.602-2.19c0.772-0.443,1.751-0.168,2.191,0.602c1.576,2.775,3.203,5.516,4.881,8.222
				c0.468,0.753,0.235,1.742-0.519,2.212C176.173,527.924,175.882,528.003,175.593,528.003L175.593,528.003z M613.968,515.083
				c-0.256,0-0.519-0.063-0.761-0.193c-0.782-0.422-1.071-1.398-0.65-2.178c1.519-2.81,2.986-5.652,4.4-8.523
				c0.394-0.799,1.358-1.123,2.151-0.733c0.798,0.392,1.124,1.356,0.735,2.151c-1.433,2.91-2.921,5.79-4.459,8.633
				C615.094,514.778,614.541,515.083,613.968,515.083L613.968,515.083z M166.087,511.278c-0.581,0-1.143-0.315-1.429-0.866
				c-1.484-2.86-2.916-5.752-4.292-8.671c-0.379-0.803-0.035-1.76,0.767-2.139c0.802-0.381,1.762-0.035,2.139,0.767
				c1.36,2.885,2.774,5.74,4.239,8.562c0.408,0.787,0.102,1.757-0.685,2.167C166.589,511.22,166.336,511.278,166.087,511.278
				L166.087,511.278z M622.499,497.763c-0.218,0-0.441-0.043-0.654-0.14c-0.81-0.36-1.175-1.309-0.813-2.12
				c1.299-2.919,2.547-5.865,3.736-8.841c0.334-0.825,1.267-1.22,2.092-0.893c0.825,0.33,1.224,1.265,0.895,2.089
				c-1.207,3.012-2.469,5.998-3.79,8.954C623.701,497.408,623.114,497.763,622.499,497.763L622.499,497.763z M157.884,493.891
				c-0.624,0-1.218-0.367-1.478-0.977c-1.26-2.961-2.466-5.95-3.618-8.967c-0.316-0.829,0.1-1.757,0.929-2.074
				c0.827-0.321,1.756,0.098,2.074,0.929c1.136,2.98,2.327,5.93,3.571,8.853c0.348,0.817-0.033,1.761-0.849,2.108
				C158.308,493.85,158.095,493.891,157.884,493.891L157.884,493.891z M629.681,479.829c-0.178,0-0.361-0.03-0.54-0.093
				c-0.834-0.297-1.271-1.218-0.973-2.054c1.073-3.008,2.092-6.043,3.051-9.105c0.264-0.846,1.16-1.319,2.012-1.053
				c0.849,0.264,1.319,1.167,1.055,2.012c-0.974,3.104-2.005,6.178-3.089,9.225C630.96,479.42,630.342,479.829,629.681,479.829
				L629.681,479.829z M151.029,475.91c-0.67,0-1.296-0.421-1.522-1.09c-1.032-3.059-2.01-6.141-2.929-9.245
				c-0.251-0.852,0.234-1.745,1.084-1.997c0.857-0.257,1.745,0.233,1.997,1.083c0.907,3.069,1.872,6.112,2.891,9.129
				c0.284,0.841-0.166,1.752-1.007,2.036C151.373,475.885,151.2,475.91,151.029,475.91L151.029,475.91z M635.461,461.416
				c-0.139,0-0.283-0.018-0.423-0.058c-0.857-0.233-1.361-1.114-1.129-1.97c0.838-3.071,1.616-6.17,2.337-9.287
				c0.204-0.864,1.073-1.403,1.929-1.203c0.864,0.202,1.403,1.065,1.203,1.929c-0.732,3.157-1.519,6.292-2.366,9.405
				C636.815,460.946,636.167,461.416,635.461,461.416L635.461,461.416z M145.561,457.434c-0.718,0-1.37-0.484-1.555-1.21
				c-0.797-3.127-1.534-6.275-2.212-9.442c-0.187-0.868,0.365-1.722,1.233-1.908c0.871-0.202,1.721,0.368,1.908,1.233
				c0.672,3.131,1.4,6.238,2.185,9.323c0.22,0.86-0.3,1.734-1.16,1.953C145.826,457.418,145.693,457.434,145.561,457.434
				L145.561,457.434z M639.807,442.641c-0.102,0-0.203-0.009-0.305-0.027c-0.873-0.167-1.443-1.011-1.276-1.88
				c0.597-3.128,1.138-6.273,1.62-9.439c0.132-0.876,0.954-1.486,1.83-1.346c0.876,0.133,1.478,0.953,1.348,1.83
				c-0.491,3.206-1.038,6.392-1.641,9.556C641.234,442.106,640.562,442.641,639.807,442.641L639.807,442.641z M141.524,438.591
				c-0.767,0-1.445-0.548-1.581-1.33c-0.554-3.176-1.05-6.369-1.484-9.583c-0.118-0.879,0.497-1.689,1.378-1.807
				c0.869-0.112,1.687,0.499,1.807,1.376c0.428,3.174,0.918,6.327,1.466,9.462c0.152,0.875-0.433,1.707-1.307,1.86
				C141.709,438.583,141.615,438.591,141.524,438.591L141.524,438.591z M642.705,423.592c-0.062,0-0.123-0.003-0.183-0.011
				c-0.883-0.1-1.516-0.895-1.415-1.776c0.357-3.163,0.656-6.341,0.897-9.535c0.065-0.884,0.853-1.528,1.724-1.481
				c0.884,0.066,1.548,0.838,1.48,1.722c-0.242,3.234-0.546,6.454-0.91,9.655C644.206,422.986,643.51,423.592,642.705,423.592
				L642.705,423.592z M138.937,419.497c-0.818,0-1.517-0.623-1.597-1.451c-0.311-3.206-0.563-6.428-0.754-9.669
				c-0.053-0.884,0.623-1.646,1.509-1.698c0.889-0.062,1.644,0.625,1.698,1.509c0.188,3.201,0.436,6.381,0.743,9.547
				c0.087,0.884-0.559,1.67-1.443,1.755C139.04,419.493,138.988,419.497,138.937,419.497L138.937,419.497z M644.148,404.377
				c-0.022,0-0.043,0-0.063-0.003c-0.885-0.032-1.577-0.779-1.546-1.666c0.12-3.175,0.181-6.366,0.181-9.572
				c0-0.252,0.059-0.492,0.162-0.705c-0.107-0.212-0.165-0.451-0.167-0.705c-0.016-3.206-0.096-6.396-0.229-9.57
				c-0.039-0.887,0.65-1.636,1.536-1.675c0.92-0.055,1.635,0.65,1.674,1.536c0.137,3.216,0.216,6.446,0.232,9.692
				c0.004,0.255-0.054,0.497-0.159,0.713c0.105,0.214,0.164,0.457,0.164,0.713c0,3.246-0.059,6.478-0.181,9.695
				C645.718,403.698,645.005,404.377,644.148,404.377L644.148,404.377z M137.804,400.26c-0.873,0-1.588-0.698-1.607-1.573
				c-0.039-1.845-0.06-3.697-0.06-5.551c0-1.384,0.011-2.767,0.033-4.147c0.015-0.887,0.692-1.608,1.632-1.581
				c0.888,0.013,1.596,0.745,1.581,1.631c-0.022,1.364-0.033,2.729-0.033,4.097c0,1.833,0.02,3.659,0.06,5.482
				c0.018,0.888-0.686,1.623-1.572,1.642C137.826,400.26,137.815,400.26,137.804,400.26L137.804,400.26z M138.113,380.991
				c-0.03,0-0.058,0-0.088-0.003c-0.887-0.047-1.566-0.805-1.519-1.691c0.174-3.24,0.408-6.465,0.701-9.671
				c0.082-0.883,0.874-1.519,1.746-1.454c0.885,0.082,1.534,0.863,1.455,1.746c-0.29,3.17-0.522,6.353-0.692,9.552
				C139.67,380.326,138.961,380.991,138.113,380.991L138.113,380.991z M643.493,374.076c-0.829,0-1.534-0.637-1.601-1.478
				c-0.256-3.193-0.573-6.368-0.949-9.527c-0.105-0.881,0.523-1.68,1.406-1.785c0.888-0.123,1.679,0.525,1.786,1.406
				c0.38,3.199,0.701,6.416,0.962,9.65c0.07,0.883-0.59,1.658-1.474,1.73C643.579,374.074,643.535,374.076,643.493,374.076
				L643.493,374.076z M139.869,361.802c-0.069,0-0.138-0.005-0.209-0.014c-0.88-0.115-1.5-0.92-1.385-1.8
				c0.417-3.217,0.895-6.414,1.431-9.59c0.145-0.875,0.966-1.466,1.851-1.318c0.876,0.148,1.466,0.976,1.318,1.852
				c-0.529,3.138-1.001,6.295-1.415,9.471C141.354,361.211,140.664,361.802,139.869,361.802L139.869,361.802z M641.215,354.942
				c-0.776,0-1.461-0.565-1.585-1.356c-0.499-3.162-1.059-6.306-1.675-9.428c-0.171-0.871,0.396-1.715,1.267-1.887
				c0.871-0.177,1.713,0.394,1.888,1.266c0.623,3.163,1.186,6.345,1.693,9.547c0.139,0.877-0.46,1.699-1.337,1.837
				C641.382,354.936,641.296,354.942,641.215,354.942L641.215,354.942z M143.076,342.802c-0.109,0-0.218-0.011-0.33-0.034
				c-0.869-0.181-1.426-1.031-1.245-1.9c0.661-3.174,1.381-6.326,2.16-9.455c0.213-0.863,1.083-1.385,1.947-1.172
				c0.862,0.215,1.385,1.086,1.172,1.947c-0.769,3.091-1.48,6.203-2.135,9.336C144.489,342.281,143.821,342.802,143.076,342.802
				L143.076,342.802z M637.488,336.039c-0.728,0-1.39-0.498-1.562-1.237c-0.74-3.112-1.535-6.203-2.388-9.273
				c-0.239-0.855,0.261-1.74,1.117-1.978c0.844-0.235,1.738,0.264,1.978,1.119c0.862,3.106,1.668,6.238,2.418,9.392
				c0.205,0.863-0.329,1.729-1.193,1.933C637.733,336.024,637.61,336.039,637.488,336.039L637.488,336.039z M147.726,324.102
				c-0.148,0-0.298-0.02-0.447-0.063c-0.852-0.248-1.343-1.139-1.097-1.99c0.902-3.113,1.863-6.2,2.879-9.264
				c0.279-0.841,1.189-1.29,2.032-1.018c0.842,0.279,1.298,1.189,1.019,2.032c-1.004,3.023-1.952,6.072-2.842,9.144
				C149.066,323.645,148.425,324.102,147.726,324.102L147.726,324.102z M632.326,317.472c-0.679,0-1.313-0.435-1.531-1.117
				c-0.976-3.046-2.008-6.068-3.094-9.063c-0.303-0.833,0.129-1.756,0.964-2.059c0.832-0.297,1.756,0.129,2.058,0.964
				c1.1,3.033,2.144,6.092,3.133,9.178c0.271,0.844-0.195,1.749-1.04,2.02C632.654,317.448,632.487,317.472,632.326,317.472
				L632.326,317.472z M153.806,305.787c-0.188,0-0.378-0.033-0.565-0.102c-0.83-0.312-1.25-1.237-0.939-2.069
				c1.141-3.039,2.337-6.051,3.59-9.034c0.342-0.819,1.291-1.201,2.102-0.86c0.819,0.344,1.204,1.285,0.86,2.102
				c-1.236,2.945-2.418,5.919-3.542,8.921C155.069,305.39,154.456,305.787,153.806,305.787L153.806,305.787z M625.752,299.357
				c-0.635,0-1.235-0.378-1.488-1.001c-1.202-2.953-2.457-5.879-3.765-8.775c-0.368-0.808-0.007-1.761,0.799-2.126
				c0.807-0.365,1.761-0.008,2.127,0.802c1.325,2.934,2.6,5.898,3.815,8.888c0.334,0.822-0.061,1.76-0.883,2.094
				C626.158,299.32,625.954,299.357,625.752,299.357L625.752,299.357z M161.278,287.976c-0.226,0-0.457-0.048-0.676-0.15
				c-0.805-0.374-1.154-1.331-0.778-2.134c1.368-2.941,2.791-5.851,4.267-8.729c0.402-0.792,1.371-1.108,2.162-0.697
				c0.79,0.406,1.101,1.373,0.697,2.162c-1.458,2.843-2.862,5.716-4.215,8.619C162.464,287.632,161.883,287.976,161.278,287.976
				L161.278,287.976z M617.836,281.842c-0.59,0-1.156-0.326-1.438-0.889c-1.426-2.854-2.902-5.678-4.427-8.468
				c-0.429-0.778-0.143-1.756,0.637-2.181c0.777-0.43,1.755-0.141,2.18,0.637c1.546,2.827,3.043,5.686,4.484,8.578
				c0.398,0.794,0.073,1.759-0.722,2.154C618.321,281.789,618.077,281.842,617.836,281.842L617.836,281.842z M170.088,270.798
				c-0.267,0-0.536-0.066-0.786-0.206c-0.773-0.436-1.048-1.416-0.613-2.189c1.59-2.824,3.229-5.616,4.921-8.372
				c0.464-0.759,1.452-0.993,2.209-0.53c0.756,0.464,0.995,1.453,0.53,2.209c-1.67,2.722-3.29,5.479-4.858,8.269
				C171.195,270.503,170.649,270.798,170.088,270.798L170.088,270.798z M608.602,264.969c-0.547,0-1.081-0.279-1.38-0.782
				c-1.639-2.74-3.323-5.443-5.06-8.114c-0.484-0.744-0.276-1.739,0.47-2.222c0.743-0.482,1.738-0.272,2.221,0.47
				c1.76,2.702,3.468,5.442,5.127,8.217c0.456,0.761,0.208,1.747-0.555,2.203C609.165,264.896,608.882,264.969,608.602,264.969
				L608.602,264.969z M180.178,254.352c-0.306,0-0.617-0.088-0.89-0.27c-0.739-0.493-0.938-1.491-0.445-2.228
				c1.796-2.693,3.645-5.351,5.538-7.97c0.523-0.72,1.526-0.88,2.245-0.361c0.718,0.522,0.88,1.525,0.36,2.245
				c-1.872,2.587-3.695,5.21-5.469,7.87C181.207,254.101,180.697,254.352,180.178,254.352L180.178,254.352z M598.108,248.836
				c-0.505,0-1-0.237-1.313-0.679c-1.842-2.608-3.73-5.178-5.667-7.711c-0.536-0.706-0.403-1.714,0.303-2.253
				c0.708-0.532,1.714-0.404,2.25,0.301c1.961,2.564,3.873,5.168,5.737,7.808c0.512,0.725,0.34,1.728-0.385,2.239
				C598.752,248.74,598.427,248.836,598.108,248.836L598.108,248.836z M191.482,238.726c-0.345,0-0.695-0.111-0.988-0.342
				c-0.698-0.546-0.821-1.557-0.274-2.255c1.994-2.548,4.036-5.058,6.124-7.527c0.576-0.675,1.586-0.759,2.265-0.188
				c0.676,0.574,0.761,1.588,0.188,2.265c-2.063,2.437-4.079,4.913-6.048,7.429C192.432,238.515,191.959,238.726,191.482,238.726
				L191.482,238.726z M586.417,233.539c-0.464,0-0.924-0.199-1.241-0.584c-2.034-2.462-4.112-4.883-6.236-7.263
				c-0.589-0.662-0.531-1.679,0.129-2.268c0.663-0.587,1.679-0.53,2.269,0.129c2.151,2.411,4.256,4.864,6.315,7.356
				c0.563,0.685,0.466,1.697-0.217,2.263C587.137,233.418,586.775,233.539,586.417,233.539L586.417,233.539z M203.934,224.008
				c-0.387,0-0.775-0.139-1.084-0.42c-0.654-0.598-0.699-1.614-0.102-2.271c2.181-2.386,4.403-4.732,6.672-7.036
				c0.623-0.633,1.639-0.64,2.274-0.018c0.631,0.623,0.639,1.641,0.018,2.274c-2.241,2.273-4.439,4.591-6.591,6.949
				C204.803,223.832,204.368,224.008,203.934,224.008L203.934,224.008z M573.591,219.161c-0.421,0-0.841-0.164-1.158-0.493
				c-2.213-2.3-4.469-4.56-6.767-6.775c-0.639-0.615-0.659-1.634-0.04-2.272c0.615-0.639,1.629-0.659,2.271-0.041
				c2.325,2.244,4.612,4.532,6.854,6.86c0.615,0.638,0.596,1.655-0.046,2.271C574.395,219.012,573.994,219.161,573.591,219.161
				L573.591,219.161z M217.457,210.277c-0.427,0-0.853-0.169-1.171-0.505c-0.607-0.647-0.577-1.664,0.069-2.272
				c2.354-2.214,4.748-4.385,7.184-6.51c0.666-0.583,1.679-0.516,2.267,0.156c0.584,0.668,0.513,1.683-0.156,2.267
				c-2.405,2.096-4.771,4.241-7.093,6.427C218.248,210.133,217.852,210.277,217.457,210.277L217.457,210.277z M559.716,205.787
				c-0.38,0-0.764-0.135-1.07-0.408c-2.38-2.128-4.802-4.21-7.265-6.246c-0.682-0.565-0.779-1.578-0.213-2.263
				c0.563-0.679,1.578-0.778,2.263-0.213c2.495,2.061,4.945,4.172,7.355,6.325c0.664,0.592,0.718,1.606,0.129,2.269
				C560.596,205.606,560.158,205.787,559.716,205.787L559.716,205.787z M231.973,197.614c-0.469,0-0.933-0.204-1.252-0.598
				c-0.557-0.691-0.448-1.701,0.241-2.259c2.513-2.028,5.064-4.012,7.651-5.944c0.713-0.534,1.718-0.386,2.249,0.324
				c0.532,0.711,0.386,1.718-0.324,2.249c-2.557,1.911-5.077,3.869-7.557,5.873C232.684,197.498,232.328,197.614,231.973,197.614
				L231.973,197.614z M544.861,193.495c-0.341,0-0.685-0.108-0.974-0.332c-2.535-1.939-5.109-3.833-7.718-5.679
				c-0.725-0.513-0.898-1.516-0.385-2.24c0.512-0.723,1.515-0.897,2.238-0.384c2.644,1.869,5.25,3.788,7.818,5.752
				c0.703,0.538,0.838,1.547,0.299,2.252C545.823,193.278,545.346,193.495,544.861,193.495L544.861,193.495z M247.398,186.089
				c-0.51,0-1.012-0.243-1.324-0.695c-0.504-0.73-0.32-1.731,0.41-2.235c2.655-1.831,5.348-3.613,8.077-5.347
				c0.745-0.474,1.739-0.254,2.216,0.494c0.478,0.749,0.256,1.742-0.494,2.218c-2.694,1.712-5.352,3.472-7.975,5.281
				C248.031,185.997,247.713,186.089,247.398,186.089L247.398,186.089z M529.113,182.362c-0.301,0-0.604-0.084-0.877-0.261
				c-2.674-1.743-5.384-3.436-8.132-5.079c-0.76-0.456-1.007-1.443-0.553-2.205c0.454-0.761,1.445-1.003,2.205-0.553
				c2.78,1.664,5.525,3.379,8.234,5.145c0.745,0.485,0.954,1.479,0.469,2.223C530.154,182.104,529.637,182.362,529.113,182.362
				L529.113,182.362z M263.642,175.774c-0.555,0-1.091-0.286-1.39-0.797c-0.446-0.767-0.187-1.751,0.579-2.199
				c2.785-1.622,5.604-3.194,8.454-4.714c0.781-0.423,1.757-0.121,2.173,0.66c0.419,0.783,0.122,1.755-0.661,2.173
				c-2.815,1.501-5.597,3.054-8.347,4.658C264.194,175.703,263.917,175.774,263.642,175.774L263.642,175.774z M512.553,172.452
				c-0.259,0-0.524-0.063-0.77-0.197c-2.8-1.534-5.635-3.017-8.498-4.447c-0.794-0.395-1.116-1.36-0.72-2.154
				c0.396-0.794,1.362-1.113,2.153-0.72c2.901,1.448,5.771,2.95,8.609,4.503c0.778,0.425,1.062,1.402,0.636,2.181
				C513.673,172.151,513.121,172.452,512.553,172.452L512.553,172.452z M280.614,166.725c-0.596,0-1.169-0.332-1.447-0.905
				c-0.387-0.799-0.055-1.761,0.745-2.147c2.897-1.406,5.825-2.758,8.781-4.057c0.813-0.356,1.761,0.014,2.118,0.825
				c0.356,0.813-0.014,1.761-0.825,2.119c-2.922,1.281-5.812,2.617-8.672,4.004C281.088,166.674,280.849,166.725,280.614,166.725
				L280.614,166.725z M495.28,163.831c-0.221,0-0.445-0.046-0.66-0.144c-2.91-1.315-5.851-2.577-8.819-3.784
				c-0.822-0.334-1.218-1.272-0.884-2.094c0.336-0.823,1.268-1.218,2.096-0.883c3.007,1.222,5.985,2.502,8.934,3.834
				c0.807,0.366,1.164,1.317,0.801,2.127C496.477,163.479,495.895,163.831,495.28,163.831L495.28,163.831z M298.212,159.001
				c-0.64,0-1.245-0.386-1.495-1.018c-0.325-0.826,0.08-1.757,0.907-2.084c3.001-1.182,6.031-2.31,9.089-3.381
				c0.842-0.3,1.755,0.149,2.048,0.984c0.293,0.838-0.148,1.754-0.984,2.048c-3.021,1.059-6.013,2.171-8.977,3.34
				C298.607,158.965,298.408,159.001,298.212,159.001L298.212,159.001z M477.387,156.552c-0.182,0-0.368-0.031-0.547-0.096
				c-3.004-1.088-6.032-2.122-9.09-3.1c-0.846-0.27-1.311-1.174-1.04-2.019c0.27-0.844,1.167-1.311,2.022-1.04
				c3.091,0.99,6.161,2.036,9.203,3.138c0.837,0.303,1.265,1.223,0.965,2.059C478.662,156.145,478.047,156.552,477.387,156.552
				L477.387,156.552z M316.398,152.628c-0.687,0-1.322-0.444-1.536-1.135c-0.261-0.847,0.214-1.746,1.064-2.008
				c3.081-0.948,6.189-1.84,9.321-2.675c0.858-0.226,1.738,0.279,1.966,1.137c0.229,0.859-0.281,1.739-1.138,1.966
				c-3.095,0.825-6.161,1.705-9.206,2.643C316.714,152.606,316.554,152.628,316.398,152.628L316.398,152.628z M459.008,150.676
				c-0.143,0-0.288-0.02-0.433-0.059c-3.07-0.854-6.16-1.651-9.272-2.388c-0.864-0.204-1.399-1.07-1.194-1.933
				c0.205-0.864,1.074-1.406,1.934-1.192c3.153,0.747,6.284,1.553,9.392,2.416c0.856,0.239,1.356,1.123,1.119,1.978
				C460.356,150.209,459.71,150.676,459.008,150.676L459.008,150.676z M335.016,147.666c-0.735,0-1.396-0.507-1.566-1.252
				c-0.195-0.866,0.348-1.726,1.213-1.922c3.146-0.71,6.314-1.361,9.5-1.955c0.868-0.17,1.71,0.414,1.874,1.287
				c0.161,0.873-0.415,1.71-1.287,1.873c-3.146,0.584-6.273,1.229-9.378,1.93C335.252,147.654,335.134,147.666,335.016,147.666
				L335.016,147.666z M440.258,146.23c-0.103,0-0.208-0.009-0.313-0.03c-3.123-0.615-6.264-1.172-9.43-1.669
				c-0.876-0.14-1.476-0.962-1.336-1.839c0.137-0.876,0.941-1.462,1.838-1.337c3.202,0.507,6.385,1.07,9.548,1.691
				c0.871,0.171,1.438,1.017,1.267,1.887C441.683,145.701,441.012,146.23,440.258,146.23L440.258,146.23z M353.961,144.146
				c-0.784,0-1.472-0.574-1.588-1.373c-0.129-0.878,0.479-1.694,1.356-1.823c3.188-0.468,6.395-0.877,9.62-1.224
				c0.929-0.089,1.676,0.545,1.769,1.425c0.096,0.883-0.543,1.676-1.424,1.769c-3.183,0.344-6.35,0.747-9.497,1.208
				C354.117,144.142,354.038,144.146,353.961,144.146L353.961,144.146z M421.223,143.23c-0.063,0-0.128-0.003-0.19-0.011
				c-3.159-0.375-6.335-0.69-9.529-0.947c-0.884-0.073-1.542-0.848-1.472-1.73c0.071-0.885,0.822-1.533,1.73-1.474
				c3.233,0.261,6.45,0.582,9.648,0.96c0.881,0.105,1.509,0.904,1.407,1.784C422.72,142.63,422.026,143.23,421.223,143.23
				L421.223,143.23z M373.117,142.076c-0.836,0-1.542-0.647-1.602-1.495c-0.061-0.885,0.608-1.652,1.492-1.714
				c3.212-0.224,6.441-0.389,9.684-0.494c0.759-0.116,1.627,0.664,1.657,1.553c0.03,0.887-0.665,1.629-1.553,1.657
				c-3.202,0.105-6.391,0.267-9.564,0.489C373.192,142.075,373.155,142.076,373.117,142.076L373.117,142.076z M402.016,141.685
				c-0.023,0-0.046,0-0.07-0.002c-3.175-0.134-6.368-0.212-9.573-0.229c-0.888-0.004-1.604-0.728-1.598-1.614
				c0.004-0.885,0.723-1.599,1.606-1.599c0.003,0,0.005,0,0.008,0c3.245,0.018,6.478,0.094,9.695,0.232
				c0.885,0.038,1.574,0.788,1.535,1.674C403.583,141.011,402.872,141.685,402.016,141.685L402.016,141.685z"/>
		</g>
		<path fill="#EDEDED" d="M391.035,764.298c-204.659,0-371.161-166.503-371.161-371.162S186.376,21.975,391.035,21.975
			s371.161,166.502,371.161,371.161S595.694,764.298,391.035,764.298L391.035,764.298z M391.035,33.537
			c-201.15,0-359.599,158.448-359.599,359.599c0,201.151,158.449,359.601,359.599,359.601c201.15,0,359.598-158.449,359.598-359.601
			C750.633,191.986,592.185,33.537,391.035,33.537L391.035,33.537z"/>
	</g>
	<circle fill="none" cx="391.035" cy="391.53" r="278.702"/>
	<text transform="matrix(-0.2615 -0.9652 0.9652 -0.2615 126.0346 479.687)"><tspan x="0" y="0" fill="#EDEDED" font-family="'Rajdhani-Medium'" font-size="70">F</tspan><tspan x="30.733" y="-0.118" fill="#EDEDED" font-family="'Rajdhani-Medium'" font-size="70" rotate="6.525">E</tspan><tspan x="62.735" y="3.286" fill="#EDEDED" font-family="'Rajdhani-Medium'" font-size="70" rotate="13.717">D</tspan><tspan x="99.176" y="12.266" fill="#EDEDED" font-family="'Rajdhani-Medium'" font-size="70" rotate="20.884">E</tspan><tspan x="129.365" y="23.565" fill="#EDEDED" font-family="'Rajdhani-Medium'" font-size="70" rotate="27.881">R</tspan><tspan x="161.351" y="40.373" fill="#EDEDED" font-family="'Rajdhani-Medium'" font-size="70" rotate="35.274">A</tspan><tspan x="191.057" y="61.574" fill="#EDEDED" font-family="'Rajdhani-Medium'" font-size="70" rotate="41.928">T</tspan><tspan x="212.499" y="80.603" fill="#EDEDED" font-family="'Rajdhani-Medium'" font-size="70" rotate="48.193">E</tspan><tspan x="234.155" y="104.431" fill="#EDEDED" font-family="'Rajdhani-Medium'" font-size="70" rotate="55.38">D</tspan><tspan x="255.238" y="135.788" fill="#EDEDED" font-family="'Rajdhani-Medium'" font-size="70" rotate="61.018"> </tspan><tspan x="263.529" y="150.711" fill="#EDEDED" font-family="'Rajdhani-Medium'" font-size="70" rotate="64.552"> </tspan><tspan x="270.88" y="166.107" fill="#EDEDED" font-family="'Rajdhani-Medium'" font-size="70" rotate="68.073"> </tspan><tspan x="277.274" y="181.935" fill="#EDEDED" font-family="'Rajdhani-Medium'" font-size="70" rotate="71.577"> </tspan><tspan x="283.301" y="197.426" fill="#EDEDED" font-family="'Rajdhani-Medium'" font-size="70" rotate="77.819">N</tspan><tspan x="291.656" y="235.867" fill="#EDEDED" font-family="'Rajdhani-Medium'" font-size="70" rotate="84.54">E</tspan><tspan x="294.703" y="268.084" fill="#EDEDED" font-family="'Rajdhani-Medium'" font-size="70" rotate="90.833">T</tspan><tspan x="295.372" y="296.421" fill="#EDEDED" font-family="'Rajdhani-Medium'" font-size="70" rotate="99.35">W</tspan><tspan x="286.065" y="349.555" fill="#EDEDED" font-family="'Rajdhani-Medium'" font-size="70" rotate="108.702">O</tspan><tspan x="274.171" y="384.864" fill="#EDEDED" font-family="'Rajdhani-Medium'" font-size="70" rotate="116.213">R</tspan><tspan x="258.286" y="417.342" fill="#EDEDED" font-family="'Rajdhani-Medium'" font-size="70" rotate="123.597">K</tspan><tspan x="238.367" y="447.572" fill="#EDEDED" font-family="'Rajdhani-Medium'" font-size="70" rotate="131.112">S</tspan><tspan x="213.227" y="475.683" fill="#EDEDED" font-family="'Rajdhani-Medium'" font-size="70" rotate="136.692"> </tspan><tspan x="200.82" y="487.409" fill="#EDEDED" font-family="'Rajdhani-Medium'" font-size="70" rotate="140.209"> </tspan><tspan x="187.723" y="498.346" fill="#EDEDED" font-family="'Rajdhani-Medium'" font-size="70" rotate="143.733"> </tspan><tspan x="173.973" y="508.462" fill="#EDEDED" font-family="'Rajdhani-Medium'" font-size="70" rotate="147.265"> </tspan><tspan x="160.189" y="517.958" fill="#EDEDED" font-family="'Rajdhani-Medium'" font-size="70" rotate="152.796">A</tspan><tspan x="127.946" y="534.677" fill="#EDEDED" font-family="'Rajdhani-Medium'" font-size="70" rotate="160.385">S</tspan><tspan x="92.78" y="547.305" fill="#EDEDED" font-family="'Rajdhani-Medium'" font-size="70" rotate="167.961">S</tspan><tspan x="56.254" y="555.199" fill="#EDEDED" font-family="'Rajdhani-Medium'" font-size="70" rotate="175.566">O</tspan><tspan x="19.13" y="558.151" fill="#EDEDED" font-family="'Rajdhani-Medium'" font-size="70" rotate="-176.833">C</tspan><tspan x="-17.551" y="555.673" fill="#EDEDED" font-family="'Rajdhani-Medium'" font-size="70" rotate="-171.392">I</tspan><tspan x="-33.285" y="553.841" fill="#EDEDED" font-family="'Rajdhani-Medium'" font-size="70" rotate="-165.967">A</tspan><tspan x="-68.631" y="544.847" fill="#EDEDED" font-family="'Rajdhani-Medium'" font-size="70" rotate="-159.283">T</tspan><tspan x="-95.63" y="534.397" fill="#EDEDED" font-family="'Rajdhani-Medium'" font-size="70" rotate="-154.686">I</tspan><tspan x="-110.165" y="528.153" fill="#EDEDED" font-family="'Rajdhani-Medium'" font-size="70" rotate="-149.231">O</tspan><tspan x="-142.227" y="509.26" fill="#EDEDED" font-family="'Rajdhani-Medium'" font-size="70" rotate="-141.439">N</tspan></text>
	<circle fill="none" cx="391.033" cy="371.329" r="343.323"/>
	<text transform="matrix(0.9319 0.3627 -0.3627 0.9319 256.8824 687.6055)"><tspan x="0" y="0" fill="#EDEDED" font-family="'Rajdhani-Medium'" font-size="63">f</tspan><tspan x="22.167" y="0.133" fill="#EDEDED" font-family="'Rajdhani-Medium'" font-size="63" rotate="-4.593">e</tspan><tspan x="55.692" y="-2.66" fill="#EDEDED" font-family="'Rajdhani-Medium'" font-size="63" rotate="-10.276">n</tspan><tspan x="89.998" y="-9.045" fill="#EDEDED" font-family="'Rajdhani-Medium'" font-size="63" rotate="-15.957">e</tspan><tspan x="122.306" y="-18.393" fill="#EDEDED" font-family="'Rajdhani-Medium'" font-size="63" rotate="-21.625">a</tspan><tspan x="154.216" y="-31.285" fill="#EDEDED" font-family="'Rajdhani-Medium'" font-size="63" rotate="-26.978">s</tspan><tspan x="179.857" y="-44.658" fill="#EDEDED" font-family="'Rajdhani-Medium'" font-size="63" rotate="-30.562">.</tspan><tspan x="192.107" y="-51.577" fill="#EDEDED" font-family="'Rajdhani-Medium'" font-size="63" rotate="-34.54">o</tspan><tspan x="219.672" y="-70.939" fill="#EDEDED" font-family="'Rajdhani-Medium'" font-size="63" rotate="-39.267">r</tspan><tspan x="237.257" y="-85.118" fill="#EDEDED" font-family="'Rajdhani-Medium'" font-size="63" rotate="-44.049">g</tspan><tspan x="261.523" y="-109.128" fill="#EDEDED" font-family="'Rajdhani-Medium'" font-size="63" rotate="-48.41"> </tspan><tspan x="272.995" y="-122.103" fill="#EDEDED" font-family="'Rajdhani-Medium'" font-size="63" rotate="-51.287"> </tspan></text>
</g>
<ellipse fill="#0A0E15" cx="391.953" cy="392.038" rx="232.484" ry="227.64"/>
<circle fill="#428484" cx="391.353" cy="392.86" r="242.16"/>
<path fill="#5AAA56" d="M446.402,445.053c-2.439-2.85-4.901-4.746-6.394-8.194c-4.241-9.796-10.573-23.149-7.674-29.259
	s6.105-3.414,3.56-10.233c-0.722-1.935-3.788-5.708-4.352-8.853c-0.964-5.371,1.58-11.96,0.25-17.908
	c-2.092-3.763-6.75-6.902-5.402-11.418c-3.042,5.336-5.918,5.142-8.709,2.865c-2.072,5.012-4.665,9.87-5.802,15.242
	c-1.4,7.137-5.868,17.172-14.875,14.479c-5.723-8.817-13.462,1.49-20.126-1.039c-6.148-4.324-14.848,2.023-20.572-4.004
	c-6.606-1.695-8.769-11.089-16.43-9.492c-6.03,2.617-18.912-5.727-19.485,4.188c2.255,8.258-2.379,14.415-7.62,19.71
	c4.264,5.619,1.579,11.143-2.176,16.185c-7.898,9.069,9.118,6.923,11.855,1.483c4.853-4.877,13.965-7.719,19.946-3.755
	c0.961,5.401,1.39,11.287,8.761,10.189c4.091,7.074,12.231,7.202,18.677,11.175c5.333,6.609,14.359,8.064,22.382,8.108
	c6.441,0.535,19.175-6.186,20.16,3.973c3.402,5.954,10.03,8.921,15.901,12.496c1.397-2.821,4.411-5.066,5.976-7.836
	C437.785,449.796,442.224,447.536,446.402,445.053L446.402,445.053z"/>
<path fill="#5AAA56" d="M490.668,601.716c-0.296,0.328-0.734,0.547-1.175,0.56c-4.713,0.125-8.868-2.253-12.59-3.245
	c-1.861-0.496-3.564-0.663-5.204-0.28c-1.585,0.371-3.211,1.315-4.98,3.301c-0.601,1.864-1.172,3.524-1.791,4.868
	c-0.669,1.454-1.377,2.708-2.686,3.413c-0.654,0.353-1.481,0.476-2.238,0.336s-1.433-0.469-2.07-0.951
	c-1.276-0.964-2.483-2.5-3.973-4.7c-0.069-0.105-0.125-0.218-0.168-0.336c-1.388-3.57-2.621-4.73-3.973-5.092
	c-1.352-0.362-3.533,0.14-6.715,1.343c-0.743,0.268-1.571-0.04-1.958-0.727c-1.579-2.952-7.453-9.622-11.974-12.646
	c-1.13-0.756-2.188-1.277-2.966-1.511c-0.778-0.234-1.152-0.135-1.287-0.056c-0.135,0.079-0.424,0.281-0.56,1.287
	c-0.136,1.006-0.065,2.639,0.392,4.924c0.055,0.239,0.055,0.488,0,0.727c-0.457,1.785-1.012,3.14-1.791,4.141
	c-0.779,1-1.999,1.638-3.189,1.567c-1.19-0.071-2.089-0.655-2.91-1.399c-0.821-0.744-1.603-1.685-2.294-2.742
	c-1.382-2.114-2.566-4.732-3.469-7.162c-0.668-1.797-0.936-3.193-1.175-4.588c-2.021,0.209-3.906-0.18-5.26-1.231
	c-1.755-1.363-2.981-3.24-4.085-4.7c-1.104-1.461-2.079-2.358-2.574-2.462c-0.247-0.052-0.479-0.034-1.007,0.28
	s-1.269,1.003-2.182,2.182c-0.273,0.337-0.688,0.573-1.119,0.615c-0.431,0.042-0.842-0.114-1.175-0.392
	c-1.625-1.351-3.236-1.354-5.372-0.783s-4.608,1.854-7.106,2.966c-2.498,1.112-5.113,2.11-7.834,1.567
	c-2.63-0.525-4.873-2.732-6.435-6.603c-0.716-1.04-1.876-1.632-3.469-2.126c-1.593-0.494-3.528-0.807-5.484-1.343
	c-1.956-0.536-3.988-1.302-5.54-2.966c-0.759-0.814-1.321-1.875-1.735-3.078c-0.281,0.339-0.543,0.956-0.839,1.231
	c-1.173,1.087-2.641,1.619-4.029,1.455c-2.775-0.329-4.528-2.68-6.323-5.26c-1.795-2.58-3.562-5.651-5.372-8.169
	c-1.81-2.519-3.721-4.333-5.26-4.756c-0.517-0.136-0.94-0.503-1.119-1.007c-0.179-0.504-0.091-1.079,0.224-1.511
	c0.711-1.012,2.879-4.531,3.469-7.33c0.295-1.4,0.19-2.475-0.224-3.078c-0.349-0.509-1.242-0.927-2.854-1.063
	c-0.977,1.783-2.352,3.13-3.973,3.749c-2.008,0.767-4.138,0.873-6.211,1.007c-2.073,0.134-4.047,0.275-5.707,0.839
	s-3.011,1.425-4.085,3.301c-0.102,0.172-0.235,0.324-0.392,0.448c-2.023,1.638-4.77,2.043-7.498,1.958
	c-2.728-0.084-5.448-0.69-7.61-1.567c-1.081-0.438-2.044-0.923-2.798-1.567c-0.753-0.644-1.531-1.63-1.287-2.91
	c0.244-1.279,1.318-1.99,2.462-2.462c0.867-0.357,2.183-0.572,3.525-0.783c0.342-0.872,0.605-1.725,0.56-2.182
	c-0.058-0.586-0.227-0.874-0.672-1.231c-0.889-0.714-3.092-1.204-5.651-1.007c-2.562,0.197-5.444,0.943-7.778,2.07
	s-4.016,2.649-4.476,3.861c-0.097,0.285-0.271,0.536-0.504,0.727c-3.377,2.627-6.919,3.085-10.016,2.35s-5.807-2.469-8.393-4.085
	c-2.586-1.616-5.025-3.068-7.274-3.525s-4.313-0.143-6.938,2.182c-0.655,0.569-1.643,0.52-2.238-0.112
	c-1.948-2.073-3.781-2.163-5.763-1.287c-1.982,0.876-3.918,2.995-4.98,5.484c-0.184,0.452-0.54,0.81-1.007,0.951
	c-0.467,0.141-0.995,0.05-1.399-0.224c-1.267-0.823-2.142-1.048-2.686-1.063s-0.845,0.086-1.231,0.448
	c-0.771,0.724-1.543,2.667-2.238,4.644c-0.347,0.989-0.701,2.002-1.175,2.91s-1.066,1.805-2.182,2.294
	c-1.117,0.489-2.491,0.251-3.637-0.448c-1.038-0.634-2.094-1.763-3.301-3.189c-2.148-1.396-5.924-3.6-8.897-2.337
	c48.62,59.459,112.02,92.859,202.13,91.143c36.312-0.692,78.49-13.684,107.49-31.184
	C505.774,602.302,490.964,601.389,490.668,601.716z"/>
<path fill="#5AAA56" d="M465.401,214.465l-0.334,0.897c15.177,13.886,27.256,27.472,40.153,40.073
	c1.208,1.166,1.68,2.304,1.23,2.968c-1.372,2.176-0.927,4.24,0.548,6.699c1.475,2.459,4.19,5.354,7.425,8.49
	c6.407,6.21,15.501,13.647,17.662,20.394l-0.034,0.058c0.013,0.042,0.092,0.096,0.104,0.138c2.05,5.673-1.542,8.272-6.628,9.25
	c-5.148,0.99-11.878,0.691-17.484,0.647s-9.777,0.376-10.65,1.557c-0.436,0.59-0.347,1.222,0.54,2.569
	c0.869,1.32,2.93,3.504,6.514,6.563c23.609,13.439,37.274,28.686,36.921,39.297l-0.067,0.117c-1.216,6.951-2.1,9.647-0.839,11.969
	c1.261,2.322,5.676,6.333,17.728,16.774l0.347,0.356c8.367,7.943,15.983,16.135,18.819,22.852
	c2.836,6.717-0.225,11.418-11.373,11.414c-0.773,0.001-1.74-0.228-2.75-0.654c-8.344-3.61-13.803-4.99-16.753-5.08
	c-2.95-0.089-3.724,0.851-3.439,2.451c0.296,1.661,1.894,4.654,3.372,7.862s2.805,6.779,0.742,8.912
	c-0.09,0.132-0.216,0.242-0.374,0.329c-1.721,0.747-2.148,2.68-2.037,5.44c0.111,2.76,0.688,6.171-0.39,8.96
	c-0.438,1.134,0.467,3.138,1.532,5.632c1.065,2.495,2.42,5.618,1.039,7.761c-1.649,2.558-5.283,3.715-8.353,4.907
	c-3.069,1.192-5.531,2.439-5.827,3.719c-0.321,1.392,0.31,3.826,0.612,6.269c0.302,2.443,0.366,5.124-2.647,6.178
	c-17.06,5.965-20.977,7.07-39.424,4.871c-2.718-0.324-4.881,0.133-7.434,0.767s-5.52,1.422-10.175,1.053l-0.172-0.021
	c-5.755-0.642-12.893-0.189-16.417,1.03c-1.141,0.395-1.208,0.682-1.499,1.003c4.397,0.822,9.269,1.167,15.081,2.558
	c3.285,0.786,6.929,1.971,10.774,3.963c3.845,1.992,7.666,4.772,10.815,8.035c1.21,1.246,1.542,2.41,0.853,2.983
	c-3.977,3.521-3.457,7.936-2.473,13.206c0.946,5.067,2.14,10.85,0.06,16.147c1.198,2.036,2.062,3.952,2.427,5.994
	c0.438,2.45,0.508,5.037,0.591,7.58c0.167,5.087,0.364,10.402,1.187,12.283c0.575,1.313,24.526,30.553,28.326,34.307
	c49.158-32.603,70.558-62.841,88.055-101.651c40.103-88.952,29.437-192.952-48.531-272.612c-15.44-1.828-35.07-4.113-44.237-4.308
	c1.73,3.272,2.648,6.006,1.965,7.75c-0.854,2.18-3.649,2.958-6.759,3.103c-6.22,0.29-14.156-1.457-18.705-1.381
	c-1.237-0.007-2.919-0.595-4.44-1.551c-7.488-4.576-14.409-9.713-18.503-11.928c-2.047-1.107-2.81-1.38-3.615-1.387
	C467.657,212.023,466.253,212.416,465.401,214.465z"/>
<path id="XMLID_5_" fill="#5AAA56" d="M205.394,240.988l21.849-7.37c5.252-1.772,11.052,0.419,13.742,5.191l0,0
	c1.671,2.964,4.617,5.031,8.017,5.626l14.47,2.531c1.976,0.346,4.01,0.176,5.895-0.493l7.511-2.664
	c4.969-1.763,10.531,0.048,13.447,4.379l0.112,0.167c2.526,3.751,2.525,8.613-0.002,12.353l-8.317,12.312
	c-1.126,1.667-1.776,3.601-1.88,5.599l-0.674,12.869c-0.139,2.658,0.692,5.281,2.345,7.396l5.931,7.591
	c2.361,3.022,2.999,7.007,1.695,10.585l-11.228,51.666c-0.679,1.864-0.842,3.873-0.47,5.821l-0.466,37.432
	c0.508,2.667,1.986,5.065,4.159,6.748l30.563,23.677c3.365,2.607,4.964,6.836,4.141,10.956l-9.355,46.839
	c-0.571,2.858-2.255,5.383-4.697,7.039l-24.866,16.876c-1.722,1.169-3.082,2.78-3.931,4.657l-16.601,36.71
	c-1.32,2.919-3.85,5.143-6.953,6.115l-10.329,3.233c-4.396,1.376-9.438,0.709-12.437-2.738c-4.73-5.436-13.748-14.091-22.97-25.644
	c-29.847-37.392-68.871-112.055-47.539-206.874c5.953-26.46,18.668-54.734,38.026-85.445
	C196.119,251.687,202.623,241.922,205.394,240.988z"/>
<path id="XMLID_11_" fill="#5AAA56" d="M263.004,198.092l6.569,6.056c2.065,1.904,5.062,2.324,7.553,1.058l9.07-4.606
	c3.679-1.869,8.128,0.013,9.434,3.99l1.424,4.337c0.501,1.525,0.464,3.181-0.103,4.681l-6.321,16.722
	c-0.625,1.652-0.603,3.486,0.059,5.123l2.378,5.876c1.331,3.288,4.891,5.007,8.226,3.972l20.464-6.35
	c0.765-0.237,1.566-0.335,2.364-0.287l82.356,4.912c1.481,0.088,2.949-0.322,4.179-1.168l66.854-45.989
	c3.427-2.357,4.002-7.271,1.215-10.386l-1.081-1.209c-2.803-3.133-2.203-8.079,1.264-10.419l0,0c4.871-3.288,3.382-6.42-1.988-8.736
	c-36.197-15.611-127.434-30.791-212.923,21.244C260.075,189.298,259.616,194.969,263.004,198.092z"/>
<g id="Lines">
	<g>
		<path fill="#FFFFFF" d="M569.348,382.534c-0.669-0.836-1.708-2.023-3.139-3.484c-0.746-0.704-1.572-1.484-2.471-2.334
			c-0.481-0.402-0.981-0.82-1.501-1.254c-0.517-0.437-1.071-0.875-1.673-1.303c-2.324-1.786-5.185-3.62-8.636-5.305
			c-3.437-1.697-7.453-3.268-12.088-4.428c-4.62-1.178-9.875-1.897-15.549-2.099c-2.844-0.079-5.786-0.058-8.82,0.165
			c-1.508,0.073-3.051,0.256-4.592,0.393c-1.553,0.204-3.111,0.376-4.688,0.648c-6.295,0.967-12.756,2.568-19.132,4.593
			c-6.376,2.052-12.669,4.544-18.697,7.357c-6.034,2.802-11.795,5.927-17.185,9.182c-5.383,3.268-10.398,6.667-14.938,10.084
			c-4.556,3.401-8.612,6.838-12.177,10.11c-3.583,3.263-6.599,6.42-9.102,9.275c-2.519,2.851-4.46,5.437-5.922,7.588
			c-0.372,0.544-0.71,1.06-1.018,1.548c0.252,0.142,0.484,0.303,0.694,0.487c0.432-0.531,0.891-1.087,1.405-1.691
			c1.723-2.012,3.976-4.383,6.696-7.01c1.364-1.312,2.855-2.683,4.478-4.092c1.614-1.414,3.334-2.882,5.182-4.371
			c3.701-2.973,7.857-6.068,12.406-9.159c4.535-3.104,9.483-6.179,14.713-9.155c2.626-1.472,5.315-2.928,8.07-4.336
			c2.765-1.385,5.577-2.749,8.442-4.039c5.736-2.559,11.652-4.891,17.618-6.783c5.959-1.92,11.961-3.423,17.807-4.432
			c5.85-1.031,11.531-1.514,16.878-1.556c5.329,0.003,10.347,0.416,14.854,1.261c4.512,0.834,8.58,1.982,12.138,3.306
			c3.537,1.346,6.649,2.774,9.235,4.223c1.339,0.683,2.447,1.459,3.58,2.083c1.061,0.693,2.035,1.329,2.915,1.903
			c0.837,0.609,1.593,1.151,2.263,1.616c0.664,0.47,1.187,0.909,1.633,1.245c0.888,0.676,1.362,1.037,1.362,1.037
			S570.026,383.366,569.348,382.534z"/>
	</g>
	<g>
		<path fill="#FFFFFF" d="M348.146,388.248c-2.005-0.705-4.282-1.332-6.848-1.806c-2.337-0.404-4.869-0.746-7.577-0.856
			c-2.701-0.121-5.549-0.08-8.455,0.136c-2.905,0.222-5.86,0.621-8.819,1.142c-2.956,0.531-5.883,1.231-8.79,2.017
			c-5.797,1.598-11.412,3.654-16.71,6c-2.652,1.173-5.227,2.418-7.727,3.717c-2.476,1.311-4.9,2.662-7.228,4.059
			c-4.623,2.81-8.94,5.766-12.812,8.812c-1.948,1.518-3.794,3.056-5.522,4.604c-0.878,0.77-1.698,1.551-2.536,2.319
			c-0.801,0.779-1.611,1.548-2.357,2.327c-3.045,3.098-5.656,6.179-7.822,9.156c-2.159,2.979-3.84,5.856-5.122,8.535
			c-1.314,2.675-2.153,5.16-2.689,7.361c-0.581,2.199-0.718,4.12-0.775,5.687c-0.012,0.784-0.024,1.482,0.054,2.085
			c0.053,0.604,0.086,1.116,0.169,1.527c0.147,0.822,0.225,1.26,0.225,1.26s0.076-0.446,0.217-1.282
			c0.13-0.833,0.417-2.055,0.859-3.596c0.469-1.542,1.14-3.403,2.136-5.512c1.003-2.108,2.34-4.46,4-6.986
			c1.686-2.523,3.764-5.211,6.178-7.999c2.428-2.785,5.245-5.66,8.387-8.559c3.132-2.903,6.676-5.802,10.463-8.666
			c3.822-2.851,7.932-5.652,12.33-8.294c4.374-2.654,9.042-5.143,13.884-7.391c2.442-1.105,4.892-2.183,7.411-3.149
			c2.519-0.962,5.056-1.867,7.624-2.652c2.568-0.783,5.154-1.465,7.726-2.036c2.577-0.557,5.143-0.979,7.657-1.29
			c5.029-0.581,9.854-0.602,14.087-0.088c2.792,0.359,5.34,0.893,7.598,1.54C347.458,389.607,347.723,388.879,348.146,388.248z"/>
	</g>
	<g>
		<path fill="#FFFFFF" d="M398.789,575.778c-2.373-3.985-4.94-8.036-7.727-12.1c-3.597-5.287-7.53-10.6-11.761-15.828
			c-2.108-2.616-4.328-5.198-6.572-7.758c-2.27-2.552-4.61-5.065-7.02-7.523c-2.411-2.457-4.88-4.863-7.451-7.175
			c-1.26-1.169-2.585-2.294-3.871-3.424c-1.329-1.108-2.623-2.221-3.979-3.284c-2.671-2.146-5.401-4.201-8.224-6.086
			c-1.389-0.96-2.834-1.852-4.241-2.746c-1.449-0.857-2.864-1.717-4.326-2.496c-2.901-1.573-5.812-3.018-8.759-4.156
			c-2.936-1.147-5.85-2.276-8.672-2.929c-2.824-0.625-5.533-1.093-8.043-1.207c-1.239,0.001-2.457,0.152-3.582,0.26
			c-0.564,0.047-1.138,0.15-1.666,0.233c-0.53,0.073-1.053,0.146-1.567,0.217c-0.307,0.033-0.595,0.09-0.879,0.151
			c0.259,0.499,0.433,1.943,0.514,2.507c0.402-0.058,0.805,0.076,1.24,0.06c0.507-0.035,0.933-0.064,1.507-0.104
			c0.504-0.045,1.05-0.311,1.584-0.32c1.063-0.034,2.204,0.087,3.352,0.154c2.326,0.254,4.683,0.592,7.346,1.071
			c4.982,0.896,10.51,3.33,15.791,6.451c1.333,0.763,2.63,1.612,3.954,2.451c1.292,0.882,2.613,1.754,3.889,2.701
			c1.302,0.919,2.555,1.911,3.851,2.88c1.259,1.004,2.545,2.003,3.784,3.059c5.03,4.167,9.78,8.785,14.392,13.568
			c4.581,4.802,8.978,9.809,13.088,14.917c4.154,5.094,8.01,10.29,11.642,15.446c1.812,2.579,3.541,5.155,5.231,7.705
			c1.337,2.054,2.627,4.088,3.881,6.108C395.994,577.206,397.093,576.084,398.789,575.778z"/>
	</g>
	<path fill="#FFFFFF" d="M385.152,211.351c0,0,0.614-0.261,1.766-0.751c1.145-0.497,2.869-1.172,5.156-1.956
		c1.164-0.36,2.452-0.76,3.855-1.194c0.725-0.188,1.478-0.384,2.26-0.587c0.781-0.207,1.603-0.402,2.473-0.574
		c3.422-0.777,7.456-1.425,12.058-1.759c4.593-0.35,9.756-0.409,15.389,0.074c5.626,0.463,11.717,1.516,18.009,3.139
		c3.143,0.832,6.342,1.78,9.542,2.928c1.609,0.539,3.202,1.181,4.815,1.785c1.592,0.664,3.207,1.302,4.793,2.03
		c6.389,2.808,12.643,6.206,18.594,9.936c5.937,3.753,11.566,7.851,16.746,12.138c5.191,4.279,9.926,8.745,14.19,13.204
		c4.25,4.468,8.034,8.93,11.29,13.257c3.282,4.319,6,8.51,8.264,12.406c2.289,3.894,4.011,7.519,5.323,10.728
		c1.332,3.209,2.165,6.011,2.692,8.294c0.538,2.286,0.705,4.048,0.801,5.236c0.047,0.594,0.031,1.041,0.043,1.344
		c0.005,0.302,0.008,0.458,0.008,0.458s-0.156-0.645-0.45-1.856c-0.317-1.21-0.882-2.986-1.752-5.233
		c-0.88-2.248-2.161-4.967-3.824-8.05c-0.837-1.541-1.782-3.173-2.853-4.879c-1.059-1.707-2.206-3.493-3.482-5.337
		c-2.562-3.687-5.558-7.62-8.986-11.673c-3.406-4.061-7.277-8.228-11.505-12.4c-2.134-2.076-4.345-4.158-6.651-6.221
		c-2.329-2.046-4.72-4.09-7.205-6.087c-4.987-3.979-10.284-7.823-15.854-11.311c-5.548-3.509-11.351-6.678-17.228-9.381
		c-5.871-2.722-11.83-4.927-17.643-6.653c-5.817-1.682-11.496-2.919-16.833-3.629c-5.337-0.721-10.347-1.035-14.886-1.039
		c-4.528,0.021-8.633,0.245-12.174,0.655c-1.8,0.155-3.394,0.461-4.941,0.632c-1.501,0.251-2.88,0.481-4.126,0.689
		c-1.216,0.251-2.31,0.471-3.272,0.652c-0.958,0.188-1.747,0.394-2.4,0.538C385.848,211.195,385.152,211.351,385.152,211.351z"/>
	<path fill="#FFFFFF" d="M393.235,210.768c0,0-0.485,0.018-1.396,0.055c-0.227,0.006-0.48,0.011-0.759,0.018
		c-0.284,0.036-0.593,0.076-0.928,0.118c-0.332,0.041-0.689,0.086-1.07,0.134c-0.387,0.079-0.799,0.162-1.233,0.249
		c-1.736,0.371-3.888,1.058-6.373,2.447c-2.482,1.365-5.307,3.642-8.221,6.873c-2.913,3.286-5.864,7.744-8.599,13.045
		c-1.355,2.675-2.675,5.527-3.918,8.548c-1.232,3.034-2.405,6.209-3.505,9.488c-1.099,3.28-2.107,6.673-3.068,10.117
		c-0.959,3.447-1.807,6.963-2.634,10.504c-1.606,7.087-2.956,14.296-4.026,21.43c-1.092,7.142-1.91,14.206-2.521,21.062
		c-0.582,6.84-0.992,13.5-1.148,19.784c-0.164,6.289-0.143,12.25,0.062,17.75c0.215,5.49,0.576,10.554,1.077,15.063
		c0.52,4.489,1.131,8.478,1.799,11.873c0.673,3.389,1.395,6.19,2.046,8.43c0.667,2.214,1.235,3.912,1.663,5.01
		c0.423,1.111,0.648,1.704,0.648,1.704s-0.315-0.442-0.906-1.272c-0.302-0.406-0.634-0.977-1.034-1.637
		c-0.415-0.637-0.833-1.466-1.303-2.397c-0.919-1.891-2.006-4.271-2.988-7.386c-1.011-3.075-2.009-6.763-2.832-11.109
		c-0.844-4.321-1.565-9.243-2.053-14.722c-0.483-5.483-0.756-11.498-0.773-17.931c-0.016-1.599,0.013-3.246,0.03-4.896
		c0.047-1.671,0.075-3.342,0.145-5.052c0.119-3.405,0.316-6.905,0.588-10.477c0.523-7.132,1.374-14.566,2.502-22.112
		c0.578-3.778,1.245-7.59,1.967-11.404c0.744-3.822,1.568-7.649,2.482-11.462c1.825-7.621,4.021-15.192,6.609-22.394
		c1.307-3.593,2.679-7.104,4.171-10.443c1.501-3.331,3.073-6.513,4.721-9.443c1.653-2.923,3.378-5.589,5.11-7.928
		c1.73-2.36,3.493-4.284,5.175-5.957c3.389-3.272,6.513-5.12,9.112-6.007c2.619-0.967,4.733-1.01,6.405-0.898
		c0.416,0.035,0.81,0.068,1.181,0.1c0.358,0.079,0.693,0.154,1.005,0.223c0.309,0.071,0.596,0.136,0.858,0.195
		c0.251,0.088,0.48,0.168,0.684,0.24C392.801,210.605,393.235,210.768,393.235,210.768z"/>
	<path display="none" fill="#FFFFFF" d="M530.998,310.565c-4.533-2.402-9.993-4.915-16.475-7.243
		c-6.45-2.351-13.785-4.641-22.021-6.596c-8.207-1.984-17.27-3.672-26.994-4.971c-9.736-1.278-20.141-2.166-31.032-2.464
		c-10.881-0.317-22.237-0.048-33.739,0.86c-11.501,0.945-23.151,2.508-34.498,4.831c-2.842,0.542-5.65,1.208-8.448,1.826
		c-2.777,0.702-5.557,1.344-8.274,2.114c-5.467,1.446-10.765,3.111-15.887,4.854c-10.218,3.537-19.675,7.529-27.985,11.773
		c-8.337,4.229-15.557,8.654-21.731,12.915c-6.201,4.253-11.338,8.368-15.507,12.108c-0.949,0.809-1.82,1.605-2.649,2.387
		c0.451,0.837,0.891,1.679,1.314,2.528c1.507-1.165,3.053-2.406,4.826-3.652c4.643-3.438,10.236-7.151,16.594-10.997
		c6.396-3.829,13.712-7.716,21.831-11.435c8.109-3.731,17.142-7.173,26.74-10.245c9.631-3.021,19.866-5.641,30.412-7.62
		c10.537-2.006,21.36-3.439,32.11-4.284c10.761-0.887,21.438-1.154,31.791-1.012c5.171,0.087,10.249,0.304,15.24,0.576
		c4.973,0.309,9.83,0.721,14.572,1.19c9.446,0.995,18.385,2.286,26.58,3.852c8.22,1.541,15.731,3.314,22.424,5.184
		c3.341,0.941,6.452,1.926,9.371,2.899c2.936,0.961,5.633,1.948,8.101,2.929c4.676,1.87,8.579,3.671,11.635,5.317
		c0.214-0.698,0.489-1.374,0.845-2.005C537.719,314.429,534.71,312.506,530.998,310.565z"/>
	<path fill="#FFFFFF" d="M544.31,515.507c-0.451-2.932-1.219-6.299-2.502-10.022c-1.248-3.719-2.926-7.789-5.13-12.102
		c-2.212-4.312-4.911-8.863-8.091-13.541c-0.778-1.171-1.627-2.345-2.466-3.53c-0.881-1.18-1.742-2.372-2.667-3.563
		c-1.82-2.387-3.77-4.789-5.836-7.191c-4.104-4.809-8.709-9.611-13.664-14.301c-2.496-2.339-5.102-4.642-7.769-6.907
		c-2.694-2.256-5.476-4.459-8.348-6.591c-5.736-4.261-11.844-8.229-18.186-11.656c-3.181-1.7-6.391-3.294-9.643-4.68
		c-3.257-1.375-6.517-2.592-9.733-3.573c-3.217-0.973-6.383-1.71-9.395-2.205c-3.019-0.511-5.857-0.684-8.484-0.73
		c-5.244-0.022-9.496,0.805-12.709,1.965c-3.275,1.116-5.552,2.551-7.281,3.793c-0.295,0.217-0.564,0.416-0.837,0.617
		c0.357,0.284,0.649,0.626,0.893,1c0.406-0.19,0.825-0.386,1.273-0.597c2.037-0.935,4.675-1.93,8.018-2.647
		c3.328-0.732,7.473-1.04,12.19-0.719c4.742,0.362,10.108,1.548,15.662,3.496c2.776,1,5.602,2.153,8.431,3.482
		c2.822,1.346,5.653,2.835,8.458,4.449c2.804,1.617,5.566,3.378,8.304,5.209c2.737,1.835,5.391,3.797,8.033,5.791
		c5.237,4.026,10.262,8.318,14.951,12.749c4.716,4.422,9.102,8.978,13.163,13.527c4.022,4.558,7.771,9.102,11.061,13.552
		c3.302,4.448,6.244,8.786,8.76,12.917c2.5,4.131,4.633,8.054,6.34,11.673c1.678,3.617,3.009,6.933,3.984,9.859
		c0.967,2.925,1.589,5.457,2.009,7.534c0.051,0.272,0.092,0.514,0.138,0.77c0.565,0.015,1.068,0.121,1.524,0.287
		c0.01-0.228,0.023-0.441,0.032-0.683C544.835,520.928,544.81,518.448,544.31,515.507z"/>
</g>
<g id="Servers">
	<circle fill="#F2DE1F" cx="235.533" cy="457.458" r="9.701"/>
	<circle fill="#F2DE1F" cx="565.129" cy="379.912" r="8.819"/>
	<circle fill="#F2DE1F" cx="411.641" cy="419.838" r="7.761"/>
	<circle fill="#F2DE1F" cx="544.18" cy="522.206" r="8.819"/>
	<circle fill="#F2DE1F" cx="388.553" cy="211.904" r="10.583"/>
	<circle fill="#F2DE1F" cx="347.082" cy="388.667" r="9.701"/>
	<circle fill="#F2DE1F" cx="400.377" cy="578.39" r="10.142"/>
	<circle fill="#F2DE1F" cx="295.983" cy="501.138" r="10.583"/>
	<circle fill="#F2DE1F" cx="464.571" cy="381.233" r="8.819"/>
	<circle fill="#F2DE1F" cx="539.957" cy="296.39" r="11.641"/>
</g>
<image display="none" overflow="visible" opacity="0.5" width="781" height="787" xlink:href="Feneas-abstract.jpg"  transform="matrix(1 0 0 1 1.4528 -0.5)">
</image>
</svg>
