<?xml version="1.0" encoding="UTF-8" standalone="no"?>
<!-- Created with Inkscape (http://www.inkscape.org/) -->

<svg
   xmlns:dc="http://purl.org/dc/elements/1.1/"
   xmlns:cc="http://creativecommons.org/ns#"
   xmlns:rdf="http://www.w3.org/1999/02/22-rdf-syntax-ns#"
   xmlns:svg="http://www.w3.org/2000/svg"
   xmlns="http://www.w3.org/2000/svg"
   xmlns:sodipodi="http://sodipodi.sourceforge.net/DTD/sodipodi-0.dtd"
   xmlns:inkscape="http://www.inkscape.org/namespaces/inkscape"
   width="120mm"
   height="120mm"
   viewBox="0 0 120 120"
   version="1.1"
   id="svg8"
   inkscape:version="0.92.2 2405546, 2018-03-11"
   sodipodi:docname="logo_with-name.svg">
  <defs
     id="defs2" />
  <sodipodi:namedview
     id="base"
     pagecolor="#ffffff"
     bordercolor="#666666"
     borderopacity="1.0"
     inkscape:pageopacity="0.0"
     inkscape:pageshadow="2"
     inkscape:zoom="2.0000001"
     inkscape:cx="151.77435"
     inkscape:cy="234.36978"
     inkscape:document-units="mm"
     inkscape:current-layer="layer1"
     showgrid="false"
     inkscape:snap-global="false"
     inkscape:window-width="1916"
     inkscape:window-height="1041"
     inkscape:window-x="0"
     inkscape:window-y="37"
     inkscape:window-maximized="0"
     height="148mm" />
  <metadata
     id="metadata5">
    <rdf:RDF>
      <cc:Work
         rdf:about="">
        <dc:format>image/svg+xml</dc:format>
        <dc:type
           rdf:resource="http://purl.org/dc/dcmitype/StillImage" />
        <dc:title />
        <cc:license
           rdf:resource="" />
      </cc:Work>
    </rdf:RDF>
  </metadata>
  <g
     inkscape:label="Layer 1"
     inkscape:groupmode="layer"
     id="layer1"
     transform="translate(0,-177)">
    <path
       style="opacity:0.98999999;fill:#000000;fill-opacity:1;stroke:#000000;stroke-width:0.0430021;stroke-linecap:butt;stroke-linejoin:round;stroke-miterlimit:4;stroke-dasharray:none;stroke-opacity:1;paint-order:normal"
       d="m 85.555215,258.76121 a 1.7200842,1.7200842 0 0 1 -1.553358,-1.87201 1.7200842,1.7200842 0 0 1 1.872013,-1.55337 1.7200842,1.7200842 0 0 1 1.553367,1.87203 1.7200842,1.7200842 0 0 1 -1.872022,1.55335 z"
       id="path829"
       inkscape:connector-curvature="0" />
    <path
       style="opacity:0.98999999;fill:#000000;fill-opacity:1;stroke:#000000;stroke-width:0.0430021;stroke-linecap:butt;stroke-linejoin:round;stroke-miterlimit:4;stroke-dasharray:none;stroke-opacity:1;paint-order:normal"
       d="m 46.63953,231.85378 a 1.7200842,1.7200842 0 0 1 -1.553368,-1.87202 1.7200842,1.7200842 0 0 1 1.872023,-1.55336 1.7200842,1.7200842 0 0 1 1.553357,1.87201 1.7200842,1.7200842 0 0 1 -1.872012,1.55337 z"
       id="path829-1"
       inkscape:connector-curvature="0" />
    <path
       style="opacity:0.98999999;fill:#000000;fill-opacity:1;stroke:#000000;stroke-width:0.0430021;stroke-linecap:butt;stroke-linejoin:round;stroke-miterlimit:4;stroke-dasharray:none;stroke-opacity:1;paint-order:normal"
       d="m 89.144432,206.28497 a 1.7200842,1.7200842 0 0 1 -1.553368,-1.87202 1.7200842,1.7200842 0 0 1 1.872022,-1.55336 1.7200842,1.7200842 0 0 1 1.553358,1.87202 1.7200842,1.7200842 0 0 1 -1.872012,1.55336 z"
       id="path829-8"
       inkscape:connector-curvature="0" />
    <path
       style="opacity:0.98999999;fill:#000000;fill-opacity:1;stroke:#000000;stroke-width:0.05466803;stroke-linecap:butt;stroke-linejoin:round;stroke-miterlimit:4;stroke-dasharray:none;stroke-opacity:1;paint-order:normal"
       d="m 73.607197,243.74356 a 2.1867216,2.1867216 0 0 1 -1.974779,-2.37987 2.1867216,2.1867216 0 0 1 2.37988,-1.97476 2.1867216,2.1867216 0 0 1 1.974768,2.37987 2.1867216,2.1867216 0 0 1 -2.379869,1.97476 z"
       id="path829-7"
       inkscape:connector-curvature="0" />
    <path
       style="opacity:0.98999999;fill:#000000;fill-opacity:1;stroke:#000000;stroke-width:0.08457737;stroke-linecap:butt;stroke-linejoin:round;stroke-miterlimit:4;stroke-dasharray:none;stroke-opacity:1;paint-order:normal"
       d="m 22.370596,277.31593 a 3.3830945,3.3830945 0 0 1 -3.055177,-3.68192 3.3830945,3.3830945 0 0 1 3.681912,-3.05518 3.3830945,3.3830945 0 0 1 3.055189,3.68191 3.3830945,3.3830945 0 0 1 -3.681924,3.05519 z"
       id="path829-9"
       inkscape:connector-curvature="0" />
    <path
       style="opacity:0.98999999;fill:#000000;fill-opacity:1;stroke:#000000;stroke-width:0.03133617;stroke-linecap:butt;stroke-linejoin:round;stroke-miterlimit:4;stroke-dasharray:none;stroke-opacity:1;paint-order:normal"
       d="m 46.605229,211.63392 a 1.2534469,1.2534469 0 0 1 -1.131958,-1.36417 1.2534469,1.2534469 0 0 1 1.364165,-1.13195 1.2534469,1.2534469 0 0 1 1.131958,1.36416 1.2534469,1.2534469 0 0 1 -1.364165,1.13196 z"
       id="path829-2"
       inkscape:connector-curvature="0" />
    <path
       style="opacity:0.98999999;fill:#000000;fill-opacity:1;stroke:#000000;stroke-width:0.07601845;stroke-linecap:butt;stroke-linejoin:round;stroke-miterlimit:4;stroke-dasharray:none;stroke-opacity:1;paint-order:normal"
       d="m 68.12606,219.87704 a 3.0407386,3.0407386 0 0 1 -2.746011,-3.30932 3.0407386,3.0407386 0 0 1 3.309324,-2.74601 3.0407386,3.0407386 0 0 1 2.746011,3.30932 3.0407386,3.0407386 0 0 1 -3.309324,2.74601 z"
       id="path829-0"
       inkscape:connector-curvature="0" />
    <path
       style="opacity:0.98999999;fill:#000000;fill-opacity:1;stroke:#000000;stroke-width:0.02900298;stroke-linecap:butt;stroke-linejoin:round;stroke-miterlimit:4;stroke-dasharray:none;stroke-opacity:1;paint-order:normal"
       d="m 101.26564,243.29259 a 1.1601194,1.1601194 0 0 1 -1.04768,-1.26259 1.1601194,1.1601194 0 0 1 1.2626,-1.04768 1.1601194,1.1601194 0 0 1 1.04767,1.2626 1.1601194,1.1601194 0 0 1 -1.26259,1.04767 z"
       id="path829-23"
       inkscape:connector-curvature="0" />
    <path
       style="opacity:0.98999999;fill:#000000;fill-opacity:1;stroke:#000000;stroke-width:0.0430021;stroke-linecap:butt;stroke-linejoin:round;stroke-miterlimit:4;stroke-dasharray:none;stroke-opacity:1;paint-order:normal"
       d="m 61.587305,284.19834 a 1.7200842,1.7200842 0 0 1 -1.553358,-1.87202 1.7200842,1.7200842 0 0 1 1.872013,-1.55336 1.7200842,1.7200842 0 0 1 1.553357,1.87202 1.7200842,1.7200842 0 0 1 -1.872012,1.55336 z"
       id="path829-75"
       inkscape:connector-curvature="0" />
    <path
       style="opacity:0.98999999;fill:#000000;fill-opacity:1;stroke:#000000;stroke-width:0.06866714;stroke-linecap:butt;stroke-linejoin:round;stroke-miterlimit:4;stroke-dasharray:none;stroke-opacity:1;paint-order:normal"
       d="m 83.633533,276.74616 a 2.7466862,2.7466862 0 0 1 -2.480464,-2.98929 2.7466862,2.7466862 0 0 1 2.989301,-2.48047 2.7466862,2.7466862 0 0 1 2.480452,2.9893 2.7466862,2.7466862 0 0 1 -2.989289,2.48046 z"
       id="path829-92"
       inkscape:connector-curvature="0" />
    <path
       style="opacity:0.98999999;fill:#000000;fill-opacity:1;stroke:#000000;stroke-width:0.07675255;stroke-linecap:butt;stroke-linejoin:round;stroke-miterlimit:4;stroke-dasharray:none;stroke-opacity:1;paint-order:normal"
       d="m 29.771075,244.65045 a 3.2151139,2.9316316 5.314786 0 1 -2.929748,-3.21683 3.2151139,2.9316316 5.314786 0 1 3.472847,-2.62122 3.2151139,2.9316316 5.314786 0 1 2.929738,3.21683 3.2151139,2.9316316 5.314786 0 1 -3.472837,2.62122 z"
       id="path829-28"
       inkscape:connector-curvature="0" />
    <path
       style="opacity:0.98999999;fill:#000000;fill-opacity:1;stroke:#000000;stroke-width:0.0430021;stroke-linecap:butt;stroke-linejoin:round;stroke-miterlimit:4;stroke-dasharray:none;stroke-opacity:1;paint-order:normal"
       d="m 24.241283,216.38055 a 1.7200842,1.7200842 0 0 1 -1.553368,-1.87202 1.7200842,1.7200842 0 0 1 1.872023,-1.55336 1.7200842,1.7200842 0 0 1 1.553357,1.87202 1.7200842,1.7200842 0 0 1 -1.872012,1.55336 z"
       id="path829-97"
       inkscape:connector-curvature="0" />
    <path
       style="opacity:0.98999999;fill:#000000;fill-opacity:1;stroke:#000000;stroke-width:0.0430021;stroke-linecap:butt;stroke-linejoin:round;stroke-miterlimit:4;stroke-dasharray:none;stroke-opacity:1;paint-order:normal"
       d="m 68.930913,193.01632 a 1.7200842,1.7200842 0 0 1 -1.553358,-1.87202 1.7200842,1.7200842 0 0 1 1.872013,-1.55336 1.7200842,1.7200842 0 0 1 1.553368,1.87201 1.7200842,1.7200842 0 0 1 -1.872023,1.55337 z"
       id="path829-3"
       inkscape:connector-curvature="0" />
    <path
       style="opacity:0.98999999;fill:#000000;fill-opacity:1;stroke:#000000;stroke-width:0.05700121;stroke-linecap:butt;stroke-linejoin:round;stroke-miterlimit:4;stroke-dasharray:none;stroke-opacity:1;paint-order:normal"
       d="m 62.528941,259.79418 a 2.2800488,2.2800488 0 0 1 -2.059053,-2.48145 2.2800488,2.2800488 0 0 1 2.481444,-2.05905 2.2800488,2.2800488 0 0 1 2.059042,2.48144 2.2800488,2.2800488 0 0 1 -2.481433,2.05906 z"
       id="path829-6"
       inkscape:connector-curvature="0" />
    <path
       style="fill:none;fill-rule:evenodd;stroke:#000000;stroke-width:1;stroke-linecap:butt;stroke-linejoin:miter;stroke-miterlimit:4;stroke-dasharray:none;stroke-opacity:1"
       d="m 70.528181,192.24752 17.337637,11.38086"
       id="path1076"
       inkscape:export-xdpi="96"
       inkscape:export-ydpi="96"
       inkscape:connector-curvature="0" />
    <path
       style="fill:none;fill-rule:evenodd;stroke:#000000;stroke-width:1;stroke-linecap:butt;stroke-linejoin:miter;stroke-miterlimit:4;stroke-dasharray:none;stroke-opacity:1"
       d="m 71.029415,215.30904 16.791299,-9.86543"
       id="path1078"
       inkscape:export-xdpi="96"
       inkscape:export-ydpi="96"
       inkscape:connector-curvature="0" />
    <path
       style="fill:none;fill-rule:evenodd;stroke:#000000;stroke-width:1;stroke-linecap:butt;stroke-linejoin:miter;stroke-miterlimit:4;stroke-dasharray:none;stroke-opacity:1"
       d="m 69.044305,193.02307 -0.555379,20.7867"
       id="path1080"
       inkscape:export-xdpi="96"
       inkscape:export-ydpi="96"
       inkscape:connector-curvature="0" />
    <path
       style="fill:none;fill-rule:evenodd;stroke:#000000;stroke-width:1;stroke-linecap:butt;stroke-linejoin:miter;stroke-miterlimit:4;stroke-dasharray:none;stroke-opacity:1"
       d="M 67.781641,192.41996 47.674933,209.57237"
       id="path1082"
       inkscape:export-xdpi="96"
       inkscape:export-ydpi="96"
       inkscape:connector-curvature="0" />
    <path
       style="fill:none;fill-rule:evenodd;stroke:#000000;stroke-width:1;stroke-linecap:butt;stroke-linejoin:miter;stroke-miterlimit:4;stroke-dasharray:none;stroke-opacity:1"
       d="m 45.490336,210.62201 -19.400445,3.72178"
       id="path1084"
       inkscape:export-xdpi="96"
       inkscape:export-ydpi="96"
       inkscape:connector-curvature="0" />
    <path
       style="fill:none;fill-rule:evenodd;stroke:#000000;stroke-width:1;stroke-linecap:butt;stroke-linejoin:miter;stroke-miterlimit:4;stroke-dasharray:none;stroke-opacity:1"
       d="m 25.815807,215.64551 19.567844,13.51792"
       id="path1086"
       inkscape:export-xdpi="96"
       inkscape:export-ydpi="96"
       inkscape:connector-curvature="0" />
    <path
       style="fill:none;fill-rule:evenodd;stroke:#000000;stroke-width:1;stroke-linecap:butt;stroke-linejoin:miter;stroke-miterlimit:4;stroke-dasharray:none;stroke-opacity:1"
       d="m 46.726252,211.63928 0.06585,16.78175"
       id="path1088"
       inkscape:export-xdpi="96"
       inkscape:export-ydpi="96"
       inkscape:connector-curvature="0" />
    <path
       style="fill:none;fill-rule:evenodd;stroke:#000000;stroke-width:1;stroke-linecap:butt;stroke-linejoin:miter;stroke-miterlimit:4;stroke-dasharray:none;stroke-opacity:1"
       d="M 65.493667,215.98085 47.922554,210.74388"
       id="path1090"
       inkscape:export-xdpi="96"
       inkscape:export-ydpi="96"
       inkscape:connector-curvature="0" />
    <path
       style="fill:none;fill-rule:evenodd;stroke:#000000;stroke-width:1;stroke-linecap:butt;stroke-linejoin:miter;stroke-miterlimit:4;stroke-dasharray:none;stroke-opacity:1"
       d="M 65.817778,218.44246 48.26393,229.23991"
       id="path1092"
       inkscape:export-xdpi="96"
       inkscape:export-ydpi="96"
       inkscape:connector-curvature="0" />
    <path
       style="fill:none;fill-rule:evenodd;stroke:#000000;stroke-width:1;stroke-linecap:butt;stroke-linejoin:miter;stroke-miterlimit:4;stroke-dasharray:none;stroke-opacity:1"
       d="m 24.751648,216.35172 4.688273,22.48869"
       id="path1094"
       inkscape:export-xdpi="96"
       inkscape:export-ydpi="96"
       inkscape:connector-curvature="0" />
    <path
       style="fill:none;fill-rule:evenodd;stroke:#000000;stroke-width:1;stroke-linecap:butt;stroke-linejoin:miter;stroke-miterlimit:4;stroke-dasharray:none;stroke-opacity:1"
       d="m 29.388859,244.59358 -5.951551,26.0557"
       id="path1098"
       inkscape:export-xdpi="96"
       inkscape:export-ydpi="96"
       inkscape:connector-curvature="0" />
    <path
       style="fill:none;fill-rule:evenodd;stroke:#000000;stroke-width:1;stroke-linecap:butt;stroke-linejoin:miter;stroke-miterlimit:4;stroke-dasharray:none;stroke-opacity:1"
       d="m 62.649462,259.80213 -0.834428,20.96483"
       id="path1104"
       inkscape:export-xdpi="96"
       inkscape:export-ydpi="96"
       inkscape:connector-curvature="0" />
    <path
       style="fill:none;fill-rule:evenodd;stroke:#000000;stroke-width:1;stroke-linecap:butt;stroke-linejoin:miter;stroke-miterlimit:4;stroke-dasharray:none;stroke-opacity:1"
       d="m 25.989028,274.66979 34.077192,7.44856"
       id="path1106"
       inkscape:export-xdpi="96"
       inkscape:export-ydpi="96"
       inkscape:connector-curvature="0" />
    <path
       style="fill:none;fill-rule:evenodd;stroke:#000000;stroke-width:1;stroke-linecap:butt;stroke-linejoin:miter;stroke-miterlimit:4;stroke-dasharray:none;stroke-opacity:1"
       d="m 72.563372,243.36298 -8.52368,12.28754"
       id="path1108"
       inkscape:export-xdpi="96"
       inkscape:export-ydpi="96"
       inkscape:connector-curvature="0" />
    <path
       style="fill:none;fill-rule:evenodd;stroke:#000000;stroke-width:1;stroke-linecap:butt;stroke-linejoin:miter;stroke-miterlimit:4;stroke-dasharray:none;stroke-opacity:1"
       d="M 73.342849,239.42996 69.056958,219.81997"
       id="path1110"
       inkscape:export-xdpi="96"
       inkscape:export-ydpi="96"
       inkscape:connector-curvature="0" />
    <path
       style="fill:none;fill-rule:evenodd;stroke:#000000;stroke-width:1;stroke-linecap:butt;stroke-linejoin:miter;stroke-miterlimit:4;stroke-dasharray:none;stroke-opacity:1"
       d="m 88.639276,206.15881 -13.984793,33.3905"
       id="path1112"
       inkscape:export-xdpi="96"
       inkscape:export-ydpi="96"
       inkscape:connector-curvature="0" />
    <path
       style="fill:none;fill-rule:evenodd;stroke:#000000;stroke-width:1;stroke-linecap:butt;stroke-linejoin:miter;stroke-miterlimit:4;stroke-dasharray:none;stroke-opacity:1"
       d="M 101.01823,241.03295 89.829912,206.20991"
       id="path1114"
       inkscape:export-xdpi="96"
       inkscape:export-ydpi="96"
       inkscape:connector-curvature="0" />
    <path
       style="fill:none;fill-rule:evenodd;stroke:#000000;stroke-width:1;stroke-linecap:butt;stroke-linejoin:miter;stroke-miterlimit:4;stroke-dasharray:none;stroke-opacity:1"
       d="M 100.53298,242.93747 86.960169,255.86236"
       id="path1116"
       inkscape:export-xdpi="96"
       inkscape:export-ydpi="96"
       inkscape:connector-curvature="0" />
    <path
       style="fill:none;fill-rule:evenodd;stroke:#000000;stroke-width:1;stroke-linecap:butt;stroke-linejoin:miter;stroke-miterlimit:4;stroke-dasharray:none;stroke-opacity:1"
       d="m 75.142678,243.29974 9.523372,12.38521"
       id="path1118"
       inkscape:export-xdpi="96"
       inkscape:export-ydpi="96"
       inkscape:connector-curvature="0" />
    <path
       style="fill:none;fill-rule:evenodd;stroke:#000000;stroke-width:1;stroke-linecap:butt;stroke-linejoin:miter;stroke-miterlimit:4;stroke-dasharray:none;stroke-opacity:1"
       d="M 100.81514,243.15457 85.208967,271.60319"
       id="path1120"
       inkscape:export-xdpi="96"
       inkscape:export-ydpi="96"
       inkscape:connector-curvature="0" />
    <path
       style="fill:none;fill-rule:evenodd;stroke:#000000;stroke-width:1;stroke-linecap:butt;stroke-linejoin:miter;stroke-miterlimit:4;stroke-dasharray:none;stroke-opacity:1"
       d="m 85.530391,258.7587 -1.348372,12.52171"
       id="path1122"
       inkscape:export-xdpi="96"
       inkscape:export-ydpi="96"
       inkscape:connector-curvature="0" />
    <path
       style="fill:none;fill-rule:evenodd;stroke:#000000;stroke-width:1;stroke-linecap:butt;stroke-linejoin:miter;stroke-miterlimit:4;stroke-dasharray:none;stroke-opacity:1"
       d="m 63.35305,281.87081 17.969721,-6.87773"
       id="path1124"
       inkscape:export-xdpi="96"
       inkscape:export-ydpi="96"
       inkscape:connector-curvature="0" />
    <path
       style="fill:none;fill-rule:evenodd;stroke:#000000;stroke-width:1;stroke-linecap:butt;stroke-linejoin:miter;stroke-miterlimit:4;stroke-dasharray:none;stroke-opacity:1"
       d="m 64.538245,258.92579 17.183579,13.39673"
       id="path1126"
       inkscape:export-xdpi="96"
       inkscape:export-ydpi="96"
       inkscape:connector-curvature="0" />
    <path
       style="fill:none;fill-rule:evenodd;stroke:#000000;stroke-width:1;stroke-linecap:butt;stroke-linejoin:miter;stroke-miterlimit:4;stroke-dasharray:none;stroke-opacity:1"
       d="m 60.630548,258.38888 -34.816429,14.2751"
       id="path1128"
       inkscape:export-xdpi="96"
       inkscape:export-ydpi="96"
       inkscape:connector-curvature="0" />
    <path
       style="fill:none;fill-rule:evenodd;stroke:#000000;stroke-width:1;stroke-linecap:butt;stroke-linejoin:miter;stroke-miterlimit:4;stroke-dasharray:none;stroke-opacity:1"
       d="M 100.21324,242.11342 75.995979,241.61156"
       id="path1132"
       inkscape:export-xdpi="96"
       inkscape:export-ydpi="96"
       inkscape:connector-curvature="0" />
    <path
       style="fill:none;fill-rule:evenodd;stroke:#000000;stroke-width:1;stroke-linecap:butt;stroke-linejoin:miter;stroke-miterlimit:4;stroke-dasharray:none;stroke-opacity:1"
       d="m 83.994853,257.08411 -18.975188,0.39265"
       id="path1134"
       inkscape:export-xdpi="96"
       inkscape:export-ydpi="96"
       inkscape:connector-curvature="0" />
    <path
       style="opacity:1;fill:none;fill-rule:evenodd;stroke:#000000;stroke-width:1;stroke-linecap:butt;stroke-linejoin:miter;stroke-miterlimit:4;stroke-dasharray:none;stroke-opacity:1"
       d="m 71.623052,241.5745 -38.368425,0.1448"
       id="path951"
       inkscape:export-xdpi="96"
       inkscape:export-ydpi="96"
       inkscape:connector-curvature="0" />
    <path
       style="fill:none;fill-rule:evenodd;stroke:#000000;stroke-width:1;stroke-linecap:butt;stroke-linejoin:miter;stroke-miterlimit:4;stroke-dasharray:none;stroke-opacity:1"
       d="m 31.918249,244.14247 28.772246,36.98556"
       id="path934"
       inkscape:connector-curvature="0" />
    <g
       aria-label="feneas.org"
       transform="rotate(-84.685214,177.87308,182.56958)"
       style="font-style:normal;font-variant:normal;font-weight:normal;font-stretch:normal;font-size:10.58333302px;line-height:1.25;font-family:sans-serif;-inkscape-font-specification:'sans-serif, Normal';font-variant-ligatures:normal;font-variant-caps:normal;font-variant-numeric:normal;text-align:start;letter-spacing:0px;word-spacing:0px;writing-mode:lr-tb;text-anchor:start;fill:#000000;fill-opacity:1;stroke:none;stroke-width:0.26458332"
       id="text938">
      <path
         d="m 113.42746,46.415479 -0.52464,0.0508 -0.0584,-0.603514 q -0.0329,-0.339476 -0.18299,-0.459927 -0.14978,-0.117022 -0.5064,-0.08249 l -0.33948,0.03287 0.10062,1.039004 -0.49036,0.04748 -0.10061,-1.039003 -3.35019,0.324416 -0.0614,-0.634375 3.35019,-0.324417 -0.0584,-0.603514 0.49035,-0.04748 0.0584,0.603514 0.26747,-0.0259 q 0.64123,-0.06209 0.96159,0.208009 0.32379,0.269772 0.38655,0.917863 z"
         style="font-size:7.05555534px"
         id="path1263"
         inkscape:connector-curvature="0" />
      <path
         d="m 110.53877,50.540613 -0.30862,0.02988 -0.28091,-2.900981 q -0.64754,0.104239 -0.95658,0.487208 -0.30527,0.386067 -0.2445,1.013584 0.0352,0.36348 0.15722,0.694323 0.12236,0.334272 0.33322,0.653052 l -0.59666,0.05778 q -0.17689,-0.32553 -0.28687,-0.674847 -0.10997,-0.349317 -0.1455,-0.716225 -0.089,-0.918987 0.39381,-1.50915 0.48313,-0.586733 1.39526,-0.675059 0.94299,-0.09132 1.54421,0.362725 0.60499,0.457136 0.68866,1.321258 0.0751,0.774967 -0.38209,1.272653 -0.45339,0.500783 -1.31065,0.583797 z m 0.12407,-0.648878 q 0.51712,-0.057 0.79818,-0.371494 0.28138,-0.311068 0.23623,-0.777419 -0.0511,-0.528075 -0.38035,-0.818088 -0.32888,-0.286585 -0.87532,-0.282127 z"
         style="font-size:7.05555534px"
         id="path1265"
         inkscape:connector-curvature="0" />
      <path
         d="m 111.18823,54.745394 -2.31805,0.224469 -0.0611,-0.630946 2.29746,-0.222477 q 0.54522,-0.0528 0.79553,-0.29163 0.25031,-0.238834 0.20914,-0.664037 -0.0495,-0.510929 -0.4038,-0.774282 -0.35431,-0.263354 -0.91668,-0.208897 l -2.17059,0.21019 -0.0614,-0.634375 3.84054,-0.371901 0.0614,0.634375 -0.59666,0.05778 q 0.36825,0.19278 0.56926,0.481363 0.20134,0.292013 0.24019,0.693212 0.0641,0.661808 -0.31453,1.041131 -0.37518,0.378991 -1.17072,0.456027 z"
         style="font-size:7.05555534px"
         id="path1267"
         inkscape:connector-curvature="0" />
      <path
         d="m 111.38883,59.318994 -0.30862,0.02988 -0.28091,-2.900981 q -0.64754,0.104239 -0.95658,0.487208 -0.30527,0.386066 -0.2445,1.013583 0.0352,0.36348 0.15722,0.694323 0.12236,0.334272 0.33321,0.653053 l -0.59665,0.05778 q -0.17689,-0.32553 -0.28687,-0.674847 -0.10997,-0.349316 -0.1455,-0.716225 -0.089,-0.918987 0.39381,-1.509149 0.48313,-0.586733 1.39526,-0.67506 0.94299,-0.09132 1.54421,0.362725 0.60499,0.457136 0.68866,1.321258 0.0751,0.774967 -0.3821,1.272653 -0.45338,0.500783 -1.31064,0.583797 z m 0.12407,-0.648877 q 0.51712,-0.057 0.79818,-0.371495 0.28138,-0.311067 0.23623,-0.777419 -0.0511,-0.528075 -0.38035,-0.818088 -0.32888,-0.286584 -0.87532,-0.282127 z"
         style="font-size:7.05555534px"
         id="path1269"
         inkscape:connector-curvature="0" />
      <path
         d="m 111.51068,62.114236 q -0.074,-0.764679 -0.27749,-1.042643 -0.20344,-0.277964 -0.62521,-0.237121 -0.33605,0.03254 -0.51368,0.27126 -0.17388,0.241815 -0.13702,0.62244 0.0508,0.524646 0.45169,0.804257 0.40465,0.282708 1.02188,0.222939 l 0.14059,-0.01361 z m 0.38247,1.233228 -2.19117,0.212182 -0.0611,-0.630946 0.58294,-0.05645 q -0.37068,-0.182161 -0.56992,-0.488222 -0.1958,-0.306392 -0.24096,-0.772744 -0.0571,-0.589798 0.2382,-0.971438 0.29908,-0.378544 0.85459,-0.432337 0.64809,-0.06276 1.01912,0.337426 0.37136,0.403612 0.45471,1.264305 l 0.0857,0.884697 0.0617,-0.006 q 0.43549,-0.04217 0.6442,-0.353124 0.21247,-0.307855 0.16233,-0.825642 -0.0319,-0.32919 -0.14096,-0.633596 -0.10908,-0.304407 -0.29471,-0.577173 l 0.58294,-0.05645 q 0.16727,0.333385 0.26396,0.652836 0.10013,0.319119 0.13002,0.627734 0.0807,0.833261 -0.31153,1.286586 -0.39221,0.453326 -1.27005,0.538332 z"
         style="font-size:7.05555534px"
         id="path1271"
         inkscape:connector-curvature="0" />
      <path
         d="m 113.79263,66.950093 -0.59665,0.05778 q 0.11126,-0.280748 0.15195,-0.57543 0.0407,-0.294682 0.0108,-0.603297 -0.0455,-0.469781 -0.21242,-0.692439 -0.1666,-0.21923 -0.45464,-0.191337 -0.21946,0.02125 -0.33007,0.201561 -0.10717,0.179978 -0.17119,0.698436 l -0.0271,0.220679 q -0.0789,0.686041 -0.31575,0.992792 -0.23305,0.309848 -0.70283,0.355339 -0.53493,0.0518 -0.88815,-0.343186 -0.35289,-0.391556 -0.42461,-1.132232 -0.0299,-0.308615 -7e-4,-0.65064 0.0261,-0.338263 0.11024,-0.720223 l 0.65152,-0.06309 q -0.14787,0.367362 -0.20759,0.715804 -0.0563,0.34811 -0.0241,0.680728 0.0432,0.445778 0.21729,0.671201 0.17755,0.225092 0.45531,0.198195 0.25717,-0.0249 0.3774,-0.213068 0.12056,-0.184735 0.19066,-0.783389 l 0.0302,-0.224441 q 0.0667,-0.598322 0.29518,-0.883502 0.23194,-0.285513 0.67772,-0.32868 0.54179,-0.05246 0.87388,0.303033 0.33209,0.355498 0.40049,1.061883 0.0339,0.349764 0.0123,0.66336 -0.0215,0.313596 -0.0992,0.584166 z"
         style="font-size:7.05555534px"
         id="path1273"
         inkscape:connector-curvature="0" />
      <path
         d="m 111.06241,68.529735 0.0701,0.723531 -0.87098,0.08434 -0.0701,-0.72353 z"
         style="font-size:7.05555534px"
         id="path1275"
         inkscape:connector-curvature="0" />
      <path
         d="m 113.9416,71.919806 q -0.0491,-0.5075 -0.47547,-0.76388 -0.4229,-0.256713 -1.11214,-0.18997 -0.68924,0.06674 -1.05879,0.396731 -0.36578,0.333085 -0.31631,0.844014 0.0488,0.504071 0.47514,0.760452 0.42633,0.25638 1.11214,0.189969 0.68238,-0.06608 1.0516,-0.399495 0.37264,-0.33375 0.32383,-0.837821 z m 0.53493,-0.0518 q 0.0797,0.822973 -0.40975,1.344554 -0.48944,0.521581 -1.43586,0.613228 -0.94299,0.09131 -1.52684,-0.326333 -0.58043,-0.41798 -0.66012,-1.240954 -0.08,-0.826402 0.40942,-1.347983 0.4932,-0.518484 1.43619,-0.609799 0.94642,-0.09165 1.52651,0.322904 0.58042,0.41798 0.66045,1.244383 z"
         style="font-size:7.05555534px"
         id="path1277"
         inkscape:connector-curvature="0" />
      <path
         d="m 114.28127,76.964506 q 0.0514,-0.112277 0.0666,-0.241809 0.0189,-0.126434 0.004,-0.277313 -0.0518,-0.534932 -0.42946,-0.789104 -0.3739,-0.251074 -1.02542,-0.187983 l -2.02314,0.195911 -0.0614,-0.634375 3.84054,-0.3719 0.0614,0.634375 -0.59665,0.05778 q 0.36902,0.165016 0.56792,0.467647 0.20234,0.3023 0.2465,0.758364 0.006,0.06515 0.004,0.145017 7.8e-4,0.07953 -0.007,0.177206 z"
         style="font-size:7.05555534px"
         id="path1279"
         inkscape:connector-curvature="0" />
      <path
         d="m 113.2929,80.161467 q 0.68581,-0.06641 1.03545,-0.387549 0.34996,-0.317708 0.30049,-0.828637 -0.0491,-0.507501 -0.4539,-0.755586 -0.40443,-0.244657 -1.09024,-0.178246 -0.68238,0.06608 -1.03235,0.383787 -0.34963,0.321138 -0.30049,0.828638 0.0495,0.510929 0.4539,0.755586 0.40476,0.248086 1.08714,0.182007 z m -1.42711,0.775058 q -0.98071,0.09497 -1.49952,-0.294368 -0.52224,-0.389002 -0.60924,-1.287415 -0.0322,-0.332618 -0.009,-0.632498 0.0195,-0.299547 0.0954,-0.587262 l 0.6138,-0.05944 q -0.12398,0.292364 -0.16976,0.570232 -0.0458,0.277869 -0.0186,0.559052 0.0601,0.620659 0.41575,0.897728 0.35221,0.277402 1.00716,0.21398 l 0.31205,-0.03022 q -0.35841,-0.162583 -0.55598,-0.451498 -0.19758,-0.288915 -0.23876,-0.714118 -0.0684,-0.706386 0.42812,-1.190579 0.49653,-0.484194 1.38465,-0.570196 0.89156,-0.08633 1.47176,0.293595 0.5802,0.379928 0.6486,1.086314 0.0412,0.425203 -0.0973,0.746659 -0.13847,0.321457 -0.45902,0.549786 l 0.58294,-0.05645 0.0611,0.630946 z"
         style="font-size:7.05555534px"
         id="path1281"
         inkscape:connector-curvature="0" />
    </g>
    <path
       style="fill:none;fill-rule:evenodd;stroke:#000000;stroke-width:1;stroke-linecap:butt;stroke-linejoin:miter;stroke-miterlimit:4;stroke-dasharray:none;stroke-opacity:1"
       d="M 24.306388,270.97874 40.415104,241.50365"
       id="path1214"
       inkscape:connector-type="polyline"
       inkscape:connector-curvature="0"
       inkscape:connection-start="#path829-9" />
    <path
       style="fill:none;fill-rule:evenodd;stroke:#000000;stroke-width:1;stroke-linecap:butt;stroke-linejoin:miter;stroke-opacity:1;stroke-miterlimit:4;stroke-dasharray:none"
       d="M 61.595975,255.55179 53.44583,241.50365"
       id="path2035"
       inkscape:connector-type="polyline"
       inkscape:connector-curvature="0"
       inkscape:connection-start="#path829-6" />
  </g>
</svg>
