<?xml version="1.0" encoding="UTF-8" standalone="no"?>
<!-- Created with Inkscape (http://www.inkscape.org/) -->

<svg
   xmlns:dc="http://purl.org/dc/elements/1.1/"
   xmlns:cc="http://creativecommons.org/ns#"
   xmlns:rdf="http://www.w3.org/1999/02/22-rdf-syntax-ns#"
   xmlns:svg="http://www.w3.org/2000/svg"
   xmlns="http://www.w3.org/2000/svg"
   xmlns:sodipodi="http://sodipodi.sourceforge.net/DTD/sodipodi-0.dtd"
   xmlns:inkscape="http://www.inkscape.org/namespaces/inkscape"
   width="120mm"
   height="120mm"
   viewBox="0 0 120 120"
   version="1.1"
   id="svg8"
   inkscape:version="0.92.2 2405546, 2018-03-11"
   sodipodi:docname="logo_with-name+subline.svg">
  <defs
     id="defs2" />
  <sodipodi:namedview
     id="base"
     pagecolor="#ffffff"
     bordercolor="#666666"
     borderopacity="1.0"
     inkscape:pageopacity="0.0"
     inkscape:pageshadow="2"
     inkscape:zoom="1.4142136"
     inkscape:cx="170.35732"
     inkscape:cy="195.99415"
     inkscape:document-units="mm"
     inkscape:current-layer="layer1"
     showgrid="false"
     inkscape:snap-global="false"
     inkscape:window-width="956"
     inkscape:window-height="1041"
     inkscape:window-x="960"
     inkscape:window-y="37"
     inkscape:window-maximized="0"
     height="148mm" />
  <metadata
     id="metadata5">
    <rdf:RDF>
      <cc:Work
         rdf:about="">
        <dc:format>image/svg+xml</dc:format>
        <dc:type
           rdf:resource="http://purl.org/dc/dcmitype/StillImage" />
        <dc:title></dc:title>
        <cc:license
           rdf:resource="" />
      </cc:Work>
    </rdf:RDF>
  </metadata>
  <g
     inkscape:label="Layer 1"
     inkscape:groupmode="layer"
     id="layer1"
     transform="translate(0,-177)">
    <g
       id="g1102"
       transform="rotate(95.314786,60.231298,238.54774)">
      <path
         inkscape:connector-curvature="0"
         id="path829"
         d="m 78.012178,211.46037 a 1.7200842,1.7200842 0 0 1 -1.72008,1.72008 1.7200842,1.7200842 0 0 1 -1.72009,-1.72008 1.7200842,1.7200842 0 0 1 1.72009,-1.72009 1.7200842,1.7200842 0 0 1 1.72008,1.72009 z"
         style="opacity:0.98999999;fill:#000000;fill-opacity:1;stroke:#000000;stroke-width:0.0430021;stroke-linecap:butt;stroke-linejoin:round;stroke-miterlimit:4;stroke-dasharray:none;stroke-opacity:1;paint-order:normal" />
      <path
         inkscape:connector-curvature="0"
         id="path829-1"
         d="m 54.825088,252.70112 a 1.7200842,1.7200842 0 0 1 -1.720089,1.72009 1.7200842,1.7200842 0 0 1 -1.720084,-1.72009 1.7200842,1.7200842 0 0 1 1.720084,-1.72008 1.7200842,1.7200842 0 0 1 1.720089,1.72008 z"
         style="opacity:0.98999999;fill:#000000;fill-opacity:1;stroke:#000000;stroke-width:0.0430021;stroke-linecap:butt;stroke-linejoin:round;stroke-miterlimit:4;stroke-dasharray:none;stroke-opacity:1;paint-order:normal" />
      <path
         inkscape:connector-curvature="0"
         id="path829-8"
         d="m 25.42908,212.74733 a 1.7200842,1.7200842 0 0 1 -1.720085,1.72009 1.7200842,1.7200842 0 0 1 -1.720084,-1.72009 1.7200842,1.7200842 0 0 1 1.720084,-1.72008 1.7200842,1.7200842 0 0 1 1.720085,1.72008 z"
         style="opacity:0.98999999;fill:#000000;fill-opacity:1;stroke:#000000;stroke-width:0.0430021;stroke-linecap:butt;stroke-linejoin:round;stroke-miterlimit:4;stroke-dasharray:none;stroke-opacity:1;paint-order:normal" />
      <path
         inkscape:connector-curvature="0"
         id="path829-7"
         d="m 64.165808,224.74807 a 2.1867216,2.1867216 0 0 1 -2.18672,2.18673 2.1867216,2.1867216 0 0 1 -2.18672,-2.18673 2.1867216,2.1867216 0 0 1 2.18672,-2.18672 2.1867216,2.1867216 0 0 1 2.18672,2.18672 z"
         style="opacity:0.98999999;fill:#000000;fill-opacity:1;stroke:#000000;stroke-width:0.05466803;stroke-linecap:butt;stroke-linejoin:round;stroke-miterlimit:4;stroke-dasharray:none;stroke-opacity:1;paint-order:normal" />
      <path
         inkscape:connector-curvature="0"
         id="path829-9"
         d="m 102.33976,272.65467 a 3.3830945,3.3830945 0 0 1 -3.383098,3.38309 3.3830945,3.3830945 0 0 1 -3.38309,-3.38309 3.3830945,3.3830945 0 0 1 3.38309,-3.3831 3.3830945,3.3830945 0 0 1 3.383098,3.3831 z"
         style="opacity:0.98999999;fill:#000000;fill-opacity:1;stroke:#000000;stroke-width:0.08457737;stroke-linecap:butt;stroke-linejoin:round;stroke-miterlimit:4;stroke-dasharray:none;stroke-opacity:1;paint-order:normal" />
      <path
         inkscape:connector-curvature="0"
         id="path829-2"
         d="m 34.69533,254.60819 a 1.2534469,1.2534469 0 0 1 -1.253447,1.25345 1.2534469,1.2534469 0 0 1 -1.253447,-1.25345 1.2534469,1.2534469 0 0 1 1.253447,-1.25345 1.2534469,1.2534469 0 0 1 1.253447,1.25345 z"
         style="opacity:0.98999999;fill:#000000;fill-opacity:1;stroke:#000000;stroke-width:0.03133617;stroke-linecap:butt;stroke-linejoin:round;stroke-miterlimit:4;stroke-dasharray:none;stroke-opacity:1;paint-order:normal" />
      <path
         inkscape:connector-curvature="0"
         id="path829-0"
         d="m 40.909593,232.41634 a 3.0407386,3.0407386 0 0 1 -3.040739,3.04074 3.0407386,3.0407386 0 0 1 -3.040739,-3.04074 3.0407386,3.0407386 0 0 1 3.040739,-3.04074 3.0407386,3.0407386 0 0 1 3.040739,3.04074 z"
         style="opacity:0.98999999;fill:#000000;fill-opacity:1;stroke:#000000;stroke-width:0.07601845;stroke-linecap:butt;stroke-linejoin:round;stroke-miterlimit:4;stroke-dasharray:none;stroke-opacity:1;paint-order:normal" />
      <path
         inkscape:connector-curvature="0"
         id="path829-23"
         d="m 61.154838,197.25031 a 1.1601194,1.1601194 0 0 1 -1.16012,1.16012 1.1601194,1.1601194 0 0 1 -1.16012,-1.16012 1.1601194,1.1601194 0 0 1 1.16012,-1.16012 1.1601194,1.1601194 0 0 1 1.16012,1.16012 z"
         style="opacity:0.98999999;fill:#000000;fill-opacity:1;stroke:#000000;stroke-width:0.02900298;stroke-linecap:butt;stroke-linejoin:round;stroke-miterlimit:4;stroke-dasharray:none;stroke-opacity:1;paint-order:normal" />
      <path
         inkscape:connector-curvature="0"
         id="path829-75"
         d="m 105.56003,232.96906 a 1.7200842,1.7200842 0 0 1 -1.72008,1.72008 1.7200842,1.7200842 0 0 1 -1.72009,-1.72008 1.7200842,1.7200842 0 0 1 1.72009,-1.72008 1.7200842,1.7200842 0 0 1 1.72008,1.72008 z"
         style="opacity:0.98999999;fill:#000000;fill-opacity:1;stroke:#000000;stroke-width:0.0430021;stroke-linecap:butt;stroke-linejoin:round;stroke-miterlimit:4;stroke-dasharray:none;stroke-opacity:1;paint-order:normal" />
      <path
         inkscape:connector-curvature="0"
         id="path829-92"
         d="m 96.097802,211.70789 a 2.7466862,2.7466862 0 0 1 -2.74668,2.74669 2.7466862,2.7466862 0 0 1 -2.74669,-2.74669 2.7466862,2.7466862 0 0 1 2.74669,-2.74668 2.7466862,2.7466862 0 0 1 2.74668,2.74668 z"
         style="opacity:0.98999999;fill:#000000;fill-opacity:1;stroke:#000000;stroke-width:0.06866714;stroke-linecap:butt;stroke-linejoin:round;stroke-miterlimit:4;stroke-dasharray:none;stroke-opacity:1;paint-order:normal" />
      <path
         inkscape:connector-curvature="0"
         id="path829-28"
         d="m 69.129228,268.31173 a 2.9316316,3.2151139 0 0 1 -2.93163,3.21512 2.9316316,3.2151139 0 0 1 -2.93163,-3.21512 2.9316316,3.2151139 0 0 1 2.93163,-3.21511 2.9316316,3.2151139 0 0 1 2.93163,3.21511 z"
         style="opacity:0.98999999;fill:#000000;fill-opacity:1;stroke:#000000;stroke-width:0.07675255;stroke-linecap:butt;stroke-linejoin:round;stroke-miterlimit:4;stroke-dasharray:none;stroke-opacity:1;paint-order:normal" />
      <path
         inkscape:connector-curvature="0"
         id="path829-97"
         d="m 41.493075,276.43632 a 1.7200842,1.7200842 0 0 1 -1.720084,1.72009 1.7200842,1.7200842 0 0 1 -1.720085,-1.72009 1.7200842,1.7200842 0 0 1 1.720085,-1.72008 1.7200842,1.7200842 0 0 1 1.720084,1.72008 z"
         style="opacity:0.98999999;fill:#000000;fill-opacity:1;stroke:#000000;stroke-width:0.0430021;stroke-linecap:butt;stroke-linejoin:round;stroke-miterlimit:4;stroke-dasharray:none;stroke-opacity:1;paint-order:normal" />
      <path
         inkscape:connector-curvature="0"
         id="path829-3"
         d="m 14.089797,234.10299 a 1.7200842,1.7200842 0 0 1 -1.720085,1.72008 1.7200842,1.7200842 0 0 1 -1.720084,-1.72008 1.7200842,1.7200842 0 0 1 1.720084,-1.72009 1.7200842,1.7200842 0 0 1 1.720085,1.72009 z"
         style="opacity:0.98999999;fill:#000000;fill-opacity:1;stroke:#000000;stroke-width:0.0430021;stroke-linecap:butt;stroke-linejoin:round;stroke-miterlimit:4;stroke-dasharray:none;stroke-opacity:1;paint-order:normal" />
      <path
         inkscape:connector-curvature="0"
         id="path829-6"
         d="m 81.173568,234.29197 a 2.2800488,2.2800488 0 0 1 -2.28005,2.28005 2.2800488,2.2800488 0 0 1 -2.28005,-2.28005 2.2800488,2.2800488 0 0 1 2.28005,-2.28004 2.2800488,2.2800488 0 0 1 2.28005,2.28004 z"
         style="opacity:0.98999999;fill:#000000;fill-opacity:1;stroke:#000000;stroke-width:0.05700121;stroke-linecap:butt;stroke-linejoin:round;stroke-miterlimit:4;stroke-dasharray:none;stroke-opacity:1;paint-order:normal" />
      <path
         inkscape:connector-curvature="0"
         inkscape:export-ydpi="96"
         inkscape:export-xdpi="96"
         id="path1076"
         d="m 13.17636,232.5838 9.725987,-18.31728"
         style="fill:none;fill-rule:evenodd;stroke:#000000;stroke-width:1;stroke-linecap:butt;stroke-linejoin:miter;stroke-miterlimit:4;stroke-dasharray:none;stroke-opacity:1" />
      <path
         inkscape:connector-curvature="0"
         inkscape:export-ydpi="96"
         inkscape:export-xdpi="96"
         id="path1078"
         d="M 36.092304,229.94859 24.713953,214.14329"
         style="fill:none;fill-rule:evenodd;stroke:#000000;stroke-width:1;stroke-linecap:butt;stroke-linejoin:miter;stroke-miterlimit:4;stroke-dasharray:none;stroke-opacity:1" />
      <path
         inkscape:connector-curvature="0"
         inkscape:export-ydpi="96"
         inkscape:export-xdpi="96"
         id="path1080"
         d="M 14.086015,233.98946 34.8348,232.61703"
         style="fill:none;fill-rule:evenodd;stroke:#000000;stroke-width:1;stroke-linecap:butt;stroke-linejoin:miter;stroke-miterlimit:4;stroke-dasharray:none;stroke-opacity:1" />
      <path
         inkscape:connector-curvature="0"
         inkscape:export-ydpi="96"
         inkscape:export-xdpi="96"
         id="path1082"
         d="m 13.602458,235.30256 18.941108,18.43148"
         style="fill:none;fill-rule:evenodd;stroke:#000000;stroke-width:1;stroke-linecap:butt;stroke-linejoin:miter;stroke-miterlimit:4;stroke-dasharray:none;stroke-opacity:1" />
      <path
         inkscape:connector-curvature="0"
         inkscape:export-ydpi="96"
         inkscape:export-xdpi="96"
         id="path1084"
         d="m 33.791046,255.81202 5.502793,18.9723"
         style="fill:none;fill-rule:evenodd;stroke:#000000;stroke-width:1;stroke-linecap:butt;stroke-linejoin:miter;stroke-miterlimit:4;stroke-dasharray:none;stroke-opacity:1" />
      <path
         inkscape:connector-curvature="0"
         inkscape:export-ydpi="96"
         inkscape:export-xdpi="96"
         id="path1086"
         d="M 40.615354,274.93665 52.262636,254.2008"
         style="fill:none;fill-rule:evenodd;stroke:#000000;stroke-width:1;stroke-linecap:butt;stroke-linejoin:miter;stroke-miterlimit:4;stroke-dasharray:none;stroke-opacity:1" />
      <path
         inkscape:connector-curvature="0"
         inkscape:export-ydpi="96"
         inkscape:export-xdpi="96"
         id="path1088"
         d="m 34.689466,254.48719 16.703496,-1.62002"
         style="fill:none;fill-rule:evenodd;stroke:#000000;stroke-width:1;stroke-linecap:butt;stroke-linejoin:miter;stroke-miterlimit:4;stroke-dasharray:none;stroke-opacity:1" />
      <path
         inkscape:connector-curvature="0"
         inkscape:export-ydpi="96"
         inkscape:export-xdpi="96"
         id="path1090"
         d="m 37.273991,235.39831 -3.586895,17.98066"
         style="fill:none;fill-rule:evenodd;stroke:#000000;stroke-width:1;stroke-linecap:butt;stroke-linejoin:miter;stroke-miterlimit:4;stroke-dasharray:none;stroke-opacity:1" />
      <path
         inkscape:connector-curvature="0"
         inkscape:export-ydpi="96"
         inkscape:export-xdpi="96"
         id="path1092"
         d="m 39.694993,234.84758 12.376996,16.47824"
         style="fill:none;fill-rule:evenodd;stroke:#000000;stroke-width:1;stroke-linecap:butt;stroke-linejoin:miter;stroke-miterlimit:4;stroke-dasharray:none;stroke-opacity:1" />
      <path
         inkscape:connector-curvature="0"
         inkscape:export-ydpi="96"
         inkscape:export-xdpi="96"
         id="path1094"
         d="m 41.417091,275.93082 21.957747,-6.75119"
         style="fill:none;fill-rule:evenodd;stroke:#000000;stroke-width:1;stroke-linecap:butt;stroke-linejoin:miter;stroke-miterlimit:4;stroke-dasharray:none;stroke-opacity:1" />
      <path
         inkscape:connector-curvature="0"
         inkscape:export-ydpi="96"
         inkscape:export-xdpi="96"
         id="path1098"
         d="m 69.108008,268.69757 26.494954,3.51249"
         style="fill:none;fill-rule:evenodd;stroke:#000000;stroke-width:1;stroke-linecap:butt;stroke-linejoin:miter;stroke-miterlimit:4;stroke-dasharray:none;stroke-opacity:1" />
      <path
         inkscape:connector-curvature="0"
         inkscape:export-ydpi="96"
         inkscape:export-xdpi="96"
         id="path1104"
         d="m 81.170328,234.17123 20.951982,-1.11108"
         style="fill:none;fill-rule:evenodd;stroke:#000000;stroke-width:1;stroke-linecap:butt;stroke-linejoin:miter;stroke-miterlimit:4;stroke-dasharray:none;stroke-opacity:1" />
      <path
         inkscape:connector-curvature="0"
         inkscape:export-ydpi="96"
         inkscape:export-xdpi="96"
         id="path1106"
         d="m 99.369832,269.2969 4.260048,-34.62063"
         style="fill:none;fill-rule:evenodd;stroke:#000000;stroke-width:1;stroke-linecap:butt;stroke-linejoin:miter;stroke-miterlimit:4;stroke-dasharray:none;stroke-opacity:1" />
      <path
         inkscape:connector-curvature="0"
         inkscape:export-ydpi="96"
         inkscape:export-xdpi="96"
         id="path1108"
         d="m 63.883548,225.82266 13.02424,7.34887"
         style="fill:none;fill-rule:evenodd;stroke:#000000;stroke-width:1;stroke-linecap:butt;stroke-linejoin:miter;stroke-miterlimit:4;stroke-dasharray:none;stroke-opacity:1" />
      <path
         inkscape:connector-curvature="0"
         inkscape:export-ydpi="96"
         inkscape:export-xdpi="96"
         id="path1110"
         d="m 59.895238,225.41084 -19.128694,6.08389"
         style="fill:none;fill-rule:evenodd;stroke:#000000;stroke-width:1;stroke-linecap:butt;stroke-linejoin:miter;stroke-miterlimit:4;stroke-dasharray:none;stroke-opacity:1" />
      <path
         inkscape:connector-curvature="0"
         inkscape:export-ydpi="96"
         inkscape:export-xdpi="96"
         id="path1112"
         d="m 25.350253,213.262 34.542325,10.83179"
         style="fill:none;fill-rule:evenodd;stroke:#000000;stroke-width:1;stroke-linecap:butt;stroke-linejoin:miter;stroke-miterlimit:4;stroke-dasharray:none;stroke-opacity:1" />
      <path
         inkscape:connector-curvature="0"
         inkscape:export-ydpi="96"
         inkscape:export-xdpi="96"
         id="path1114"
         d="M 58.927828,197.70596 25.290842,212.07175"
         style="fill:none;fill-rule:evenodd;stroke:#000000;stroke-width:1;stroke-linecap:butt;stroke-linejoin:miter;stroke-miterlimit:4;stroke-dasharray:none;stroke-opacity:1" />
      <path
         inkscape:connector-curvature="0"
         inkscape:export-ydpi="96"
         inkscape:export-xdpi="96"
         id="path1116"
         d="m 60.869108,198.01271 14.12654,12.31726"
         style="fill:none;fill-rule:evenodd;stroke:#000000;stroke-width:1;stroke-linecap:butt;stroke-linejoin:miter;stroke-miterlimit:4;stroke-dasharray:none;stroke-opacity:1" />
      <path
         inkscape:connector-curvature="0"
         inkscape:export-ydpi="96"
         inkscape:export-xdpi="96"
         id="path1118"
         d="m 63.581668,223.2603 11.44983,-10.62964"
         style="fill:none;fill-rule:evenodd;stroke:#000000;stroke-width:1;stroke-linecap:butt;stroke-linejoin:miter;stroke-miterlimit:4;stroke-dasharray:none;stroke-opacity:1" />
      <path
         inkscape:connector-curvature="0"
         inkscape:export-ydpi="96"
         inkscape:export-xdpi="96"
         id="path1120"
         d="m 61.059138,197.71166 29.771874,12.90395"
         style="fill:none;fill-rule:evenodd;stroke:#000000;stroke-width:1;stroke-linecap:butt;stroke-linejoin:miter;stroke-miterlimit:4;stroke-dasharray:none;stroke-opacity:1" />
      <path
         inkscape:connector-curvature="0"
         inkscape:export-ydpi="96"
         inkscape:export-xdpi="96"
         id="path1122"
         d="m 78.011978,211.48532 12.592774,0.18272"
         style="fill:none;fill-rule:evenodd;stroke:#000000;stroke-width:1;stroke-linecap:butt;stroke-linejoin:miter;stroke-miterlimit:4;stroke-dasharray:none;stroke-opacity:1" />
      <path
         inkscape:connector-curvature="0"
         inkscape:export-ydpi="96"
         inkscape:export-xdpi="96"
         id="path1124"
         d="M 103.07895,231.4265 94.566302,214.1711"
         style="fill:none;fill-rule:evenodd;stroke:#000000;stroke-width:1;stroke-linecap:butt;stroke-linejoin:miter;stroke-miterlimit:4;stroke-dasharray:none;stroke-opacity:1" />
      <path
         inkscape:connector-curvature="0"
         inkscape:export-ydpi="96"
         inkscape:export-xdpi="96"
         id="path1126"
         d="M 80.122798,232.37174 91.870262,214.02113"
         style="fill:none;fill-rule:evenodd;stroke:#000000;stroke-width:1;stroke-linecap:butt;stroke-linejoin:miter;stroke-miterlimit:4;stroke-dasharray:none;stroke-opacity:1" />
      <path
         inkscape:connector-curvature="0"
         inkscape:export-ydpi="96"
         inkscape:export-xdpi="96"
         id="path1128"
         d="m 79.950158,236.31237 17.438684,33.34448"
         style="fill:none;fill-rule:evenodd;stroke:#000000;stroke-width:1;stroke-linecap:butt;stroke-linejoin:miter;stroke-miterlimit:4;stroke-dasharray:none;stroke-opacity:1" />
      <path
         inkscape:connector-curvature="0"
         inkscape:export-ydpi="96"
         inkscape:export-xdpi="96"
         id="path1132"
         d="m 60.078218,198.40741 1.74348,24.15963"
         style="fill:none;fill-rule:evenodd;stroke:#000000;stroke-width:1;stroke-linecap:butt;stroke-linejoin:miter;stroke-miterlimit:4;stroke-dasharray:none;stroke-opacity:1" />
      <path
         inkscape:connector-curvature="0"
         inkscape:export-ydpi="96"
         inkscape:export-xdpi="96"
         id="path1134"
         d="m 76.486818,213.16937 2.14859,18.85724"
         style="fill:none;fill-rule:evenodd;stroke:#000000;stroke-width:1;stroke-linecap:butt;stroke-linejoin:miter;stroke-miterlimit:4;stroke-dasharray:none;stroke-opacity:1" />
      <path
         inkscape:connector-curvature="0"
         inkscape:export-ydpi="96"
         inkscape:export-xdpi="96"
         id="path951"
         d="m 62.189858,226.9246 3.69815,38.19006"
         style="opacity:1;fill:none;fill-rule:evenodd;stroke:#000000;stroke-width:1;stroke-linecap:butt;stroke-linejoin:miter;stroke-miterlimit:4;stroke-dasharray:none;stroke-opacity:1" />
      <path
         inkscape:connector-curvature="0"
         id="path934"
         d="M 68.424548,266.22084 102.58599,234.14641"
         style="fill:none;fill-rule:evenodd;stroke:#000000;stroke-width:1;stroke-linecap:butt;stroke-linejoin:miter;stroke-miterlimit:4;stroke-dasharray:none;stroke-opacity:1" />
      <g
         id="text938"
         style="font-style:normal;font-variant:normal;font-weight:normal;font-stretch:normal;font-size:10.58333302px;line-height:1.25;font-family:sans-serif;-inkscape-font-specification:'sans-serif, Normal';font-variant-ligatures:normal;font-variant-caps:normal;font-variant-numeric:normal;text-align:start;letter-spacing:0px;word-spacing:0px;writing-mode:lr-tb;text-anchor:start;fill:#000000;fill-opacity:1;stroke:none;stroke-width:0.26458332"
         transform="rotate(-180,85.735003,154.58321)"
         aria-label="feneas.org">
        <path
           inkscape:connector-curvature="0"
           id="path1263"
           style="font-size:7.05555534px"
           d="m 113.42746,46.415479 -0.52464,0.0508 -0.0584,-0.603514 q -0.0329,-0.339476 -0.18299,-0.459927 -0.14978,-0.117022 -0.5064,-0.08249 l -0.33948,0.03287 0.10062,1.039004 -0.49036,0.04748 -0.10061,-1.039003 -3.35019,0.324416 -0.0614,-0.634375 3.35019,-0.324417 -0.0584,-0.603514 0.49035,-0.04748 0.0584,0.603514 0.26747,-0.0259 q 0.64123,-0.06209 0.96159,0.208009 0.32379,0.269772 0.38655,0.917863 z" />
        <path
           inkscape:connector-curvature="0"
           id="path1265"
           style="font-size:7.05555534px"
           d="m 110.53877,50.540613 -0.30862,0.02988 -0.28091,-2.900981 q -0.64754,0.104239 -0.95658,0.487208 -0.30527,0.386067 -0.2445,1.013584 0.0352,0.36348 0.15722,0.694323 0.12236,0.334272 0.33322,0.653052 l -0.59666,0.05778 q -0.17689,-0.32553 -0.28687,-0.674847 -0.10997,-0.349317 -0.1455,-0.716225 -0.089,-0.918987 0.39381,-1.50915 0.48313,-0.586733 1.39526,-0.675059 0.94299,-0.09132 1.54421,0.362725 0.60499,0.457136 0.68866,1.321258 0.0751,0.774967 -0.38209,1.272653 -0.45339,0.500783 -1.31065,0.583797 z m 0.12407,-0.648878 q 0.51712,-0.057 0.79818,-0.371494 0.28138,-0.311068 0.23623,-0.777419 -0.0511,-0.528075 -0.38035,-0.818088 -0.32888,-0.286585 -0.87532,-0.282127 z" />
        <path
           inkscape:connector-curvature="0"
           id="path1267"
           style="font-size:7.05555534px"
           d="m 111.18823,54.745394 -2.31805,0.224469 -0.0611,-0.630946 2.29746,-0.222477 q 0.54522,-0.0528 0.79553,-0.29163 0.25031,-0.238834 0.20914,-0.664037 -0.0495,-0.510929 -0.4038,-0.774282 -0.35431,-0.263354 -0.91668,-0.208897 l -2.17059,0.21019 -0.0614,-0.634375 3.84054,-0.371901 0.0614,0.634375 -0.59666,0.05778 q 0.36825,0.19278 0.56926,0.481363 0.20134,0.292013 0.24019,0.693212 0.0641,0.661808 -0.31453,1.041131 -0.37518,0.378991 -1.17072,0.456027 z" />
        <path
           inkscape:connector-curvature="0"
           id="path1269"
           style="font-size:7.05555534px"
           d="m 111.38883,59.318994 -0.30862,0.02988 -0.28091,-2.900981 q -0.64754,0.104239 -0.95658,0.487208 -0.30527,0.386066 -0.2445,1.013583 0.0352,0.36348 0.15722,0.694323 0.12236,0.334272 0.33321,0.653053 l -0.59665,0.05778 q -0.17689,-0.32553 -0.28687,-0.674847 -0.10997,-0.349316 -0.1455,-0.716225 -0.089,-0.918987 0.39381,-1.509149 0.48313,-0.586733 1.39526,-0.67506 0.94299,-0.09132 1.54421,0.362725 0.60499,0.457136 0.68866,1.321258 0.0751,0.774967 -0.3821,1.272653 -0.45338,0.500783 -1.31064,0.583797 z m 0.12407,-0.648877 q 0.51712,-0.057 0.79818,-0.371495 0.28138,-0.311067 0.23623,-0.777419 -0.0511,-0.528075 -0.38035,-0.818088 -0.32888,-0.286584 -0.87532,-0.282127 z" />
        <path
           inkscape:connector-curvature="0"
           id="path1271"
           style="font-size:7.05555534px"
           d="m 111.51068,62.114236 q -0.074,-0.764679 -0.27749,-1.042643 -0.20344,-0.277964 -0.62521,-0.237121 -0.33605,0.03254 -0.51368,0.27126 -0.17388,0.241815 -0.13702,0.62244 0.0508,0.524646 0.45169,0.804257 0.40465,0.282708 1.02188,0.222939 l 0.14059,-0.01361 z m 0.38247,1.233228 -2.19117,0.212182 -0.0611,-0.630946 0.58294,-0.05645 q -0.37068,-0.182161 -0.56992,-0.488222 -0.1958,-0.306392 -0.24096,-0.772744 -0.0571,-0.589798 0.2382,-0.971438 0.29908,-0.378544 0.85459,-0.432337 0.64809,-0.06276 1.01912,0.337426 0.37136,0.403612 0.45471,1.264305 l 0.0857,0.884697 0.0617,-0.006 q 0.43549,-0.04217 0.6442,-0.353124 0.21247,-0.307855 0.16233,-0.825642 -0.0319,-0.32919 -0.14096,-0.633596 -0.10908,-0.304407 -0.29471,-0.577173 l 0.58294,-0.05645 q 0.16727,0.333385 0.26396,0.652836 0.10013,0.319119 0.13002,0.627734 0.0807,0.833261 -0.31153,1.286586 -0.39221,0.453326 -1.27005,0.538332 z" />
        <path
           inkscape:connector-curvature="0"
           id="path1273"
           style="font-size:7.05555534px"
           d="m 113.79263,66.950093 -0.59665,0.05778 q 0.11126,-0.280748 0.15195,-0.57543 0.0407,-0.294682 0.0108,-0.603297 -0.0455,-0.469781 -0.21242,-0.692439 -0.1666,-0.21923 -0.45464,-0.191337 -0.21946,0.02125 -0.33007,0.201561 -0.10717,0.179978 -0.17119,0.698436 l -0.0271,0.220679 q -0.0789,0.686041 -0.31575,0.992792 -0.23305,0.309848 -0.70283,0.355339 -0.53493,0.0518 -0.88815,-0.343186 -0.35289,-0.391556 -0.42461,-1.132232 -0.0299,-0.308615 -7e-4,-0.65064 0.0261,-0.338263 0.11024,-0.720223 l 0.65152,-0.06309 q -0.14787,0.367362 -0.20759,0.715804 -0.0563,0.34811 -0.0241,0.680728 0.0432,0.445778 0.21729,0.671201 0.17755,0.225092 0.45531,0.198195 0.25717,-0.0249 0.3774,-0.213068 0.12056,-0.184735 0.19066,-0.783389 l 0.0302,-0.224441 q 0.0667,-0.598322 0.29518,-0.883502 0.23194,-0.285513 0.67772,-0.32868 0.54179,-0.05246 0.87388,0.303033 0.33209,0.355498 0.40049,1.061883 0.0339,0.349764 0.0123,0.66336 -0.0215,0.313596 -0.0992,0.584166 z" />
        <path
           inkscape:connector-curvature="0"
           id="path1275"
           style="font-size:7.05555534px"
           d="m 111.06241,68.529735 0.0701,0.723531 -0.87098,0.08434 -0.0701,-0.72353 z" />
        <path
           inkscape:connector-curvature="0"
           id="path1277"
           style="font-size:7.05555534px"
           d="m 113.9416,71.919806 q -0.0491,-0.5075 -0.47547,-0.76388 -0.4229,-0.256713 -1.11214,-0.18997 -0.68924,0.06674 -1.05879,0.396731 -0.36578,0.333085 -0.31631,0.844014 0.0488,0.504071 0.47514,0.760452 0.42633,0.25638 1.11214,0.189969 0.68238,-0.06608 1.0516,-0.399495 0.37264,-0.33375 0.32383,-0.837821 z m 0.53493,-0.0518 q 0.0797,0.822973 -0.40975,1.344554 -0.48944,0.521581 -1.43586,0.613228 -0.94299,0.09131 -1.52684,-0.326333 -0.58043,-0.41798 -0.66012,-1.240954 -0.08,-0.826402 0.40942,-1.347983 0.4932,-0.518484 1.43619,-0.609799 0.94642,-0.09165 1.52651,0.322904 0.58042,0.41798 0.66045,1.244383 z" />
        <path
           inkscape:connector-curvature="0"
           id="path1279"
           style="font-size:7.05555534px"
           d="m 114.28127,76.964506 q 0.0514,-0.112277 0.0666,-0.241809 0.0189,-0.126434 0.004,-0.277313 -0.0518,-0.534932 -0.42946,-0.789104 -0.3739,-0.251074 -1.02542,-0.187983 l -2.02314,0.195911 -0.0614,-0.634375 3.84054,-0.3719 0.0614,0.634375 -0.59665,0.05778 q 0.36902,0.165016 0.56792,0.467647 0.20234,0.3023 0.2465,0.758364 0.006,0.06515 0.004,0.145017 7.8e-4,0.07953 -0.007,0.177206 z" />
        <path
           inkscape:connector-curvature="0"
           id="path1281"
           style="font-size:7.05555534px"
           d="m 113.2929,80.161467 q 0.68581,-0.06641 1.03545,-0.387549 0.34996,-0.317708 0.30049,-0.828637 -0.0491,-0.507501 -0.4539,-0.755586 -0.40443,-0.244657 -1.09024,-0.178246 -0.68238,0.06608 -1.03235,0.383787 -0.34963,0.321138 -0.30049,0.828638 0.0495,0.510929 0.4539,0.755586 0.40476,0.248086 1.08714,0.182007 z m -1.42711,0.775058 q -0.98071,0.09497 -1.49952,-0.294368 -0.52224,-0.389002 -0.60924,-1.287415 -0.0322,-0.332618 -0.009,-0.632498 0.0195,-0.299547 0.0954,-0.587262 l 0.6138,-0.05944 q -0.12398,0.292364 -0.16976,0.570232 -0.0458,0.277869 -0.0186,0.559052 0.0601,0.620659 0.41575,0.897728 0.35221,0.277402 1.00716,0.21398 l 0.31205,-0.03022 q -0.35841,-0.162583 -0.55598,-0.451498 -0.19758,-0.288915 -0.23876,-0.714118 -0.0684,-0.706386 0.42812,-1.190579 0.49653,-0.484194 1.38465,-0.570196 0.89156,-0.08633 1.47176,0.293595 0.5802,0.379928 0.6486,1.086314 0.0412,0.425203 -0.0973,0.746659 -0.13847,0.321457 -0.45902,0.549786 l 0.58294,-0.05645 0.0611,0.630946 z" />
      </g>
      <g
         id="text966"
         style="font-style:normal;font-variant:normal;font-weight:normal;font-stretch:normal;font-size:10.58333302px;line-height:1.25;font-family:sans-serif;-inkscape-font-specification:'sans-serif, Normal';font-variant-ligatures:normal;font-variant-caps:normal;font-variant-numeric:normal;text-align:start;letter-spacing:0px;word-spacing:0px;writing-mode:lr-tb;text-anchor:start;fill:#000000;fill-opacity:1;stroke:none;stroke-width:0.26458332"
         transform="rotate(180,88.708603,153.83946)"
         aria-label="Federated Networks">
        <path
           inkscape:connector-curvature="0"
           id="path1284"
           style="font-size:3.52777767px"
           d="m 110.43265,44.422814 0.14246,1.471065 -0.29147,0.02822 -0.10892,-1.12473 -0.75439,0.07305 0.0983,1.015 -0.29147,0.02822 -0.0983,-1.015001 -1.22246,0.118377 -0.0335,-0.346334 z" />
        <path
           inkscape:connector-curvature="0"
           id="path1286"
           style="font-size:3.52777767px"
           d="m 109.24691,48.029998 -0.15431,0.01494 -0.14046,-1.450491 q -0.32377,0.05212 -0.47828,0.243604 -0.15264,0.193033 -0.12226,0.506792 0.0176,0.18174 0.0786,0.347162 0.0612,0.167136 0.16661,0.326526 l -0.29833,0.02889 q -0.0884,-0.162765 -0.14343,-0.337424 -0.055,-0.174658 -0.0727,-0.358113 -0.0445,-0.459493 0.1969,-0.754574 0.24157,-0.293367 0.69763,-0.33753 0.4715,-0.04566 0.77211,0.181363 0.30249,0.228568 0.34433,0.660629 0.0375,0.387483 -0.19105,0.636326 -0.22669,0.250392 -0.65532,0.291899 z m 0.062,-0.324439 q 0.25857,-0.0285 0.39909,-0.185747 0.1407,-0.155534 0.11812,-0.38871 -0.0256,-0.264037 -0.19018,-0.409044 -0.16443,-0.143292 -0.43765,-0.141063 z" />
        <path
           inkscape:connector-curvature="0"
           id="path1288"
           style="font-size:3.52777767px"
           d="m 110.0092,49.754279 1.03901,-0.100613 0.0306,0.315473 -2.66781,0.258338 -0.0306,-0.315473 0.28804,-0.02789 q -0.18108,-0.08284 -0.27987,-0.227298 -0.0969,-0.142909 -0.11749,-0.35551 -0.0337,-0.34805 0.2228,-0.594405 0.25666,-0.244642 0.7093,-0.288473 0.45264,-0.04383 0.75147,0.147017 0.29901,0.192564 0.33271,0.540613 0.0206,0.212601 -0.0488,0.371615 -0.0675,0.160562 -0.22935,0.276608 z m -0.77447,-1.010093 q -0.34805,0.0337 -0.53316,0.195269 -0.18322,0.163113 -0.15898,0.413434 0.0242,0.250321 0.23535,0.375248 0.21283,0.124762 0.56088,0.09106 0.34805,-0.0337 0.53128,-0.196817 0.18494,-0.163279 0.1607,-0.4136 -0.0242,-0.250321 -0.23707,-0.375083 -0.21096,-0.123212 -0.559,-0.08951 z" />
        <path
           inkscape:connector-curvature="0"
           id="path1290"
           style="font-size:3.52777767px"
           d="m 109.67193,52.419188 -0.1543,0.01494 -0.14046,-1.450491 q -0.32377,0.05212 -0.47829,0.243604 -0.15264,0.193033 -0.12225,0.506792 0.0176,0.18174 0.0786,0.347161 0.0612,0.167136 0.16661,0.326527 l -0.29833,0.02889 q -0.0884,-0.162765 -0.14343,-0.337423 -0.055,-0.174658 -0.0728,-0.358113 -0.0445,-0.459493 0.19691,-0.754574 0.24157,-0.293367 0.69763,-0.33753 0.4715,-0.04566 0.77211,0.181362 0.30249,0.228568 0.34433,0.660629 0.0375,0.387484 -0.19105,0.636327 -0.22669,0.250391 -0.65533,0.291898 z m 0.062,-0.324438 q 0.25856,-0.0285 0.39909,-0.185748 0.14069,-0.155533 0.11811,-0.388709 -0.0256,-0.264038 -0.19017,-0.409044 -0.16444,-0.143292 -0.43766,-0.141064 z" />
        <path
           inkscape:connector-curvature="0"
           id="path1292"
           style="font-size:3.52777767px"
           d="m 110.4162,53.992923 q 0.0257,-0.05614 0.0333,-0.120905 0.009,-0.06322 0.002,-0.138656 -0.0259,-0.267467 -0.21473,-0.394552 -0.18695,-0.125537 -0.51271,-0.09399 l -1.01157,0.09796 -0.0307,-0.317188 1.92027,-0.18595 0.0307,0.317188 -0.29833,0.02889 q 0.18451,0.08251 0.28396,0.233824 0.10117,0.15115 0.12325,0.379182 0.003,0.03258 0.002,0.07251 3.9e-4,0.03977 -0.004,0.0886 z" />
        <path
           inkscape:connector-curvature="0"
           id="path1294"
           style="font-size:3.52777767px"
           d="m 109.87299,55.263873 q -0.037,-0.38234 -0.13874,-0.521322 -0.10172,-0.138982 -0.31261,-0.118561 -0.16802,0.01627 -0.25684,0.13563 -0.0869,0.120908 -0.0685,0.311221 0.0254,0.262323 0.22585,0.402128 0.20232,0.141354 0.51094,0.11147 l 0.0703,-0.0068 z m 0.19124,0.616613 -1.09559,0.106092 -0.0305,-0.315473 0.29147,-0.02822 q -0.18534,-0.09108 -0.28496,-0.244111 -0.0979,-0.153196 -0.12048,-0.386372 -0.0286,-0.294899 0.1191,-0.485719 0.14954,-0.189272 0.4273,-0.216168 0.32404,-0.03138 0.50956,0.168712 0.18568,0.201807 0.22735,0.632153 l 0.0428,0.442349 0.0309,-0.003 q 0.21774,-0.02109 0.3221,-0.176562 0.10624,-0.153927 0.0812,-0.412821 -0.0159,-0.164595 -0.0705,-0.316798 -0.0545,-0.152203 -0.14735,-0.288587 l 0.29147,-0.02822 q 0.0836,0.166692 0.13198,0.326418 0.0501,0.159559 0.065,0.313867 0.0403,0.41663 -0.15577,0.643293 -0.1961,0.226663 -0.63502,0.269165 z" />
        <path
           inkscape:connector-curvature="0"
           id="path1296"
           style="font-size:3.52777767px"
           d="m 111.52744,56.711395 -0.54522,0.0528 0.0629,0.649806 -0.24517,0.02374 -0.0629,-0.649806 -1.04243,0.100945 q -0.23489,0.02275 -0.29562,0.09266 -0.0605,0.07163 -0.0415,0.268798 l 0.0314,0.324046 -0.26404,0.02557 -0.0314,-0.324046 q -0.0354,-0.365194 0.0866,-0.517187 0.12371,-0.152159 0.48376,-0.187025 l 1.04244,-0.100944 -0.0224,-0.231462 0.24518,-0.02374 0.0224,0.231462 0.54522,-0.0528 z" />
        <path
           inkscape:connector-curvature="0"
           id="path1298"
           style="font-size:3.52777767px"
           d="m 110.36327,59.558482 -0.15431,0.01494 -0.14045,-1.45049 q -0.32377,0.05212 -0.47829,0.243604 -0.15264,0.193033 -0.12225,0.506791 0.0176,0.18174 0.0786,0.347162 0.0612,0.167136 0.1666,0.326526 l -0.29832,0.02889 q -0.0885,-0.162765 -0.14344,-0.337423 -0.055,-0.174659 -0.0727,-0.358113 -0.0445,-0.459494 0.19691,-0.754575 0.24156,-0.293366 0.69763,-0.337529 0.47149,-0.04566 0.7721,0.181362 0.3025,0.228568 0.34433,0.660629 0.0375,0.387483 -0.19105,0.636327 -0.22669,0.250391 -0.65532,0.291898 z m 0.062,-0.324439 q 0.25856,-0.0285 0.39909,-0.185747 0.14069,-0.155534 0.11811,-0.38871 -0.0256,-0.264037 -0.19017,-0.409044 -0.16444,-0.143292 -0.43766,-0.141063 z" />
        <path
           inkscape:connector-curvature="0"
           id="path1300"
           style="font-size:3.52777767px"
           d="m 111.12558,61.282763 1.039,-0.100612 0.0306,0.315473 -2.66781,0.258338 -0.0306,-0.315473 0.28804,-0.02789 q -0.18108,-0.08284 -0.27987,-0.227297 -0.0969,-0.14291 -0.11749,-0.355511 -0.0337,-0.348049 0.2228,-0.594405 0.25667,-0.244642 0.7093,-0.288473 0.45264,-0.04383 0.75148,0.147018 0.299,0.192563 0.3327,0.540612 0.0206,0.212602 -0.0488,0.371615 -0.0675,0.160563 -0.22934,0.276608 z m -0.77448,-1.010092 q -0.34805,0.0337 -0.53316,0.195268 -0.18322,0.163113 -0.15898,0.413435 0.0242,0.250321 0.23535,0.375248 0.21284,0.124761 0.56089,0.09106 0.34804,-0.0337 0.53127,-0.196817 0.18494,-0.16328 0.1607,-0.413601 -0.0242,-0.250321 -0.23707,-0.375082 -0.21095,-0.123213 -0.559,-0.08951 z" />
        <path
           inkscape:connector-curvature="0"
           id="path1302"
           style="font-size:3.52777767px"
           d="m 112.25961,63.289479 0.0452,0.466352 -2.03153,1.342385 2.14144,-0.207368 0.0325,0.336048 -2.55979,0.247878 -0.0452,-0.466351 2.03154,-1.342386 -2.14145,0.207368 -0.0325,-0.336047 z" />
        <path
           inkscape:connector-curvature="0"
           id="path1304"
           style="font-size:3.52777767px"
           d="m 111.15091,67.692198 -0.15431,0.01494 -0.14046,-1.450491 q -0.32377,0.05212 -0.47828,0.243604 -0.15264,0.193033 -0.12226,0.506792 0.0176,0.18174 0.0786,0.347162 0.0612,0.167136 0.16661,0.326526 l -0.29833,0.02889 q -0.0884,-0.162766 -0.14343,-0.337424 -0.055,-0.174658 -0.0727,-0.358113 -0.0445,-0.459493 0.1969,-0.754574 0.24157,-0.293367 0.69763,-0.33753 0.4715,-0.04566 0.77211,0.181362 0.30249,0.228569 0.34433,0.66063 0.0375,0.387483 -0.19105,0.636326 -0.22669,0.250392 -0.65532,0.291898 z m 0.062,-0.324438 q 0.25857,-0.0285 0.39909,-0.185748 0.1407,-0.155533 0.11812,-0.388709 -0.0256,-0.264037 -0.19018,-0.409044 -0.16444,-0.143292 -0.43765,-0.141063 z" />
        <path
           inkscape:connector-curvature="0"
           id="path1306"
           style="font-size:3.52777767px"
           d="m 112.65775,68.383899 -0.54522,0.0528 0.0629,0.649806 -0.24517,0.02374 -0.0629,-0.649806 -1.04243,0.100944 q -0.23489,0.02275 -0.29562,0.09266 -0.0606,0.07163 -0.0415,0.268798 l 0.0314,0.324046 -0.26404,0.02557 -0.0314,-0.324046 q -0.0354,-0.365194 0.0866,-0.517187 0.12371,-0.152159 0.48376,-0.187025 l 1.04244,-0.100944 -0.0224,-0.231461 0.24518,-0.02374 0.0224,0.231461 0.54522,-0.0528 z" />
        <path
           inkscape:connector-curvature="0"
           id="path1308"
           style="font-size:3.52777767px"
           d="m 112.19803,69.319676 0.0305,0.315473 -1.46031,0.539449 1.53652,0.24752 0.036,0.372052 -1.46031,0.539449 1.53652,0.247519 0.0306,0.315474 -1.96892,-0.316407 -0.036,-0.372052 1.53393,-0.565614 -1.61412,-0.262503 -0.036,-0.372053 z" />
        <path
           inkscape:connector-curvature="0"
           id="path1310"
           style="font-size:3.52777767px"
           d="m 112.34494,73.142204 q -0.0246,-0.25375 -0.23773,-0.381941 -0.21145,-0.128356 -0.55607,-0.09498 -0.34462,0.03337 -0.52939,0.198365 -0.1829,0.166542 -0.15816,0.422007 0.0244,0.252036 0.23757,0.380226 0.21317,0.12819 0.55607,0.09499 0.34119,-0.03304 0.5258,-0.199748 0.18632,-0.166875 0.16191,-0.41891 z m 0.26747,-0.0259 q 0.0399,0.411486 -0.20487,0.672277 -0.24472,0.26079 -0.71793,0.306614 -0.4715,0.04566 -0.76343,-0.163167 -0.29021,-0.20899 -0.33005,-0.620477 -0.04,-0.413201 0.2047,-0.673991 0.2466,-0.259242 0.7181,-0.3049 0.47321,-0.04582 0.76326,0.161452 0.29021,0.20899 0.33022,0.622192 z" />
        <path
           inkscape:connector-curvature="0"
           id="path1312"
           style="font-size:3.52777767px"
           d="m 112.51478,75.664558 q 0.0257,-0.05614 0.0333,-0.120905 0.009,-0.06322 0.002,-0.138657 -0.0259,-0.267466 -0.21472,-0.394551 -0.18695,-0.125537 -0.51271,-0.09399 l -1.01157,0.09796 -0.0307,-0.317188 1.92027,-0.18595 0.0307,0.317187 -0.29833,0.02889 q 0.18451,0.08251 0.28396,0.233824 0.10117,0.151149 0.12325,0.379182 0.003,0.03258 0.002,0.07251 3.9e-4,0.03977 -0.004,0.0886 z" />
        <path
           inkscape:connector-curvature="0"
           id="path1314"
           style="font-size:3.52777767px"
           d="m 113.58843,75.885943 0.0307,0.317187 -1.57565,0.152579 0.91927,0.861085 0.039,0.402914 -0.99703,-0.931432 -0.91909,1.160245 -0.0398,-0.411486 0.84337,-1.066384 -0.93784,0.09082 -0.0307,-0.317187 z" />
        <path
           inkscape:connector-curvature="0"
           id="path1316"
           style="font-size:3.52777767px"
           d="m 113.10125,79.236841 -0.29832,0.02889 q 0.0556,-0.140374 0.076,-0.287715 0.0203,-0.147341 0.005,-0.301648 -0.0227,-0.234891 -0.10621,-0.34622 -0.0833,-0.109615 -0.22732,-0.09567 -0.10973,0.01063 -0.16503,0.100781 -0.0536,0.08999 -0.0856,0.349218 l -0.0135,0.11034 q -0.0395,0.34302 -0.15787,0.496395 -0.11653,0.154924 -0.35142,0.17767 -0.26746,0.0259 -0.44407,-0.171593 -0.17645,-0.195778 -0.21231,-0.566116 -0.0149,-0.154308 -3.5e-4,-0.32532 0.013,-0.169132 0.0551,-0.360112 l 0.32576,-0.03155 q -0.0739,0.183682 -0.10379,0.357903 -0.0281,0.174055 -0.012,0.340364 0.0216,0.222888 0.10865,0.3356 0.0888,0.112546 0.22765,0.0991 0.12859,-0.01245 0.1887,-0.106534 0.0603,-0.09237 0.0953,-0.391695 l 0.0151,-0.11222 q 0.0333,-0.299161 0.14759,-0.441752 0.11597,-0.142756 0.33886,-0.164339 0.2709,-0.02623 0.43694,0.151516 0.16605,0.177749 0.20025,0.530942 0.0169,0.174882 0.006,0.33168 -0.0108,0.156797 -0.0496,0.292082 z" />
      </g>
      <g
         id="text973"
         style="font-style:normal;font-variant:normal;font-weight:normal;font-stretch:normal;font-size:10.58333302px;line-height:1.25;font-family:sans-serif;-inkscape-font-specification:'sans-serif, Normal';font-variant-ligatures:normal;font-variant-caps:normal;font-variant-numeric:normal;text-align:start;letter-spacing:0px;word-spacing:0px;writing-mode:lr-tb;text-anchor:start;fill:#000000;fill-opacity:1;stroke:none;stroke-width:0.26458332"
         transform="rotate(-180,90.232023,151.29549)"
         aria-label="Association ry">
        <path
           inkscape:connector-curvature="0"
           id="path1319"
           style="font-size:3.52777767px;stroke-width:0.26458332"
           d="m 110.17431,45.311403 -1.31938,-0.346422 0.0911,0.941275 z m 0.32226,-0.228495 0.038,0.392626 -2.46532,1.223445 -0.0349,-0.360051 0.63408,-0.296764 -0.11173,-1.153877 -0.67925,-0.169587 -0.0354,-0.365195 z" />
        <path
           inkscape:connector-curvature="0"
           id="path1321"
           style="font-size:3.52777767px;stroke-width:0.26458332"
           d="m 110.08621,48.101019 -0.29833,0.02889 q 0.0556,-0.140375 0.076,-0.287715 0.0203,-0.147341 0.005,-0.301649 -0.0228,-0.23489 -0.10621,-0.346219 -0.0833,-0.109615 -0.22732,-0.09567 -0.10973,0.01063 -0.16504,0.100781 -0.0536,0.08999 -0.0856,0.349218 l -0.0135,0.110339 q -0.0395,0.343021 -0.15787,0.496396 -0.11652,0.154924 -0.35141,0.17767 -0.26747,0.0259 -0.44408,-0.171593 -0.17644,-0.195778 -0.2123,-0.566116 -0.0149,-0.154308 -3.6e-4,-0.32532 0.013,-0.169132 0.0551,-0.360112 l 0.32576,-0.03155 q -0.0739,0.183681 -0.10379,0.357902 -0.0281,0.174055 -0.012,0.340364 0.0216,0.222889 0.10864,0.335601 0.0888,0.112546 0.22765,0.0991 0.12859,-0.01245 0.18871,-0.106534 0.0603,-0.09237 0.0953,-0.391694 l 0.0151,-0.112221 q 0.0333,-0.299161 0.14759,-0.441751 0.11597,-0.142756 0.33886,-0.16434 0.27089,-0.02623 0.43694,0.151517 0.16604,0.177749 0.20024,0.530941 0.0169,0.174882 0.006,0.33168 -0.0108,0.156798 -0.0496,0.292083 z" />
        <path
           inkscape:connector-curvature="0"
           id="path1323"
           style="font-size:3.52777767px;stroke-width:0.26458332"
           d="m 110.26352,49.932131 -0.29832,0.02889 q 0.0556,-0.140375 0.076,-0.287715 0.0203,-0.147341 0.005,-0.301649 -0.0227,-0.23489 -0.10621,-0.346219 -0.0833,-0.109615 -0.22732,-0.09567 -0.10973,0.01063 -0.16503,0.100781 -0.0536,0.08999 -0.0856,0.349218 l -0.0135,0.110339 q -0.0395,0.343021 -0.15787,0.496396 -0.11653,0.154924 -0.35142,0.17767 -0.26746,0.0259 -0.44407,-0.171593 -0.17645,-0.195779 -0.21231,-0.566117 -0.0149,-0.154307 -3.5e-4,-0.325319 0.013,-0.169132 0.0551,-0.360112 l 0.32576,-0.03155 q -0.0739,0.183681 -0.10379,0.357902 -0.0281,0.174055 -0.012,0.340364 0.0216,0.222889 0.10865,0.335601 0.0888,0.112545 0.22765,0.0991 0.12859,-0.01245 0.1887,-0.106534 0.0603,-0.09237 0.0953,-0.391694 l 0.0151,-0.112221 q 0.0333,-0.299161 0.14759,-0.441751 0.11597,-0.142756 0.33886,-0.16434 0.2709,-0.02623 0.43694,0.151517 0.16605,0.177749 0.20025,0.530941 0.0169,0.174882 0.006,0.33168 -0.0108,0.156798 -0.0496,0.292083 z" />
        <path
           inkscape:connector-curvature="0"
           id="path1325"
           style="font-size:3.52777767px;stroke-width:0.26458332"
           d="m 110.22976,51.299117 q -0.0246,-0.25375 -0.23774,-0.38194 -0.21145,-0.128356 -0.55607,-0.09499 -0.34462,0.03337 -0.52939,0.198366 -0.18289,0.166542 -0.15816,0.422007 0.0244,0.252035 0.23757,0.380226 0.21317,0.12819 0.55607,0.09499 0.34119,-0.03304 0.5258,-0.199748 0.18632,-0.166875 0.16192,-0.418911 z m 0.26746,-0.0259 q 0.0399,0.411487 -0.20487,0.672277 -0.24472,0.260791 -0.71793,0.306614 -0.4715,0.04566 -0.76342,-0.163166 -0.29022,-0.20899 -0.33006,-0.620477 -0.04,-0.413201 0.20471,-0.673992 0.2466,-0.259242 0.71809,-0.304899 0.47321,-0.04582 0.76326,0.161452 0.29021,0.20899 0.33022,0.622191 z" />
        <path
           inkscape:connector-curvature="0"
           id="path1327"
           style="font-size:3.52777767px;stroke-width:0.26458332"
           d="m 110.64684,54.069235 -0.2949,0.02856 q 0.0608,-0.140872 0.0837,-0.279806 0.0248,-0.137386 0.0115,-0.274548 -0.0297,-0.306901 -0.24161,-0.457712 -0.21018,-0.150977 -0.56166,-0.116942 -0.35148,0.03404 -0.5305,0.222701 -0.1773,0.1885 -0.14758,0.4954 0.0133,0.137162 0.0622,0.267409 0.0508,0.131795 0.13752,0.258389 l -0.29147,0.02822 q -0.0745,-0.126042 -0.11915,-0.265359 -0.0445,-0.137603 -0.0599,-0.297054 -0.042,-0.433776 0.20587,-0.715639 0.24787,-0.281863 0.71079,-0.32669 0.46978,-0.04549 0.76387,0.185622 0.29425,0.232827 0.33775,0.682033 0.0141,0.145735 -0.003,0.2876 -0.0157,0.1417 -0.0631,0.277815 z" />
        <path
           inkscape:connector-curvature="0"
           id="path1329"
           style="font-size:3.52777767px;stroke-width:0.26458332"
           d="m 110.77402,54.614173 0.0306,0.315473 -1.92027,0.18595 -0.0305,-0.315473 z m 0.74754,-0.07239 0.0306,0.315473 -0.39949,0.03868 -0.0306,-0.315473 z" />
        <path
           inkscape:connector-curvature="0"
           id="path1331"
           style="font-size:3.52777767px;stroke-width:0.26458332"
           d="m 109.99784,56.553199 q -0.037,-0.38234 -0.13875,-0.521322 -0.10171,-0.138982 -0.3126,-0.118561 -0.16803,0.01627 -0.25684,0.13563 -0.0869,0.120908 -0.0685,0.311221 0.0254,0.262322 0.22585,0.402128 0.20232,0.141354 0.51094,0.111469 l 0.0703,-0.0068 z m 0.19123,0.616613 -1.09558,0.106091 -0.0306,-0.315473 0.29147,-0.02822 q -0.18534,-0.09108 -0.28496,-0.244111 -0.0979,-0.153196 -0.12048,-0.386372 -0.0286,-0.294899 0.1191,-0.485719 0.14954,-0.189272 0.4273,-0.216169 0.32404,-0.03138 0.50956,0.168713 0.18568,0.201807 0.22735,0.632153 l 0.0428,0.442348 0.0309,-0.003 q 0.21775,-0.02109 0.32211,-0.176562 0.10623,-0.153928 0.0812,-0.412821 -0.0159,-0.164595 -0.0705,-0.316798 -0.0545,-0.152204 -0.14736,-0.288587 l 0.29147,-0.02822 q 0.0836,0.166692 0.13199,0.326417 0.0501,0.15956 0.065,0.313868 0.0404,0.41663 -0.15576,0.643293 -0.19611,0.226662 -0.63503,0.269165 z" />
        <path
           inkscape:connector-curvature="0"
           id="path1333"
           style="font-size:3.52777767px;stroke-width:0.26458332"
           d="m 111.65229,58.000721 -0.54522,0.0528 0.0629,0.649806 -0.24518,0.02374 -0.0629,-0.649806 -1.04244,0.100944 q -0.23489,0.02275 -0.29561,0.09266 -0.0606,0.07163 -0.0415,0.268798 l 0.0314,0.324045 -0.26403,0.02557 -0.0314,-0.324045 q -0.0354,-0.365195 0.0866,-0.517188 0.12372,-0.152159 0.48377,-0.187024 l 1.04243,-0.100945 -0.0224,-0.231461 0.24517,-0.02374 0.0224,0.231461 0.54522,-0.0528 z" />
        <path
           inkscape:connector-curvature="0"
           id="path1335"
           style="font-size:3.52777767px;stroke-width:0.26458332"
           d="m 111.21034,59.119952 0.0305,0.315473 -1.92027,0.18595 -0.0306,-0.315473 z m 0.74753,-0.07239 0.0306,0.315473 -0.39948,0.03869 -0.0305,-0.315473 z" />
        <path
           inkscape:connector-curvature="0"
           id="path1337"
           style="font-size:3.52777767px;stroke-width:0.26458332"
           d="m 111.15552,60.859325 q -0.0246,-0.25375 -0.23773,-0.381941 -0.21145,-0.128356 -0.55607,-0.09498 -0.34462,0.03337 -0.5294,0.198365 -0.18289,0.166543 -0.15815,0.422007 0.0244,0.252036 0.23757,0.380226 0.21316,0.12819 0.55607,0.09499 0.34119,-0.03304 0.5258,-0.199748 0.18632,-0.166875 0.16191,-0.41891 z m 0.26747,-0.0259 q 0.0398,0.411486 -0.20488,0.672277 -0.24472,0.26079 -0.71793,0.306614 -0.47149,0.04566 -0.76342,-0.163167 -0.29021,-0.20899 -0.33006,-0.620477 -0.04,-0.413201 0.20471,-0.673991 0.2466,-0.259242 0.7181,-0.3049 0.47321,-0.04582 0.76325,0.161452 0.29022,0.20899 0.33023,0.622192 z" />
        <path
           inkscape:connector-curvature="0"
           id="path1339"
           style="font-size:3.52777767px;stroke-width:0.26458332"
           d="m 110.90583,63.910335 -1.15902,0.112234 -0.0305,-0.315473 1.14873,-0.111238 q 0.27261,-0.0264 0.39777,-0.145815 0.12515,-0.119417 0.10457,-0.332019 -0.0247,-0.255464 -0.2019,-0.387141 -0.17716,-0.131677 -0.45834,-0.104448 l -1.0853,0.105095 -0.0307,-0.317188 1.92027,-0.18595 0.0307,0.317187 -0.29832,0.02889 q 0.18412,0.09639 0.28462,0.240682 0.10067,0.146006 0.1201,0.346606 0.032,0.330904 -0.15727,0.520565 -0.18759,0.189496 -0.58536,0.228014 z" />
        <path
           inkscape:connector-curvature="0"
           id="path1341"
           style="font-size:3.52777767px;stroke-width:0.26458332"
           d="m 111.64944,66.728438 q 0.0257,-0.05614 0.0333,-0.120904 0.009,-0.06322 0.002,-0.138657 -0.0259,-0.267466 -0.21473,-0.394551 -0.18694,-0.125538 -0.51271,-0.09399 l -1.01157,0.09796 -0.0307,-0.317188 1.92027,-0.18595 0.0307,0.317187 -0.29832,0.02889 q 0.18451,0.08251 0.28396,0.233824 0.10117,0.151149 0.12325,0.379181 0.003,0.03258 0.002,0.07251 3.9e-4,0.03977 -0.004,0.0886 z" />
        <path
           inkscape:connector-curvature="0"
           id="path1343"
           style="font-size:3.52777767px;stroke-width:0.26458332"
           d="m 109.95551,68.0364 q -0.35586,-0.100528 -0.47273,-0.217275 -0.11687,-0.116748 -0.13746,-0.329349 l -0.0244,-0.252036 0.26404,-0.02557 0.0179,0.185169 q 0.0126,0.130304 0.0813,0.196338 0.0687,0.06603 0.30691,0.131226 l 0.1495,0.04263 1.8142,-0.959643 0.0324,0.334333 -1.44382,0.745525 1.56004,0.454645 0.0324,0.334333 z" />
      </g>
      <path
         inkscape:connector-curvature="0"
         id="path978"
         d="M 95.854292,271.30553 73.198438,261.45314"
         style="fill:none;fill-rule:evenodd;stroke:#000000;stroke-width:1;stroke-linecap:butt;stroke-linejoin:miter;stroke-miterlimit:4;stroke-dasharray:none;stroke-opacity:1" />
    </g>
  </g>
</svg>
