<?xml version="1.0" encoding="UTF-8" standalone="no"?>
<!-- Created with Inkscape (http://www.inkscape.org/) -->
<svg xmlns:osb="http://www.openswatchbook.org/uri/2009/osb" xmlns:dc="http://purl.org/dc/elements/1.1/" xmlns:cc="http://creativecommons.org/ns#" xmlns:rdf="http://www.w3.org/1999/02/22-rdf-syntax-ns#" xmlns:svg="http://www.w3.org/2000/svg" xmlns="http://www.w3.org/2000/svg" xmlns:xlink="http://www.w3.org/1999/xlink" xmlns:sodipodi="http://sodipodi.sourceforge.net/DTD/sodipodi-0.dtd" xmlns:inkscape="http://www.inkscape.org/namespaces/inkscape" width="799.00726318359" height="112.72354888916" viewBox="0 0 211.40400018641 29.824773153016" version="1.1" id="svg8" inkscape:version="0.92.5 (0.92.5+69)" sodipodi:docname="fediverse-13year-birthday.svg" inkscape:export-filename="/home/arnold/Desktop/fediverse-european-commission-event-2021-2.png" inkscape:export-xdpi="110" inkscape:export-ydpi="110">
  <defs id="defs2">
    <linearGradient osb:paint="solid" id="AP-4-0">
      <stop id="stop5660" offset="0" style="stop-color:#5e5e5e;stop-opacity:1;"/>
    </linearGradient>
    <linearGradient osb:paint="solid" id="linearGradient5640">
      <stop id="stop5638" offset="0" style="stop-color:#000000;stop-opacity:1;"/>
    </linearGradient>
    <linearGradient osb:paint="solid" id="AP-3-7">
      <stop id="stop5498" offset="0" style="stop-color:#c678c5;stop-opacity:1;"/>
    </linearGradient>
    <linearGradient osb:paint="solid" id="AP-2-3">
      <stop id="stop5230" offset="0" style="stop-color:#6d6d6d;stop-opacity:1;"/>
    </linearGradient>
    <linearGradient osb:paint="solid" id="AP1-5">
      <stop id="stop5212" offset="0" style="stop-color:#f1007e;stop-opacity:1;"/>
    </linearGradient>
    <linearGradient y2="-1291.2801513672" x2="3344.3645019531" y1="-1291.2801513672" x1="3319.2919921875" gradientUnits="userSpaceOnUse" id="linearGradient5749" xlink:href="#AP-3-7" inkscape:collect="always"/>
    <linearGradient y2="-1354.6217041016" x2="3322.1943359375" y1="-1354.6217041016" x1="3269.1259765625" gradientTransform="matrix(0.42732603,0,0,0.42732603,-1363.3009,454.91899)" gradientUnits="userSpaceOnUse" id="linearGradient5188" xlink:href="#AP-2-3" inkscape:collect="always"/>
    <g id="s">
      <g id="c">
        <path transform="translate(0,-1)rotate(18)" d="M0,0v1h0.5z" id="t"/>
        <use id="use991" transform="scale(-1,1)" xlink:href="#t"/>
      </g>
      <g id="a">
        <use id="use994" transform="rotate(72)" xlink:href="#c"/>
        <use id="use996" transform="rotate(144)" xlink:href="#c"/>
      </g>
      <use id="use999" transform="scale(-1,1)" xlink:href="#a"/>
    </g>
    <linearGradient id="linearGradient28" spreadMethod="pad" gradientTransform="matrix(-139.45511,-135.52185,-135.52185,139.45511,177.4727,131.75308)" gradientUnits="userSpaceOnUse" y2="0" x2="1" y1="0" x1="0">
      <stop id="stop24" offset="0" style="stop-opacity:1;stop-color:#00afbc"/>
      <stop id="stop26" offset="1" style="stop-opacity:1;stop-color:#205374"/>
    </linearGradient>
    <clipPath id="clipPath38" clipPathUnits="userSpaceOnUse">
      <path inkscape:connector-curvature="0" id="path36" d="M 0,127.984 H 415.474 V 0 H 0 Z"/>
    </clipPath>
  </defs>
  
  
  <g inkscape:label="Layer 1" inkscape:groupmode="layer" id="layer1" transform="translate(1.2907341368677,-5.7975013554657)">
    <text xml:space="preserve" style="font-style:normal;font-variant:normal;font-weight:normal;font-stretch:normal;font-size:8.4666662216px;line-height:125%;font-family:Carlito;-inkscape-font-specification:'Carlito, Normal';font-variant-ligatures:normal;font-variant-caps:normal;font-variant-numeric:normal;font-feature-settings:normal;text-align:start;letter-spacing:0px;word-spacing:0px;writing-mode:lr-tb;text-anchor:start;fill:#6d6d6f;fill-opacity:0.9411764706;stroke:none;stroke-width:0.2645833194px;stroke-linecap:butt;stroke-linejoin:miter;stroke-opacity:1" x="46.037525177002" y="28.712505340576" id="text817"><tspan sodipodi:role="line" id="tspan815" x="46.037525177002" y="28.712505340576" style="font-style:normal;font-variant:normal;font-weight:normal;font-stretch:normal;font-size:8.4666662216px;font-family:Carlito;-inkscape-font-specification:'Carlito, Normal';font-variant-ligatures:normal;font-variant-caps:normal;font-variant-numeric:normal;font-feature-settings:normal;text-align:start;letter-spacing:0.4392083585px;writing-mode:lr-tb;text-anchor:start;fill:#6d6d6f;fill-opacity:0.9411764706;stroke-width:0.2645833194px">Help brainstorm a FUN campaign </tspan></text>
    <text xml:space="preserve" style="font-style:normal;font-weight:normal;font-size:10.5833330154px;line-height:125%;font-family:sans-serif;letter-spacing:0px;word-spacing:0px;fill:#f1007e;fill-opacity:1;stroke:none;stroke-width:0.2645833194px;stroke-linecap:butt;stroke-linejoin:miter;stroke-opacity:1" x="36.777095794678" y="17.864566802979" id="text1470"><tspan sodipodi:role="line" id="tspan1468" x="36.777095794678" y="17.864566802979" style="font-style:normal;font-variant:normal;font-weight:normal;font-stretch:normal;font-size:9.1722230911px;font-family:Carlito;-inkscape-font-specification:Carlito;letter-spacing:0.1190624982px;fill:#f1007e;fill-opacity:1;stroke-width:0.2645833194px"><tspan style="font-weight:bold" id="tspan935">Hurray!</tspan> Fedi's 13th birthday • 18 May</tspan></text>
    <g id="g1059" transform="matrix(0.26458333333333,0,0,0.26458333333333,17.362390863133,5.1951903310034)" style="fill:none;fill-rule:evenodd">
      <path id="path1035" d="M 19,14.6477437 C 19,14.6477437 25.0314305,6.84011508 28.5360716,7.00249827 32.0407127,7.16488145 31.0512461,18.0353633 30.1256002,19.1884678 29.1999544,20.3415722 25.3806108,21.6383092 25.3806108,21.6383092 25.3806108,21.6383092 28.2954599,22.8177626 28.2954599,25.3631956 28.2954599,27.9086286 25.7046052,30.7815242 22.5971935,27.5882742 19.4897817,24.3950242 19.279002,21.2354763 19.279002,21.2354763" inkscape:connector-curvature="0" style="fill:#5ea7ff"/>
      <path id="path1037" transform="matrix(-1,0,0,1,26,0)" d="M 7,14.6477437 C 7,14.6477437 13.0314305,6.84011508 16.5360716,7.00249827 20.0407127,7.16488145 19.0512461,18.0353633 18.1256002,19.1884678 17.1999544,20.3415722 13.3806108,21.6383092 13.3806108,21.6383092 13.3806108,21.6383092 16.2954599,22.8177626 16.2954599,25.3631956 16.2954599,27.9086286 13.7046052,30.7815242 10.5971935,27.5882742 7.48978169,24.3950242 7.27900195,21.2354763 7.27900195,21.2354763" inkscape:connector-curvature="0" style="fill:#5ea7ff"/>
      <circle id="circle1039" r="1" cy="12" cx="19" style="fill:#595959"/>
      <ellipse id="ellipse1041" ry="5.5" rx="1" cy="17.5" cx="19" style="fill:#595959"/>
      <path id="path1043" d="M 49,30.6477437 C 49,30.6477437 55.0314305,22.8401151 58.5360716,23.0024983 62.0407127,23.1648815 61.0512461,34.0353633 60.1256002,35.1884678 59.1999544,36.3415722 55.3806108,37.6383092 55.3806108,37.6383092 55.3806108,37.6383092 58.2954599,38.8177626 58.2954599,41.3631956 58.2954599,43.9086286 55.7046052,46.7815242 52.5971935,43.5882742 49.4897817,40.3950242 49.279002,37.2354763 49.279002,37.2354763" inkscape:connector-curvature="0" style="fill:#ff78c7"/>
      <path id="path1045" transform="matrix(-1,0,0,1,86,0)" d="M 37,30.6477437 C 37,30.6477437 43.0314305,22.8401151 46.5360716,23.0024983 50.0407127,23.1648815 49.0512461,34.0353633 48.1256002,35.1884678 47.1999544,36.3415722 43.3806108,37.6383092 43.3806108,37.6383092 43.3806108,37.6383092 46.2954599,38.8177626 46.2954599,41.3631956 46.2954599,43.9086286 43.7046052,46.7815242 40.5971935,43.5882742 37.4897817,40.3950242 37.279002,37.2354763 37.279002,37.2354763" inkscape:connector-curvature="0" style="fill:#ff78c7"/>
      <circle id="circle1047" r="1" cy="28" cx="49" style="fill:#595959"/>
      <ellipse id="ellipse1049" ry="5.5" rx="1" cy="33.5" cx="49" style="fill:#595959"/>
      <path id="path1051" d="M 16,44.6477437 C 16,44.6477437 22.0314305,36.8401151 25.5360716,37.0024983 29.0407127,37.1648815 28.0512461,48.0353633 27.1256002,49.1884678 26.1999544,50.3415722 22.3806108,51.6383092 22.3806108,51.6383092 22.3806108,51.6383092 25.2954599,52.8177626 25.2954599,55.3631956 25.2954599,57.9086286 22.7046052,60.7815242 19.5971935,57.5882742 16.4897817,54.3950242 16.279002,51.2354763 16.279002,51.2354763" inkscape:connector-curvature="0" style="fill:#ed9111"/>
      <path id="path1053" transform="matrix(-1,0,0,1,20,0)" d="M 4,44.6477437 C 4,44.6477437 10.0314305,36.8401151 13.5360716,37.0024983 17.0407127,37.1648815 16.0512461,48.0353633 15.1256002,49.1884678 14.1999544,50.3415722 10.3806108,51.6383092 10.3806108,51.6383092 10.3806108,51.6383092 13.2954599,52.8177626 13.2954599,55.3631956 13.2954599,57.9086286 10.7046052,60.7815242 7.59719345,57.5882742 4.48978169,54.3950242 4.27900195,51.2354763 4.27900195,51.2354763" inkscape:connector-curvature="0" style="fill:#ed9111"/>
      <circle id="circle1055" r="1" cy="42" cx="16" style="fill:#595959"/>
      <ellipse id="ellipse1057" ry="5.5" rx="1" cy="47.5" cx="16" style="fill:#595959"/>
    </g>
    <g id="g1090" transform="matrix(0.26458333333333,0,0,0.26458333333333,25.905807177124,21.950072194179)" style="fill:none;fill-rule:evenodd">
      <path id="path1082" d="M 54.8414725,37.5787966 51.2585469,21.0491703 M 54.2257757,39.0010942 62.0730655,19.2526505" inkscape:connector-curvature="0" style="stroke:#bd7575;stroke-width:2;stroke-linecap:round"/>
      <path id="path1084" d="M 14.6278307,47.5384252 7.21508002,52.25431 H 48.6122459 C 52.7846756,52.25431 56.1670981,48.8643997 56.1670981,44.7016908 V 37.1490715 H 45.4950204 Z" inkscape:connector-curvature="0" style="fill:#ffaf40"/>
      <path id="path1086" d="M 47.5811403,37.9111673 C 47.5811403,37.9111673 47.2976762,29.9526065 41.2174858,21.8696273 35.1372953,13.786648 32.7423426,12.6455765 29.3439553,12.6455765 25.9455681,12.6455765 20.3359956,10.8158907 13.4751318,14.2396926 6.6142681,17.6634946 4.04406855,21.8281902 2.60813805,26.1962035 1.17220756,30.5642168 3.98267316,39.672642 10.2341366,43.4776644 12.1025594,44.6149006 11.632894,49.6318222 24.7861544,49.0147727 37.9394149,48.3977233 47.5811403,37.9111673 47.5811403,37.9111673 Z" inkscape:connector-curvature="0" style="fill:#bd7575"/>
      <path id="path1088" d="M 46.5772929,37.3100679 C 46.5772929,37.3100679 43.6422966,5.02974529 16.1834611,13.5095353 -11.2753743,21.9893252 8.54260668,49.1153463 20.7205614,49.1153463 32.8985162,49.1153463 44.2398267,33.0996213 29.7504725,25.2383895 16.9892219,18.3147443 9.52716995,36.7189426 18.2661431,39.5823871 27.0051163,42.4458317 29.7504725,35.0413358 27.0356754,31.9230945" inkscape:connector-curvature="0" style="stroke:#9c4d4d;stroke-width:2;stroke-linecap:round"/>
    </g>
    <g id="g1123" transform="matrix(0.26458333333333,0,0,-0.26458333333333,194.76551586313,22.393106999057)" style="fill:none;fill-rule:evenodd">
      <path id="path1105" d="M 9,9 H 24 V 16 H 15.5031554 C 13.5684161,16 11.385666,14.566554 10.6229242,12.7868232 Z" inkscape:connector-curvature="0" style="fill:#ffaf40"/>
      <path id="path1107" transform="matrix(-1,0,0,1,95,0)" d="M 40,9 H 55 V 16 H 46.5031554 C 44.5684161,16 42.385666,14.566554 41.6229242,12.7868232 Z" inkscape:connector-curvature="0" style="fill:#ffaf40"/>
      <path id="path1109" d="M 26,3.50700176 C 26,2.12242292 27.1096621,1 28.5,1 V 1 C 29.8807119,1 31,2.12165891 31,3.50700176 V 10 H 26 Z M 34,3.50700176 C 34,2.12242292 35.1096621,1 36.5,1 V 1 C 37.8807119,1 39,2.12165891 39,3.50700176 V 10 H 34 Z" inkscape:connector-curvature="0" style="fill:#bd7575"/>
      <path id="path1111" transform="matrix(1,0,0,-1,0,72)" d="M 23.7894737,9 H 40.2105263 L 45.8059078,57.0406816 C 46.1892444,60.3319223 43.8107742,63 40.4911813,63 H 23.5088187 C 20.1902398,63 17.811896,60.3221316 18.1940922,57.0406816 Z" inkscape:connector-curvature="0" style="fill:#ffdd95"/>
      <ellipse id="ellipse1113" ry="8" rx="16" cy="47" cx="32" style="fill:#ffaf40"/>
      <ellipse id="ellipse1115" ry="3" rx="2" cy="47" cx="21" style="fill:#bd7575"/>
      <ellipse id="ellipse1117" ry="3" rx="2" cy="47" cx="44" style="fill:#bd7575"/>
      <circle id="circle1119" r="2" cy="25" cx="26" style="fill:#595959"/>
      <circle id="circle1121" r="2" cy="25" cx="38" style="fill:#595959"/>
    </g>
    <g id="g1155" transform="matrix(0.26458333333333,0,0,0.26458333333333,-1.9521924702,15.910815332389)" style="fill:none;fill-rule:evenodd">
      <polygon id="polygon1143" points="22,28 22,18 60.722,18 53,28 " style="fill:#ffaf40"/>
      <path id="path1145" d="M 19,11 H 55.9984123 C 59.3129976,11 62,13.6930342 62,17 V 23 H 19 Z" inkscape:connector-curvature="0" style="fill:#ed9111"/>
      <path id="path1147" d="M 3,22 H 24 C 24,22 33.8626933,27.3116445 33.8626933,43 33.8626933,58.6883555 21,64 21,64 H 3 Z" inkscape:connector-curvature="0" style="fill:#b4dffb"/>
      <path id="path1149" d="M 3,37 H 12.022656 C 16.4284214,37 19.4770699,40.5297785 18.8295893,44.9002725 L 16,64 H 3 Z" inkscape:connector-curvature="0" style="fill:#5ea7ff"/>
      <circle id="circle1151" r="14" cy="21" cx="17" style="fill:#5ea7ff"/>
      <circle id="circle1153" r="3" cy="16" cx="19" style="fill:#595959"/>
    </g>
    <g id="g1184" transform="matrix(0.22280701754386,0,0,0.22280701754386,176.68709879357,22.65072761309)" style="fill:none;fill-rule:evenodd">
      <path id="path1172" d="M 52,3.03280455 C 51.6694764,3.01104935 51.3360286,3 51,3 42.7157288,3 36,9.71572875 36,18 36,26.2842712 42.7157288,33 51,33 51.3360286,33 51.6694764,32.9889506 52,32.9671954 Z" inkscape:connector-curvature="0" style="fill:#d8d8d8"/>
      <path id="path1174" transform="matrix(-1,0,0,1,40,0)" d="M 28,3.03280455 C 27.6694764,3.01104935 27.3360286,3 27,3 18.7157288,3 12,9.71572875 12,18 12,26.2842712 18.7157288,33 27,33 27.3360286,33 27.6694764,32.9889506 28,32.9671954 Z" inkscape:connector-curvature="0" style="fill:#d8d8d8"/>
      <circle id="circle1176" r="25" cy="35" cx="32" style="fill:#ececec"/>
      <path id="path1178" d="M 19,29 C 19,31.209139 20.790861,33 23,33 V 33 C 25.209139,33 27,31.209139 27,29 M 36,29 C 36,31.209139 37.790861,33 40,33 V 33 C 42.209139,33 44,31.209139 44,29 M 24,44 C 24,46.209139 25.790861,48 28,48 V 48 C 30.209139,48 32,46.209139 32,44 M 32,44 C 32,46.209139 33.790861,48 36,48 V 48 C 38.209139,48 40,46.209139 40,44" inkscape:connector-curvature="0" style="stroke:#979797;stroke-width:2;stroke-linecap:round"/>
      <polygon id="polygon1180" transform="matrix(1,0,0,-1,0,81)" points="27,43 32,36 37,43 33.975,45 30.085,45 " style="fill:#595959"/>
      <path id="path1182" d="M 14,34 H 1.95840542 M 14,38 H 1.95840542 M 14,42 H 1.95840542 M 63,34 H 50.9584054 M 63,38 H 50.9584054 M 63,42 H 50.9584054" inkscape:connector-curvature="0" style="stroke:#d8d8d8;stroke-width:2;stroke-linecap:square"/>
    </g>
    <g id="g1217" transform="matrix(0.11831556536693,-0.10940105279852,0.09014552292973,0.14358835572661,181.86352289926,10.437348622971)" style="fill:none;fill-rule:evenodd">
      <path id="path1201" d="M 30.9918831,54.5548089 V 59.9498999 M 28.6188673,12.1237581 24,5" inkscape:connector-curvature="0" style="stroke:#979797;stroke-width:2;stroke-linecap:round"/>
      <path id="path1203" transform="matrix(-1,0,0,1,72.619,0)" d="M 38.6188673,12.1237581 34,5" inkscape:connector-curvature="0" style="stroke:#979797;stroke-width:2;stroke-linecap:round"/>
      <circle id="circle1205" r="12" cy="33" cx="48" style="fill:#b4dffb"/>
      <circle id="circle1207" r="12" cy="33" cx="15" style="fill:#b4dffb"/>
      <path id="path1209" d="M 22,19.9989419 C 22,15.0289635 26.0283444,11 31,11 V 11 C 35.9705627,11 40,15.0204204 40,19.9989419 V 43 H 22 Z" inkscape:connector-curvature="0" style="fill:#ffaf40"/>
      <path id="path1211" d="M 22,43 H 40 V 49 C 40,52.3137085 37.3052181,55 34.0062606,55 H 27.9937394 C 24.6834885,55 22,52.3069658 22,49 Z" inkscape:connector-curvature="0" style="fill:#595959"/>
      <rect id="rect1213" y="35" x="22" height="4" width="18" style="fill:#595959"/>
      <rect id="rect1215" y="27" x="22" height="4" width="18" style="fill:#595959"/>
    </g>
  </g>
</svg>
